<?xml version="1.0" encoding="utf-8"?>
<svg viewBox="1211.063 -1611.614 375 308" xmlns="http://www.w3.org/2000/svg">
  <defs>
    <clipPath id="clip13_0_1">
      <rect width="375" height="308" fill="white" transform="translate(7115 1000)"/>
    </clipPath>
  </defs>
  <g clip-path="url(#clip13_0_1)" transform="matrix(1, 0, 0, 1, -5903.937012, -2611.614258)">
    <path d="M7207.56 1281.04L7208.32 1297.14L7208.32 1297.15C7208.45 1299.87 7207.5 1302.53 7205.67 1304.54C7203.84 1306.56 7201.28 1307.77 7198.56 1307.89L7198.23 1307.91L7196.98 1281.54L7207.56 1281.04Z" fill="#2F2E41"/>
    <path d="M7436.14 1253.83C7428.48 1268.79 7418.77 1283.27 7406.48 1296.37C7406.21 1296.67 7405.93 1296.96 7405.65 1297.25L7376.54 1283.44C7376.72 1283.15 7376.91 1282.81 7377.12 1282.45C7389.63 1261.02 7465.13 1130.27 7462.74 1100.65C7463.02 1103.09 7471.97 1183.87 7436.14 1253.83Z" fill="#E6E6E6"/>
    <path d="M7412.1 1299.04C7411.69 1299.27 7411.27 1299.49 7410.85 1299.71L7389.01 1289.36C7389.32 1289.14 7389.67 1288.88 7390.08 1288.59C7396.77 1283.78 7416.67 1269.34 7436.14 1253.83C7457.06 1237.15 7477.5 1219.23 7480.53 1210.68C7479.91 1212.64 7460.76 1272.26 7412.1 1299.04Z" fill="#E6E6E6"/>
    <path d="M7151.33 1307.27C7169.95 1307.27 7185.04 1292.15 7185.04 1273.5C7185.04 1254.86 7169.95 1239.74 7151.33 1239.74C7132.72 1239.74 7117.62 1254.86 7117.62 1273.5C7117.62 1292.15 7132.72 1307.27 7151.33 1307.27Z" fill="#02316B"/>
    <path d="M7164.84 1259.34H7137.83C7136.64 1259.34 7135.49 1259.81 7134.65 1260.66C7133.81 1261.5 7133.33 1262.65 7133.33 1263.84V1283.16C7133.33 1284.36 7133.81 1285.51 7134.65 1286.35C7135.49 1287.2 7136.64 1287.67 7137.83 1287.67H7164.84C7166.03 1287.67 7167.17 1287.2 7168.02 1286.35C7168.86 1285.51 7169.33 1284.36 7169.34 1283.16V1263.84C7169.33 1262.65 7168.86 1261.5 7168.02 1260.66C7167.17 1259.81 7166.03 1259.34 7164.84 1259.34ZM7164.84 1261.91C7165 1261.91 7165.16 1261.93 7165.31 1261.97L7151.34 1273.14L7137.44 1261.95C7137.57 1261.92 7137.7 1261.91 7137.83 1261.91H7164.84ZM7164.84 1285.1H7137.83C7137.32 1285.1 7136.83 1284.89 7136.47 1284.53C7136.11 1284.17 7135.9 1283.68 7135.9 1283.16V1264.02L7150.53 1275.8C7150.75 1275.98 7151.04 1276.08 7151.33 1276.08C7151.62 1276.08 7151.91 1275.98 7152.13 1275.8L7166.76 1264.11V1283.16C7166.76 1283.68 7166.56 1284.17 7166.2 1284.53C7165.84 1284.89 7165.35 1285.1 7164.84 1285.1Z" fill="white"/>
    <path d="M7281.42 1224.76L7288.96 1224.82C7289.72 1224.83 7290.48 1224.67 7291.17 1224.35C7291.87 1224.03 7292.49 1223.57 7292.98 1222.99C7293.48 1222.41 7293.85 1221.73 7294.05 1220.99C7294.26 1220.26 7294.31 1219.49 7294.19 1218.73C7294.06 1217.92 7293.74 1217.15 7293.25 1216.48C7292.77 1215.82 7292.14 1215.27 7291.41 1214.89C7290.68 1214.52 7289.87 1214.32 7289.05 1214.31C7288.23 1214.3 7287.42 1214.49 7286.68 1214.85L7279.57 1218.37L7255.24 1223.8L7244.82 1213.13L7238.83 1223L7252.9 1233.89L7281.42 1224.76Z" fill="#FFB8B8"/>
    <path d="M7280.01 1302.81L7271.12 1304.52C7265.05 1285.36 7258.47 1267.21 7258.47 1253.17C7249.88 1262.75 7239.23 1268.23 7226.69 1269.95L7228.06 1248.72L7238.31 1243.24L7254 1235.99C7255.38 1235.35 7256.86 1234.99 7258.37 1234.91C7261.31 1234.75 7264.2 1235.69 7266.49 1237.54C7268.77 1239.4 7270.3 1242.03 7270.76 1244.94L7280.01 1302.81Z" fill="#2F2E41"/>
    <path d="M7237.46 1267.38L7233.91 1270.07C7232.39 1271.23 7230.59 1271.97 7228.69 1272.22C7226.8 1272.47 7224.87 1272.22 7223.1 1271.49C7212.96 1263.87 7205.75 1266.12 7199.22 1277.61C7191.38 1268.76 7189.45 1255.96 7196.44 1242.73L7235.23 1243.59L7243.09 1241.19L7237.46 1267.38Z" fill="#2F2E41"/>
    <path d="M7224.54 1307.04C7222.31 1307.73 7219.92 1307.61 7217.78 1306.7C7215.64 1305.8 7213.88 1304.17 7212.81 1302.09C7209.33 1299.02 7206.39 1294.62 7203.84 1289.26C7202.01 1285.33 7200.43 1281.29 7199.13 1277.16C7197.37 1271.69 7200.32 1265.73 7205.81 1264.09C7205.97 1264.05 7206.14 1264 7206.31 1263.96C7213.64 1262.07 7221.17 1266.31 7223.68 1273.46L7230.97 1294.27C7231.4 1295.5 7231.59 1296.81 7231.51 1298.11C7231.44 1299.41 7231.11 1300.68 7230.55 1301.86C7229.99 1303.03 7229.2 1304.08 7228.23 1304.95C7227.26 1305.82 7226.13 1306.49 7224.9 1306.92C7224.78 1306.96 7224.66 1307 7224.54 1307.04Z" fill="#2F2E41"/>
    <path opacity="0.2" d="M7202.59 1286.89C7202.59 1286.89 7211.14 1296.48 7212.85 1301.95L7202.59 1286.89Z" fill="black"/>
    <path d="M7169.46 1241.65L7166.6 1248.65C7166.31 1249.35 7166.18 1250.12 7166.21 1250.88C7166.25 1251.64 7166.45 1252.39 7166.8 1253.07C7167.15 1253.75 7167.65 1254.34 7168.25 1254.8C7168.86 1255.27 7169.56 1255.6 7170.3 1255.77C7171.1 1255.95 7171.94 1255.94 7172.73 1255.74C7173.53 1255.54 7174.27 1255.15 7174.89 1254.61C7175.51 1254.07 7175.99 1253.4 7176.31 1252.64C7176.62 1251.87 7176.75 1251.05 7176.68 1250.23L7176.07 1242.31L7180.07 1217.67L7193.83 1211.94L7186.9 1202.7L7171.59 1211.74L7169.46 1241.65Z" fill="#FFB8B8"/>
    <path d="M7237.8 1242.73C7227.98 1259.25 7208.4 1265.65 7191.63 1252.71C7194.58 1243.01 7204.11 1216.18 7197.95 1215.15C7184.89 1220.64 7184.87 1207.76 7182.43 1201.31L7212.16 1190.35L7228.23 1194.8L7231.52 1195.97C7233.66 1196.74 7235.52 1198.14 7236.85 1199.99C7238.17 1201.84 7238.9 1204.05 7238.93 1206.33C7232.18 1216.09 7227.19 1226.51 7237.8 1242.73Z" fill="#02316B"/>
    <path d="M7241.56 1229.38L7229.77 1219.62L7233.7 1196.86L7249.76 1213.97L7241.56 1229.38Z" fill="#02316B"/>
    <path d="M7437.21 1072.99H7435.52V1026.76C7435.52 1019.66 7432.71 1012.86 7427.7 1007.84C7422.69 1002.82 7415.89 1000 7408.81 1000H7311.02C7303.93 1000 7297.14 1002.82 7292.13 1007.84C7287.12 1012.86 7284.31 1019.66 7284.31 1026.76V1280.39C7284.31 1287.49 7287.12 1294.3 7292.13 1299.31C7297.14 1304.33 7303.93 1307.15 7311.02 1307.15H7408.81C7415.89 1307.15 7422.69 1304.33 7427.7 1299.31C7432.71 1294.3 7435.52 1287.49 7435.52 1280.39V1105.9H7437.21L7437.21 1072.99Z" fill="#3F3D56"/>
    <path d="M7409.89 1006.96H7397.12C7397.71 1008.4 7397.93 1009.97 7397.77 1011.52C7397.62 1013.06 7397.08 1014.55 7396.21 1015.84C7395.35 1017.14 7394.17 1018.19 7392.8 1018.93C7391.43 1019.66 7389.9 1020.04 7388.35 1020.04H7332.32C7330.77 1020.04 7329.24 1019.66 7327.87 1018.93C7326.5 1018.19 7325.32 1017.14 7324.46 1015.84C7323.59 1014.55 7323.05 1013.07 7322.9 1011.52C7322.74 1009.97 7322.96 1008.4 7323.55 1006.96H7311.62C7306.33 1006.96 7301.26 1009.07 7297.52 1012.81C7293.78 1016.56 7291.67 1021.64 7291.67 1026.94V1280.21C7291.67 1285.51 7293.78 1290.59 7297.52 1294.34C7301.26 1298.08 7306.33 1300.19 7311.62 1300.19H7409.88C7415.17 1300.19 7420.25 1298.08 7423.99 1294.34C7427.73 1290.59 7429.83 1285.51 7429.83 1280.21V1280.21V1026.94C7429.83 1021.64 7427.73 1016.56 7423.99 1012.81C7420.25 1009.07 7415.17 1006.96 7409.88 1006.96H7409.89L7409.89 1006.96Z" fill="white"/>
    <path d="M7360.92 1286.04C7366.97 1286.04 7371.88 1281.12 7371.88 1275.06C7371.88 1269 7366.97 1264.09 7360.92 1264.09C7354.87 1264.09 7349.97 1269 7349.97 1275.06C7349.97 1281.12 7354.87 1286.04 7360.92 1286.04Z" fill="#E6E6E6"/>
    <path d="M7316.48 1173.58C7315.45 1173.58 7314.6 1174.55 7314.6 1175.73C7314.6 1176.92 7315.45 1177.88 7316.48 1177.88H7405.02C7406.06 1177.88 7406.9 1176.92 7406.9 1175.73C7406.9 1174.55 7406.06 1173.58 7405.02 1173.58H7316.48Z" fill="#E6E6E6"/>
    <path d="M7316.48 1224.23C7315.45 1224.23 7314.6 1225.19 7314.6 1226.38C7314.6 1227.56 7315.45 1228.52 7316.48 1228.52H7405.02C7406.06 1228.52 7406.9 1227.56 7406.9 1226.38C7406.9 1225.19 7406.06 1224.23 7405.02 1224.23H7316.48Z" fill="#E6E6E6"/>
    <path d="M7316.48 1186.47C7315.45 1186.47 7314.6 1187.43 7314.6 1188.62C7314.6 1189.8 7315.45 1190.76 7316.48 1190.76H7354.58C7355.62 1190.76 7356.46 1189.8 7356.46 1188.62C7356.46 1187.43 7355.62 1186.47 7354.58 1186.47H7316.48Z" fill="#E6E6E6"/>
    <path d="M7316.48 1198.75C7315.45 1198.75 7314.6 1199.71 7314.6 1200.9C7314.6 1202.08 7315.45 1203.04 7316.48 1203.04H7405.02C7406.06 1203.04 7406.9 1202.08 7406.9 1200.9C7406.9 1199.71 7406.06 1198.75 7405.02 1198.75H7316.48Z" fill="#E6E6E6"/>
    <path d="M7316.48 1211.63C7315.45 1211.63 7314.6 1212.6 7314.6 1213.78C7314.6 1214.96 7315.45 1215.93 7316.48 1215.93H7354.58C7355.62 1215.93 7356.46 1214.96 7356.46 1213.78C7356.46 1212.6 7355.62 1211.63 7354.58 1211.63H7316.48Z" fill="#E6E6E6"/>
    <path d="M7333.2 1075.81H7388.31C7388.92 1075.81 7389.51 1076.05 7389.94 1076.48C7390.37 1076.92 7390.61 1077.5 7390.61 1078.11V1135.61C7390.61 1136.22 7390.37 1136.8 7389.94 1137.23C7389.51 1137.66 7388.92 1137.91 7388.31 1137.91H7333.2C7332.59 1137.91 7332 1137.66 7331.57 1137.23C7331.14 1136.8 7330.9 1136.22 7330.9 1135.61V1078.11C7330.9 1077.5 7331.14 1076.92 7331.57 1076.48C7332 1076.05 7332.59 1075.81 7333.2 1075.81Z" fill="#02316B"/>
    <path d="M7376.57 1126.05C7376.77 1126.05 7376.98 1126.01 7377.17 1125.93C7377.36 1125.86 7377.53 1125.74 7377.67 1125.6C7377.82 1125.45 7377.93 1125.28 7378.01 1125.09C7378.09 1124.9 7378.13 1124.7 7378.13 1124.49C7378.13 1124.28 7378.09 1124.08 7378.01 1123.89C7377.94 1123.7 7377.82 1123.53 7377.68 1123.38C7377.53 1123.24 7377.36 1123.12 7377.17 1123.05C7376.98 1122.97 7376.78 1122.93 7376.57 1122.93H7344.94C7344.74 1122.93 7344.53 1122.97 7344.34 1123.05C7344.15 1123.12 7343.98 1123.24 7343.84 1123.38C7343.69 1123.53 7343.58 1123.7 7343.5 1123.89C7343.42 1124.08 7343.38 1124.28 7343.38 1124.49C7343.38 1124.69 7343.42 1124.9 7343.5 1125.09C7343.58 1125.28 7343.69 1125.45 7343.84 1125.59C7343.98 1125.74 7344.15 1125.85 7344.34 1125.93C7344.53 1126.01 7344.73 1126.05 7344.94 1126.05H7376.57Z" fill="white"/>
    <path d="M7376.57 1116.85C7376.98 1116.85 7377.38 1116.69 7377.67 1116.39C7377.97 1116.1 7378.13 1115.7 7378.13 1115.29C7378.13 1114.87 7377.97 1114.48 7377.67 1114.18C7377.38 1113.89 7376.98 1113.73 7376.57 1113.73H7344.94C7344.53 1113.73 7344.13 1113.89 7343.84 1114.18C7343.55 1114.48 7343.38 1114.87 7343.38 1115.29C7343.38 1115.7 7343.55 1116.1 7343.84 1116.39C7344.13 1116.68 7344.53 1116.85 7344.94 1116.85H7376.57Z" fill="white"/>
    <path d="M7360.76 1087.67C7362.7 1087.67 7364.59 1088.24 7366.21 1089.32C7367.82 1090.4 7369.08 1091.94 7369.82 1093.74C7370.57 1095.53 7370.76 1097.51 7370.38 1099.42C7370 1101.32 7369.07 1103.07 7367.7 1104.45C7366.32 1105.82 7364.57 1106.76 7362.67 1107.14C7360.77 1107.52 7358.79 1107.32 7357 1106.58C7355.21 1105.84 7353.67 1104.58 7352.6 1102.96C7351.52 1101.34 7350.94 1099.44 7350.94 1097.5C7350.94 1094.89 7351.98 1092.39 7353.82 1090.55C7355.66 1088.71 7358.15 1087.67 7360.76 1087.67Z" fill="white"/>
    <path d="M7235.53 1187.37H7206.4C7205.8 1187.37 7205.22 1187.13 7204.8 1186.71C7204.38 1186.29 7204.14 1185.71 7204.14 1185.11V1172.53C7204.14 1168.06 7205.91 1163.77 7209.06 1160.61C7212.22 1157.45 7216.5 1155.67 7220.96 1155.67C7225.43 1155.67 7229.71 1157.45 7232.86 1160.61C7236.02 1163.77 7237.79 1168.06 7237.79 1172.53V1185.11C7237.79 1185.71 7237.55 1186.29 7237.13 1186.71C7236.71 1187.13 7236.13 1187.37 7235.53 1187.37Z" fill="#2F2E41"/>
    <path d="M7235.01 1180.19C7238.28 1174.2 7236.08 1166.69 7230.1 1163.41C7224.12 1160.14 7216.62 1162.34 7213.36 1168.33C7210.09 1174.32 7212.28 1181.83 7218.26 1185.1C7224.24 1188.38 7231.74 1186.17 7235.01 1180.19Z" fill="#FFB6B6"/>
    <path d="M7241.77 1173.79H7223.96L7223.78 1171.23L7222.86 1173.79H7220.12L7219.76 1168.71L7217.95 1173.79H7212.64V1173.54C7212.64 1170 7214.05 1166.61 7216.54 1164.11C7219.04 1161.61 7222.42 1160.21 7225.95 1160.2H7228.46C7231.99 1160.21 7235.38 1161.61 7237.87 1164.11C7240.37 1166.61 7241.77 1170 7241.77 1173.54V1173.79Z" fill="#2F2E41"/>
    <path d="M7223.81 1189.72C7223.68 1189.72 7223.54 1189.71 7223.41 1189.69L7210.37 1187.38V1165.78H7224.73L7224.37 1166.2C7219.43 1171.98 7223.15 1181.35 7225.81 1186.42C7226.01 1186.79 7226.1 1187.21 7226.07 1187.63C7226.03 1188.05 7225.89 1188.45 7225.64 1188.79C7225.43 1189.08 7225.15 1189.31 7224.84 1189.47C7224.52 1189.64 7224.17 1189.72 7223.81 1189.72Z" fill="#2F2E41"/>
    <path d="M7267.25 1296.35L7283.34 1296.35H7283.34C7286.06 1296.35 7288.67 1297.43 7290.6 1299.36C7292.52 1301.28 7293.6 1303.9 7293.6 1306.62V1306.95L7267.25 1306.95L7267.25 1296.35Z" fill="#2F2E41"/>
    <path d="M7489.58 1308H7115.42C7115.31 1308 7115.2 1307.96 7115.12 1307.88C7115.04 1307.8 7115 1307.69 7115 1307.58C7115 1307.47 7115.04 1307.36 7115.12 1307.28C7115.2 1307.2 7115.31 1307.16 7115.42 1307.16H7489.58C7489.69 1307.16 7489.8 1307.2 7489.88 1307.28C7489.96 1307.36 7490 1307.47 7490 1307.58C7490 1307.69 7489.96 1307.8 7489.88 1307.88C7489.8 1307.96 7489.69 1308 7489.58 1308Z" fill="#CACACA"/>
    <path d="M7137.5 1162C7150.48 1162 7161 1151.48 7161 1138.5C7161 1125.52 7150.48 1115 7137.5 1115C7124.52 1115 7114 1125.52 7114 1138.5C7114 1151.48 7124.52 1162 7137.5 1162Z" fill="#F0F0F0"/>
  </g>
</svg>