<?xml version="1.0" encoding="utf-8"?> 
<svg viewBox="-4275.238 1235.796 132.49 47.44" xmlns="http://www.w3.org/2000/svg">
  <path d="M -4227.288 1257.996 C -4227.448 1257.996 -4227.598 1258.066 -4227.698 1258.176 C -4227.808 1258.286 -4227.878 1258.446 -4227.878 1258.606 L -4227.878 1282.636 C -4227.878 1282.796 -4227.808 1282.946 -4227.698 1283.066 C -4227.598 1283.176 -4227.448 1283.236 -4227.288 1283.236 L -4223.338 1283.236 C -4223.188 1283.236 -4223.038 1283.176 -4222.928 1283.066 C -4222.818 1282.946 -4222.758 1282.796 -4222.758 1282.636 L -4222.758 1258.606 C -4222.758 1258.446 -4222.818 1258.286 -4222.928 1258.176 C -4223.038 1258.066 -4223.188 1257.996 -4223.338 1257.996 L -4227.288 1257.996 Z" fill="#3F3D56"/>
  <path d="M -4194.418 1257.996 C -4194.578 1257.996 -4194.718 1258.066 -4194.828 1258.176 C -4194.938 1258.286 -4194.998 1258.446 -4194.998 1258.606 L -4194.998 1282.636 C -4194.998 1282.796 -4194.938 1282.946 -4194.828 1283.066 C -4194.718 1283.176 -4194.578 1283.236 -4194.418 1283.236 L -4190.468 1283.236 C -4190.308 1283.236 -4190.168 1283.176 -4190.058 1283.066 C -4189.948 1282.946 -4189.888 1282.796 -4189.878 1282.636 L -4189.878 1258.606 C -4189.888 1258.446 -4189.948 1258.286 -4190.058 1258.176 C -4190.168 1258.066 -4190.308 1257.996 -4190.468 1257.996 L -4194.418 1257.996 Z" fill="#3F3D56"/>
  <path d="M -4175.948 1238.906 L -4206.258 1236.486 L -4182.078 1240.746 L -4176.288 1239.706 L -4175.948 1238.906 Z" fill="#3F3D56"/>
  <path d="M -4181.858 1240.366 L -4176.058 1239.326 L -4176.008 1239.196 L -4175.728 1239.216 L -4176.058 1240.016 L -4181.858 1241.056 L -4206.038 1236.486 L -4198.868 1237.366 L -4181.858 1240.366 Z" fill="#3B5BCD"/>
  <path d="M -4244.588 1238.906 L -4274.898 1236.486 L -4250.718 1240.746 L -4244.928 1239.706 L -4244.588 1238.906 Z" fill="#3F3D56"/>
  <path d="M -4251.058 1240.366 L -4245.258 1239.326 L -4245.208 1239.196 L -4244.928 1239.216 L -4245.258 1240.016 L -4251.058 1241.056 L -4275.238 1236.486 L -4268.068 1237.366 L -4251.058 1240.366 Z" fill="#3B5BCD"/>
  <path d="M -4170.828 1251.436 L -4173.388 1251.556 L -4196.868 1261.776 L -4198.208 1262.946 L -4202.468 1266.626 L -4215.838 1266.626 L -4219.868 1262.946 L -4221.398 1261.546 L -4243.928 1251.666 L -4245.928 1251.436 L -4239.248 1248.106 L -4239.208 1248.106 C -4237.688 1246.616 -4224.568 1245.456 -4208.598 1245.456 C -4192.628 1245.456 -4179.508 1246.616 -4177.988 1248.106 L -4177.848 1248.106 L -4170.828 1251.436 Z" fill="#3F3D56"/>
  <path d="M -4239.428 1248.276 C -4239.378 1248.136 -4239.358 1247.996 -4239.358 1247.846 L -4239.358 1242.386 C -4239.358 1242.036 -4239.488 1241.706 -4239.718 1241.466 C -4239.958 1241.226 -4240.278 1241.086 -4240.608 1241.086 L -4241.118 1241.086 C -4240.698 1240.656 -4240.418 1240.096 -4240.298 1239.496 C -4240.188 1238.896 -4240.248 1238.276 -4240.478 1237.706 C -4240.708 1237.146 -4241.088 1236.656 -4241.588 1236.316 C -4242.078 1235.976 -4242.658 1235.796 -4243.258 1235.796 C -4243.848 1235.796 -4244.428 1235.976 -4244.928 1236.316 C -4245.418 1236.656 -4245.808 1237.146 -4246.028 1237.706 C -4246.258 1238.276 -4246.318 1238.896 -4246.208 1239.496 C -4246.098 1240.096 -4245.808 1240.656 -4245.388 1241.086 L -4245.898 1241.086 C -4246.068 1241.086 -4246.228 1241.126 -4246.378 1241.186 C -4246.528 1241.256 -4246.668 1241.346 -4246.788 1241.466 C -4246.908 1241.586 -4246.998 1241.726 -4247.058 1241.886 C -4247.118 1242.046 -4247.158 1242.216 -4247.158 1242.386 L -4247.158 1247.846 C -4247.158 1248.066 -4247.098 1248.286 -4246.988 1248.486 C -4247.368 1248.556 -4247.748 1248.626 -4248.128 1248.716 C -4248.358 1248.766 -4248.558 1248.896 -4248.708 1249.086 C -4248.858 1249.276 -4248.938 1249.516 -4248.938 1249.756 L -4248.938 1251.056 C -4248.938 1251.346 -4248.828 1251.616 -4248.638 1251.816 C -4248.438 1252.016 -4248.178 1252.126 -4247.898 1252.126 L -4236.128 1252.126 L -4236.128 1248.906 C -4237.208 1248.626 -4238.318 1248.416 -4239.428 1248.276 Z" fill="#3F3D56"/>
  <path d="M -4169.738 1248.716 C -4170.118 1248.626 -4170.498 1248.556 -4170.878 1248.486 C -4170.768 1248.286 -4170.718 1248.066 -4170.718 1247.846 L -4170.718 1242.386 C -4170.718 1242.216 -4170.748 1242.046 -4170.808 1241.886 C -4170.868 1241.726 -4170.968 1241.586 -4171.078 1241.466 C -4171.198 1241.346 -4171.338 1241.256 -4171.488 1241.186 C -4171.638 1241.126 -4171.798 1241.086 -4171.968 1241.086 L -4172.478 1241.086 C -4172.058 1240.656 -4171.778 1240.096 -4171.658 1239.496 C -4171.548 1238.896 -4171.608 1238.276 -4171.838 1237.706 C -4172.068 1237.146 -4172.448 1236.656 -4172.948 1236.316 C -4173.438 1235.976 -4174.018 1235.796 -4174.618 1235.796 C -4175.208 1235.796 -4175.788 1235.976 -4176.278 1236.316 C -4176.778 1236.656 -4177.158 1237.146 -4177.388 1237.706 C -4177.618 1238.276 -4177.678 1238.896 -4177.568 1239.496 C -4177.448 1240.096 -4177.168 1240.656 -4176.748 1241.086 L -4177.258 1241.086 C -4177.428 1241.086 -4177.588 1241.126 -4177.738 1241.186 C -4177.888 1241.256 -4178.028 1241.346 -4178.148 1241.466 C -4178.258 1241.586 -4178.358 1241.726 -4178.418 1241.886 C -4178.478 1242.046 -4178.518 1242.216 -4178.518 1242.386 L -4178.518 1247.846 C -4178.518 1247.996 -4178.488 1248.136 -4178.438 1248.276 C -4179.558 1248.416 -4180.658 1248.626 -4181.748 1248.906 L -4181.748 1252.126 L -4169.968 1252.126 C -4169.698 1252.126 -4169.428 1252.016 -4169.238 1251.816 C -4169.038 1251.616 -4168.928 1251.346 -4168.928 1251.056 L -4168.928 1249.756 C -4168.928 1249.516 -4169.008 1249.276 -4169.158 1249.086 C -4169.308 1248.896 -4169.508 1248.766 -4169.738 1248.716 Z" fill="#3F3D56"/>
  <path d="M -4173.278 1238.906 L -4142.968 1236.486 L -4167.148 1240.746 L -4172.938 1239.706 L -4173.278 1238.906 Z" fill="#3F3D56"/>
  <path d="M -4206.808 1265.586 L -4211.508 1265.586 C -4211.678 1265.586 -4211.858 1265.626 -4212.018 1265.696 C -4212.178 1265.756 -4212.318 1265.866 -4212.448 1265.986 C -4212.568 1266.116 -4212.668 1266.266 -4212.738 1266.436 C -4212.798 1266.596 -4212.838 1266.776 -4212.838 1266.956 L -4212.838 1268.016 C -4212.838 1268.296 -4212.748 1268.566 -4212.598 1268.796 C -4212.448 1269.016 -4212.228 1269.196 -4211.978 1269.296 C -4212.168 1269.536 -4212.278 1269.836 -4212.278 1270.156 L -4212.278 1270.456 C -4212.278 1270.676 -4212.228 1270.886 -4212.128 1271.076 C -4212.028 1271.266 -4211.888 1271.436 -4211.718 1271.556 L -4211.718 1275.596 L -4206.598 1275.596 L -4206.598 1271.556 C -4206.418 1271.436 -4206.278 1271.266 -4206.188 1271.076 C -4206.088 1270.886 -4206.038 1270.676 -4206.038 1270.456 L -4206.038 1270.156 C -4206.038 1269.836 -4206.138 1269.536 -4206.338 1269.296 C -4206.088 1269.196 -4205.868 1269.016 -4205.718 1268.796 C -4205.558 1268.566 -4205.478 1268.296 -4205.478 1268.016 L -4205.478 1266.956 C -4205.478 1266.776 -4205.518 1266.596 -4205.578 1266.436 C -4205.648 1266.266 -4205.748 1266.116 -4205.868 1265.986 C -4205.988 1265.866 -4206.138 1265.756 -4206.298 1265.696 C -4206.458 1265.626 -4206.628 1265.586 -4206.808 1265.586 Z" fill="#3F3D56"/>
  <path d="M -4213.938 1275.026 C -4214.148 1275.026 -4214.348 1275.106 -4214.498 1275.266 C -4214.638 1275.416 -4214.728 1275.626 -4214.728 1275.836 L -4214.728 1282.366 C -4214.728 1282.586 -4214.638 1282.786 -4214.498 1282.946 C -4214.348 1283.096 -4214.148 1283.186 -4213.938 1283.186 L -4204.378 1283.186 C -4204.168 1283.186 -4203.968 1283.096 -4203.818 1282.946 C -4203.668 1282.786 -4203.588 1282.586 -4203.588 1282.366 L -4203.588 1275.836 C -4203.588 1275.626 -4203.668 1275.416 -4203.818 1275.266 C -4203.968 1275.106 -4204.168 1275.026 -4204.378 1275.026 L -4213.938 1275.026 Z" fill="#3B5BCD"/>
  <path d="M -4198.208 1262.946 L -4202.468 1266.626 L -4215.838 1266.626 L -4219.868 1262.946 L -4215.868 1262.946 L -4215.688 1262.046 C -4215.638 1261.776 -4215.498 1261.536 -4215.298 1261.366 C -4215.098 1261.196 -4214.838 1261.106 -4214.578 1261.106 L -4203.398 1261.106 C -4203.138 1261.106 -4202.888 1261.196 -4202.678 1261.366 C -4202.478 1261.536 -4202.338 1261.776 -4202.288 1262.046 L -4202.118 1262.946 L -4198.208 1262.946 Z" fill="#3B5BCD"/>
  <path d="M -4209.158 1282.326 C -4207.438 1282.326 -4206.038 1280.886 -4206.038 1279.106 C -4206.038 1277.326 -4207.438 1275.886 -4209.158 1275.886 C -4210.878 1275.886 -4212.278 1277.326 -4212.278 1279.106 C -4212.278 1280.886 -4210.878 1282.326 -4209.158 1282.326 Z" fill="#3F3D56"/>
  <path d="M -4209.158 1280.946 C -4208.168 1280.946 -4207.378 1280.116 -4207.378 1279.106 C -4207.378 1278.086 -4208.168 1277.266 -4209.158 1277.266 C -4210.138 1277.266 -4210.938 1278.086 -4210.938 1279.106 C -4210.938 1280.116 -4210.138 1280.946 -4209.158 1280.946 Z" fill="#E6E6E6"/>
  <path d="M -4208.078 1277.636 C -4207.818 1277.996 -4207.688 1278.436 -4207.718 1278.876 C -4207.748 1279.316 -4207.928 1279.736 -4208.238 1280.056 C -4208.538 1280.366 -4208.948 1280.556 -4209.378 1280.586 C -4209.808 1280.616 -4210.228 1280.486 -4210.578 1280.216 C -4210.418 1280.426 -4210.228 1280.596 -4209.998 1280.726 C -4209.778 1280.846 -4209.528 1280.916 -4209.278 1280.936 C -4209.028 1280.956 -4208.768 1280.916 -4208.528 1280.826 C -4208.288 1280.736 -4208.078 1280.586 -4207.898 1280.406 C -4207.718 1280.216 -4207.578 1279.996 -4207.488 1279.746 C -4207.398 1279.506 -4207.358 1279.236 -4207.378 1278.976 C -4207.398 1278.716 -4207.468 1278.466 -4207.588 1278.226 C -4207.708 1277.996 -4207.878 1277.796 -4208.078 1277.636 Z" fill="white"/>
  <path d="M -4168.878 1250.086 L -4248.878 1250.086 L -4248.878 1250.616 L -4168.878 1250.616 L -4168.878 1250.086 Z" fill="#E6E6E6"/>
  <path d="M -4166.928 1240.366 L -4172.718 1239.326 L -4172.778 1239.196 L -4173.058 1239.216 L -4172.718 1240.016 L -4166.928 1241.056 L -4142.748 1236.486 L -4149.908 1237.366 L -4166.928 1240.366 Z" fill="#3B5BCD"/>
  <path d="M -4241.918 1238.906 L -4211.608 1236.486 L -4235.788 1240.746 L -4241.588 1239.706 L -4241.918 1238.906 Z" fill="#3F3D56"/>
  <path d="M -4235.458 1240.366 L -4241.248 1239.326 L -4241.308 1239.196 L -4241.588 1239.216 L -4241.248 1240.016 L -4235.458 1241.056 L -4211.278 1236.486 L -4218.438 1237.366 L -4235.458 1240.366 Z" fill="#3B5BCD"/>
  <path d="M -4204.528 1262.076 L -4213.448 1262.076 L -4213.448 1263.916 L -4204.528 1263.916 L -4204.528 1262.076 Z" fill="#E6E6E6"/>
</svg>