<?xml version="1.0" encoding="utf-8"?>
<svg viewBox="-3503.938 999.386 56.002 95" xmlns="http://www.w3.org/2000/svg">
  <path d="M -3482.937 1018.046 C -3482.937 1017.336 -3483.217 1016.656 -3483.747 1016.136 L -3491.227 1008.936 C -3491.427 1008.196 -3491.797 1007.506 -3492.307 1006.946 C -3492.927 1006.236 -3493.687 1005.726 -3494.447 1005.506 C -3495.217 1005.276 -3495.897 1005.376 -3496.367 1005.776 C -3497.317 1006.596 -3497.047 1008.456 -3495.767 1009.916 C -3495.267 1010.496 -3494.637 1010.956 -3493.927 1011.246 L -3487.137 1018.176 L -3490.877 1023.776 C -3491.597 1024.616 -3491.757 1025.766 -3491.287 1026.786 C -3490.827 1027.766 -3489.877 1028.386 -3488.797 1028.386 C -3487.647 1028.386 -3486.627 1027.706 -3486.197 1026.646 L -3483.127 1019.026 C -3482.997 1018.706 -3482.937 1018.376 -3482.937 1018.046 Z" fill="#FFB6B6"/>
  <path d="M -3488.937 1011.386 C -3492.247 1011.386 -3494.937 1008.696 -3494.937 1005.386 C -3494.937 1002.076 -3492.247 999.386 -3488.937 999.386 C -3485.627 999.386 -3482.937 1002.076 -3482.937 1005.386 C -3482.937 1008.696 -3485.627 1011.386 -3488.937 1011.386 Z" fill="#3F3D56"/>
  <path d="M -3492.177 1021.266 L -3487.697 1024.656 L -3493.377 1028.526 L -3496.227 1022.466 L -3492.177 1021.266 Z" fill="#FFB6B6"/>
  <path d="M -3494.617 1024.176 C -3497.227 1024.176 -3499.347 1022.076 -3499.347 1019.476 C -3499.347 1016.876 -3497.227 1014.776 -3494.617 1014.776 C -3491.997 1014.776 -3489.877 1016.876 -3489.877 1019.476 C -3489.877 1022.076 -3491.997 1024.176 -3494.617 1024.176 Z" fill="#FFB6B6"/>
  <path d="M -3494.977 1024.746 C -3494.977 1024.746 -3496.047 1021.356 -3495.357 1020.716 C -3494.667 1020.076 -3494.687 1020.736 -3494.687 1020.736 L -3495.567 1017.466 C -3495.567 1017.466 -3495.147 1015.566 -3492.387 1015.306 C -3492.387 1015.306 -3493.367 1013.456 -3494.797 1013.766 C -3496.217 1014.066 -3496.307 1014.416 -3496.917 1014.296 C -3497.517 1014.176 -3498.777 1015.276 -3498.777 1015.276 C -3498.777 1015.276 -3499.417 1014.746 -3499.347 1015.396 C -3499.277 1016.036 -3499.957 1017.086 -3499.957 1017.086 C -3499.957 1017.086 -3500.347 1016.846 -3500.237 1017.516 C -3500.127 1018.196 -3500.637 1018.546 -3500.637 1018.546 C -3500.637 1018.546 -3499.967 1018.976 -3500.187 1019.316 C -3500.397 1019.646 -3501.247 1019.916 -3500.927 1020.256 C -3500.607 1020.596 -3500.847 1021.396 -3499.757 1022.226 C -3498.657 1023.066 -3494.977 1024.746 -3494.977 1024.746 Z" fill="#2F2E41"/>
  <path d="M -3497.627 1086.386 L -3497.587 1086.346 L -3486.407 1074.856 C -3485.327 1073.746 -3484.797 1072.226 -3484.967 1070.696 L -3485.547 1065.386 L -3491.217 1066.406 L -3491.427 1069.746 L -3500.937 1085.006 L -3497.627 1086.386 Z" fill="#FFB6B6"/>
  <path d="M -3499.447 1094.386 C -3499.277 1094.386 -3499.117 1094.336 -3498.957 1094.246 C -3498.587 1094.026 -3498.387 1093.576 -3498.457 1093.116 L -3498.817 1090.616 L -3496.937 1086.196 L -3497.437 1084.586 L -3500.267 1084.416 L -3501.217 1083.386 L -3502.277 1083.586 C -3502.907 1083.706 -3503.437 1084.136 -3503.727 1084.756 C -3504.017 1085.386 -3504.007 1086.096 -3503.707 1086.716 L -3500.347 1093.796 C -3500.217 1094.056 -3500.007 1094.256 -3499.737 1094.336 C -3499.647 1094.366 -3499.547 1094.386 -3499.447 1094.386 Z" fill="#2F2E41"/>
  <path d="M -3493.937 1053.386 L -3491.667 1067.296 L -3480.677 1072.386 L -3478.937 1058.816 L -3493.937 1053.386 Z" fill="#2F2E41"/>
  <path d="M -3487.627 1082.386 L -3487.587 1082.346 L -3476.407 1070.856 C -3475.327 1069.746 -3474.797 1068.226 -3474.967 1066.696 L -3475.547 1061.386 L -3481.217 1062.406 L -3481.427 1065.746 L -3490.937 1081.006 L -3487.627 1082.386 Z" fill="#FFB6B6"/>
  <path d="M -3488.807 1090.386 C -3488.617 1090.386 -3488.427 1090.336 -3488.247 1090.246 C -3487.827 1090.026 -3487.597 1089.576 -3487.667 1089.116 L -3488.087 1086.616 L -3485.937 1082.196 L -3486.507 1080.586 L -3489.747 1080.416 L -3490.827 1079.386 L -3492.037 1079.586 C -3492.767 1079.706 -3493.367 1080.136 -3493.697 1080.756 C -3494.027 1081.386 -3494.017 1082.096 -3493.677 1082.716 L -3489.837 1089.796 C -3489.687 1090.056 -3489.447 1090.256 -3489.147 1090.336 C -3489.027 1090.366 -3488.917 1090.386 -3488.807 1090.386 Z" fill="#2F2E41"/>
  <path d="M -3481.527 1049.386 L -3480.357 1052.546 L -3475.077 1061.066 C -3474.917 1061.316 -3474.897 1061.616 -3475.007 1061.886 C -3475.117 1062.166 -3475.347 1062.356 -3475.637 1062.436 L -3487.287 1065.386 L -3492.687 1057.896 C -3494.227 1055.766 -3495.017 1053.146 -3494.927 1050.526 L -3481.527 1049.386 Z" fill="#2F2E41"/>
  <path d="M -3493.697 1052.386 L -3479.937 1052.386 L -3479.947 1052.296 L -3481.687 1032.006 C -3481.907 1029.356 -3483.337 1026.946 -3485.597 1025.406 L -3485.617 1025.386 L -3495.027 1025.726 L -3492.987 1044.006 L -3495.697 1049.276 C -3496.047 1049.946 -3496.007 1050.726 -3495.597 1051.366 C -3495.187 1052.006 -3494.477 1052.386 -3493.697 1052.386 Z" fill="#3B5BCD"/>
  <path d="M -3489.987 1029.386 C -3489.177 1029.386 -3488.397 1029.086 -3487.817 1028.526 L -3481.727 1022.586 C -3480.927 1021.796 -3480.717 1020.656 -3481.187 1019.676 L -3485.747 1010.266 C -3485.647 1009.516 -3485.737 1008.746 -3486.017 1008.026 C -3486.357 1007.156 -3486.907 1006.406 -3487.567 1005.926 C -3488.247 1005.426 -3488.967 1005.266 -3489.587 1005.476 C -3490.857 1005.886 -3491.337 1007.706 -3490.637 1009.526 C -3490.377 1010.246 -3489.937 1010.906 -3489.347 1011.436 L -3485.367 1020.326 L -3491.317 1024.156 C -3492.377 1024.666 -3492.997 1025.686 -3492.937 1026.796 C -3492.877 1027.876 -3492.167 1028.786 -3491.097 1029.186 C -3490.737 1029.316 -3490.357 1029.386 -3489.987 1029.386 Z" fill="#FFB6B6"/>
  <path d="M -3454.937 1011.386 C -3456.367 1013.136 -3456.917 1015.456 -3457.307 1017.706 C -3457.437 1018.536 -3457.567 1019.356 -3457.667 1020.186 C -3458.057 1023.276 -3458.187 1026.506 -3457.137 1029.426 C -3456.867 1030.166 -3456.597 1031.166 -3457.237 1031.606 C -3457.737 1031.966 -3458.477 1031.596 -3458.757 1031.036 C -3459.027 1030.476 -3458.977 1029.816 -3458.917 1029.186 C -3458.247 1029.926 -3458.457 1031.296 -3459.317 1031.786 C -3460.167 1032.276 -3461.417 1031.746 -3461.677 1030.776 C -3461.817 1031.806 -3462.807 1032.646 -3463.827 1032.586 C -3464.847 1032.526 -3465.737 1031.576 -3465.767 1030.536 C -3465.237 1031.106 -3465.497 1032.156 -3466.157 1032.566 C -3466.807 1032.986 -3467.687 1032.866 -3468.357 1032.476 C -3469.027 1032.096 -3469.547 1031.476 -3470.047 1030.876 C -3469.387 1031.296 -3469.227 1032.356 -3469.737 1032.946 C -3470.257 1033.546 -3471.297 1033.526 -3471.787 1032.916 C -3472.187 1032.406 -3472.187 1031.666 -3471.987 1031.046 C -3471.797 1030.416 -3471.427 1029.866 -3471.157 1029.276 C -3469.907 1026.566 -3470.647 1023.356 -3471.677 1020.546 C -3472.707 1017.746 -3474.047 1014.926 -3473.927 1011.926" fill="white"/>
  <path d="M -3454.967 1011.606 C -3455.997 1012.886 -3456.567 1014.476 -3456.937 1016.076 C -3457.337 1017.816 -3457.587 1019.596 -3457.757 1021.376 C -3457.937 1023.166 -3457.997 1024.996 -3457.727 1026.786 C -3457.607 1027.646 -3457.397 1028.496 -3457.107 1029.316 C -3456.907 1029.876 -3456.667 1030.596 -3456.917 1031.186 C -3457.207 1031.876 -3458.017 1031.886 -3458.547 1031.466 C -3459.237 1030.916 -3459.177 1029.916 -3459.107 1029.116 C -3459.097 1029.016 -3458.977 1028.936 -3458.897 1029.026 C -3458.347 1029.646 -3458.337 1030.636 -3458.807 1031.306 C -3459.297 1032.026 -3460.227 1032.156 -3460.957 1031.766 C -3461.377 1031.546 -3461.697 1031.166 -3461.827 1030.706 L -3461.597 1030.706 C -3461.757 1031.806 -3462.807 1032.696 -3463.887 1032.596 C -3464.957 1032.496 -3465.827 1031.536 -3465.867 1030.446 C -3465.867 1030.336 -3465.727 1030.276 -3465.657 1030.356 C -3465.307 1030.756 -3465.267 1031.326 -3465.467 1031.816 C -3465.687 1032.356 -3466.147 1032.706 -3466.707 1032.806 C -3468.147 1033.056 -3469.217 1031.886 -3470.057 1030.876 C -3470.137 1030.766 -3470.037 1030.596 -3469.907 1030.676 C -3469.377 1031.036 -3469.137 1031.746 -3469.307 1032.376 C -3469.487 1033.036 -3470.117 1033.426 -3470.767 1033.386 C -3471.497 1033.326 -3472.027 1032.776 -3472.127 1032.036 C -3472.247 1031.146 -3471.797 1030.346 -3471.397 1029.586 C -3469.517 1025.976 -3471.177 1021.986 -3472.497 1018.506 C -3473.287 1016.436 -3474.007 1014.296 -3473.927 1012.046 C -3473.927 1011.886 -3473.687 1011.886 -3473.687 1012.046 C -3473.817 1015.776 -3471.777 1019.036 -3470.827 1022.526 C -3470.377 1024.176 -3470.127 1025.936 -3470.447 1027.636 C -3470.607 1028.486 -3470.637 1029.376 -3471.037 1030.136 C -3471.407 1030.846 -3472.107 1031.576 -3471.787 1032.386 C -3471.487 1033.146 -3470.477 1033.386 -3469.867 1032.856 C -3469.287 1032.346 -3469.407 1031.306 -3470.037 1030.886 L -3469.887 1030.696 C -3469.157 1031.576 -3468.567 1031.466 -3467.327 1031.456 C -3466.797 1031.446 -3466.017 1032.346 -3465.757 1031.856 C -3465.537 1031.446 -3465.507 1030.896 -3465.827 1030.536 L -3465.627 1030.446 C -3465.587 1031.406 -3464.787 1032.296 -3463.837 1032.346 C -3462.867 1032.406 -3461.967 1031.616 -3461.827 1030.646 C -3461.807 1030.516 -3461.627 1030.536 -3461.597 1030.646 C -3461.337 1031.526 -3460.207 1032.036 -3459.417 1031.556 C -3458.637 1031.096 -3458.477 1029.876 -3459.067 1029.196 L -3458.857 1029.116 C -3458.937 1029.856 -3459.027 1030.836 -3458.337 1031.326 C -3458.067 1031.506 -3457.717 1031.596 -3457.427 1031.426 C -3457.147 1031.256 -3457.497 1030.776 -3457.507 1030.466 C -3457.517 1029.756 -3457.417 1029.236 -3457.597 1028.566 C -3457.827 1027.766 -3457.977 1026.946 -3458.057 1026.116 C -3458.227 1024.426 -3458.147 1022.716 -3457.967 1021.036 C -3457.787 1019.366 -3457.547 1017.686 -3457.177 1016.046 C -3456.797 1014.386 -3456.207 1012.756 -3455.137 1011.426 C -3455.037 1011.306 -3454.867 1011.476 -3454.967 1011.606 Z" fill="#3F3D56"/>
  <path d="M -3464.437 1013.386 C -3459.347 1013.386 -3453.937 1012.506 -3453.937 1010.886 C -3453.937 1009.266 -3459.347 1008.386 -3464.437 1008.386 C -3469.527 1008.386 -3474.937 1009.266 -3474.937 1010.886 C -3474.937 1012.506 -3469.527 1013.386 -3464.437 1013.386 Z M -3464.437 1008.726 C -3458.447 1008.726 -3454.267 1009.866 -3454.267 1010.886 C -3454.267 1011.906 -3458.447 1013.046 -3464.437 1013.046 C -3470.427 1013.046 -3474.607 1011.906 -3474.607 1010.886 C -3474.607 1009.866 -3470.427 1008.726 -3464.437 1008.726 Z" fill="#3F3D56"/>
  <path d="M -3452.437 1016.386 C -3452.387 1016.386 -3452.337 1016.386 -3452.287 1016.376 L -3449.207 1015.976 C -3448.557 1015.896 -3448.057 1015.266 -3448.037 1014.536 L -3447.937 1009.906 C -3447.927 1009.486 -3448.077 1009.076 -3448.357 1008.786 C -3448.627 1008.496 -3449.007 1008.356 -3449.377 1008.396 L -3453.997 1008.876 C -3454.517 1008.936 -3454.967 1009.326 -3455.127 1009.886 L -3455.867 1012.396 C -3456.037 1012.976 -3455.877 1013.626 -3455.457 1014.016 L -3453.277 1016.046 C -3453.037 1016.266 -3452.737 1016.386 -3452.437 1016.386 Z" fill="#3F3D56"/>
</svg>