<?xml version="1.0" encoding="utf-8"?>
<svg viewBox="-3807.438 1000.386 56.211 90" xmlns="http://www.w3.org/2000/svg">
  <defs>
    <clipPath id="clip25_0_1">
      <rect width="103" height="90" fill="white" transform="matrix(-1 0 0 1 2178 3612)"/>
    </clipPath>
  </defs>
  <g clip-path="url(#clip25_0_1)" transform="matrix(1, 0, 0, 1, -5903.937012, -2611.614258)">
    <path d="M2115.56 3631.99L2115 3635.26L2121.05 3636.25L2119.65 3631.7L2115.56 3631.99Z" fill="#A0616A"/>
    <path d="M2100.12 3634.15C2098.9 3634.7 2098.61 3636.72 2099.47 3638.65C2099.8 3639.43 2100.32 3640.11 2100.97 3640.65L2102.2 3643.96C2103 3647.91 2104.84 3652.07 2107.36 3651.74C2110.94 3651.29 2112.07 3646.9 2112.07 3646.9L2107.25 3645L2105.11 3640.82L2104.37 3639.11C2104.41 3638.26 2104.24 3637.42 2103.89 3636.65C2103.03 3634.72 2101.34 3633.6 2100.12 3634.15Z" fill="#A0616A"/>
    <path d="M2141.1 3697.67L2144.44 3695.18L2144.41 3695.12L2125.82 3657.72L2125.78 3657.71L2110.81 3655.14L2107.69 3662.16L2099.53 3673.73C2098.97 3674.53 2098.67 3675.47 2098.68 3676.45L2098.81 3697.07L2103.87 3697.22L2103.88 3697.15L2105.64 3680.48C2105.77 3679.26 2106.4 3678.14 2107.36 3677.39L2117.31 3669.67L2141.1 3697.67Z" fill="#2F2E41"/>
    <path d="M2143.93 3695.44C2143.93 3695.44 2145.62 3695.72 2146.18 3696.72C2146.74 3697.71 2148.43 3699.85 2148.43 3699.85C2148.43 3699.85 2149.7 3702.26 2146.74 3701.98C2143.79 3701.69 2142.66 3700.41 2142.66 3700.41L2141.39 3696.86L2143.93 3695.44Z" fill="#2F2E41"/>
    <path d="M2101.27 3695.44C2101.27 3695.44 2099.59 3695.72 2099.02 3696.72C2098.46 3697.71 2096.77 3699.85 2096.77 3699.85C2096.77 3699.85 2095.5 3702.26 2098.46 3701.98C2101.42 3701.69 2102.54 3700.41 2102.54 3700.41L2103.81 3696.86L2101.27 3695.44Z" fill="#2F2E41"/>
    <path d="M2123.87 3636.11L2113.87 3634.12L2108.24 3635.97L2109.79 3657.14L2125.77 3657.78L2123.87 3636.11Z" fill="#3B5BCD"/>
    <path d="M2109.25 3635.49L2107.07 3638.81L2106.56 3647L2113.03 3647.49L2112.85 3636.89L2109.25 3635.49Z" fill="#3B5BCD"/>
    <path d="M2103.26 3643.46L2105.88 3642.41L2109.2 3648.63L2106.17 3650.16L2103.26 3643.46Z" fill="#A0616A"/>
    <path d="M2101.44 3638.17C2101.62 3638.17 2101.8 3638.13 2101.98 3638.07C2102.39 3637.92 2102.73 3637.6 2102.91 3637.18L2104.89 3632.48C2105.64 3630.7 2106.5 3628.96 2107.45 3627.28L2107.86 3626.55C2108.15 3626.11 2114.9 3615.62 2115.22 3614.8C2115.46 3614.18 2114.74 3612.91 2114.71 3612.86L2114.7 3612.85C2114.68 3612.83 2113.06 3611.05 2111.11 3612.7C2109.2 3614.33 2105.98 3625.09 2105.84 3625.55L2105.75 3625.77C2104.96 3627.8 2103.96 3629.75 2102.77 3631.57L2100.1 3635.66C2099.85 3636.04 2099.78 3636.52 2099.89 3636.96C2100 3637.4 2100.3 3637.77 2100.7 3637.98C2100.93 3638.1 2101.18 3638.17 2101.44 3638.17Z" fill="#3F3D56"/>
    <path d="M2119.24 3639.66L2116.09 3639.84L2110.06 3633.41L2107.7 3630.58C2107.49 3629.76 2107.09 3629 2106.53 3628.36C2105.16 3626.76 2103.23 3626.17 2102.22 3627.05C2101.21 3627.93 2101.5 3629.95 2102.87 3631.55C2103.41 3632.2 2104.1 3632.71 2104.87 3633.04L2105.45 3633.81L2112.12 3643.27C2113.32 3644.98 2115.44 3645.75 2117.45 3645.21L2121.53 3644.1L2119.24 3639.66Z" fill="#A0616A"/>
    <path d="M2121 3646L2125.85 3642.85C2127.39 3641.85 2127.98 3639.9 2127.26 3638.2C2126.82 3637.17 2125.95 3636.39 2124.89 3636.08C2123.82 3635.76 2122.68 3635.94 2121.75 3636.57L2116.99 3639.8L2121 3646Z" fill="#3B5BCD"/>
    <path d="M2118.66 3633.19C2115.91 3633.19 2113.69 3630.94 2113.69 3628.17C2113.69 3625.4 2115.91 3623.16 2118.66 3623.16C2121.4 3623.16 2123.63 3625.4 2123.63 3628.17C2123.63 3630.94 2121.4 3633.19 2118.66 3633.19Z" fill="#A0616A"/>
    <path d="M2115.39 3632.5L2115.82 3631.78C2115.82 3631.78 2113.94 3630.5 2115.49 3629.76C2117.04 3629.02 2117.29 3627.2 2117.29 3627.2C2117.29 3627.2 2121.82 3625.88 2121.58 3624.89C2121.33 3623.9 2122.03 3623.2 2120.88 3622.79C2119.74 3622.38 2114.63 3622.79 2114.06 3623.99C2113.49 3625.18 2112.92 3628.48 2113.2 3628.94C2113.49 3629.39 2115.39 3632.5 2115.39 3632.5Z" fill="#2F2E41"/>
    <path d="M2116.68 3626.83L2121.29 3623.74C2121.29 3623.74 2127.26 3621.88 2125.01 3625.43L2123.11 3625.82C2123.11 3625.82 2117.94 3627.04 2116.68 3626.83Z" fill="#3B5BCD"/>
    <path d="M2118.06 3626.13L2113.24 3629.8C2113.24 3629.8 2110.43 3624.73 2114.84 3622.21C2119.25 3619.7 2122.05 3623.64 2122.05 3623.64L2120.88 3624.89L2118.06 3626.13Z" fill="#3B5BCD"/>
    <path d="M2152.71 3617.85C2152.71 3619.38 2151.48 3620.62 2149.96 3620.62C2149.22 3620.62 2148.54 3620.33 2148.05 3619.84C2147.53 3619.34 2147.21 3618.63 2147.21 3617.85C2147.21 3616.32 2148.44 3615.07 2149.96 3615.07C2150.44 3615.07 2150.88 3615.2 2151.27 3615.41C2151.34 3615.45 2151.4 3615.49 2151.47 3615.53C2152.06 3615.92 2152.49 3616.54 2152.65 3617.26C2152.67 3617.34 2152.68 3617.43 2152.69 3617.51C2152.7 3617.62 2152.71 3617.73 2152.71 3617.85Z" fill="#6C63FF"/>
    <path d="M2152.69 3617.51C2152.64 3617.56 2152.6 3617.61 2152.55 3617.67C2152.38 3617.88 2152.32 3617.98 2152.22 3618.14C2152.14 3618.27 2152.04 3618.43 2151.84 3618.71C2151.43 3619.29 2151.23 3619.58 2150.91 3619.84C2150.59 3620.09 2150.2 3620.41 2149.61 3620.46C2149.57 3620.46 2149.53 3620.46 2149.49 3620.46C2148.78 3620.46 2148.26 3620.03 2148.06 3619.83C2147.54 3619.32 2147.43 3618.7 2147.41 3618.46C2147.39 3618.26 2147.36 3617.57 2147.81 3616.95C2148.2 3616.41 2148.75 3616.21 2149.28 3616.02C2149.62 3615.9 2149.88 3615.85 2150.12 3615.81C2150.43 3615.76 2150.71 3615.71 2151.13 3615.49C2151.18 3615.46 2151.23 3615.43 2151.27 3615.41C2151.34 3615.45 2151.4 3615.49 2151.47 3615.53C2151.46 3615.53 2151.44 3615.54 2151.43 3615.55C2151.38 3615.58 2151.31 3615.62 2151.22 3615.67C2150.77 3615.91 2150.47 3615.96 2150.15 3616.01C2149.91 3616.05 2149.67 3616.09 2149.34 3616.21C2148.82 3616.4 2148.33 3616.58 2147.97 3617.07C2147.57 3617.63 2147.59 3618.26 2147.61 3618.44C2147.63 3618.66 2147.73 3619.22 2148.2 3619.69C2148.39 3619.87 2148.9 3620.3 2149.6 3620.25C2150.13 3620.22 2150.49 3619.92 2150.78 3619.68C2151.08 3619.44 2151.28 3619.15 2151.68 3618.6C2151.88 3618.32 2151.98 3618.16 2152.05 3618.03C2152.15 3617.88 2152.22 3617.76 2152.39 3617.55C2152.49 3617.43 2152.57 3617.34 2152.65 3617.26C2152.67 3617.34 2152.68 3617.43 2152.69 3617.51Z" fill="#2844A8"/>
  </g>
</svg>