<?xml version="1.0" encoding="utf-8"?>
<svg viewBox="-3770.937 1215.388 52 77.998" xmlns="http://www.w3.org/2000/svg">
  <defs>
    <clipPath id="clip27_0_1">
      <rect width="52" height="78" fill="white" transform="translate(2133 3827)"/>
    </clipPath>
  </defs>
  <g clip-path="url(#clip27_0_1)" transform="matrix(1, 0, 0, 1, -5903.937012, -2611.614258)">
    <path d="M2133.08 3885.75L2133 3885.97L2178.42 3903.75L2178.5 3903.54L2133.08 3885.75Z" fill="#CACACA"/>
    <path d="M2165.54 3827.03L2140.29 3833.72C2140.19 3833.75 2140.1 3833.8 2140.02 3833.87C2139.93 3833.95 2139.85 3834.04 2139.8 3834.14C2139.73 3834.25 2139.68 3834.37 2139.65 3834.49C2139.61 3834.62 2139.59 3834.75 2139.59 3834.89V3872.52C2139.59 3872.65 2139.61 3872.78 2139.65 3872.91C2139.68 3873.03 2139.73 3873.14 2139.8 3873.24C2139.85 3873.33 2139.93 3873.42 2140.02 3873.48C2140.1 3873.54 2140.19 3873.59 2140.29 3873.6L2165.54 3877.34C2165.68 3877.36 2165.83 3877.35 2165.97 3877.3C2166.11 3877.26 2166.23 3877.19 2166.33 3877.09C2166.44 3876.99 2166.52 3876.86 2166.58 3876.72C2166.64 3876.57 2166.67 3876.41 2166.67 3876.25V3827.99C2166.67 3827.83 2166.64 3827.67 2166.58 3827.53C2166.52 3827.4 2166.44 3827.28 2166.33 3827.19C2166.23 3827.1 2166.11 3827.04 2165.97 3827.02C2165.83 3826.99 2165.68 3827 2165.54 3827.03Z" fill="#F2F2F2"/>
    <path d="M2140.91 3834.78C2140.84 3834.8 2140.78 3834.84 2140.72 3834.89C2140.66 3834.94 2140.61 3835 2140.56 3835.08C2140.52 3835.15 2140.48 3835.24 2140.46 3835.32C2140.44 3835.41 2140.42 3835.51 2140.43 3835.6V3871.71C2140.42 3871.8 2140.44 3871.89 2140.46 3871.98C2140.48 3872.06 2140.52 3872.14 2140.56 3872.22C2140.61 3872.28 2140.66 3872.34 2140.72 3872.39C2140.78 3872.43 2140.84 3872.46 2140.91 3872.47L2164.56 3875.67C2164.66 3875.69 2164.76 3875.67 2164.86 3875.64C2164.95 3875.61 2165.03 3875.55 2165.1 3875.48C2165.17 3875.41 2165.23 3875.32 2165.26 3875.23C2165.3 3875.12 2165.32 3875.01 2165.32 3874.9V3829.5C2165.32 3829.39 2165.3 3829.28 2165.26 3829.17C2165.23 3829.08 2165.17 3829 2165.1 3828.94C2165.03 3828.87 2164.95 3828.83 2164.86 3828.81C2164.76 3828.79 2164.66 3828.79 2164.56 3828.81L2140.91 3834.78Z" fill="white"/>
    <path d="M2141.91 3836.22C2141.86 3836.23 2141.82 3836.26 2141.78 3836.29C2141.74 3836.33 2141.7 3836.38 2141.68 3836.43C2141.64 3836.49 2141.62 3836.55 2141.61 3836.61C2141.59 3836.68 2141.58 3836.75 2141.58 3836.82V3841.85C2141.58 3841.92 2141.59 3841.98 2141.6 3842.05C2141.62 3842.1 2141.64 3842.15 2141.68 3842.2C2141.7 3842.24 2141.74 3842.27 2141.78 3842.29C2141.82 3842.31 2141.87 3842.32 2141.91 3842.31L2163.05 3838.65C2163.12 3838.64 2163.18 3838.61 2163.24 3838.57C2163.3 3838.53 2163.36 3838.47 2163.4 3838.41C2163.45 3838.34 2163.48 3838.26 2163.51 3838.19C2163.53 3838.1 2163.55 3838.02 2163.55 3837.93V3831.77C2163.55 3831.69 2163.53 3831.61 2163.51 3831.53C2163.48 3831.47 2163.45 3831.41 2163.4 3831.36C2163.36 3831.31 2163.3 3831.27 2163.24 3831.26C2163.18 3831.24 2163.11 3831.24 2163.05 3831.25L2141.91 3836.22Z" fill="#F2F2F2"/>
    <path d="M2141.91 3844.76C2141.86 3844.77 2141.82 3844.79 2141.78 3844.82C2141.74 3844.85 2141.7 3844.89 2141.67 3844.94C2141.64 3844.99 2141.62 3845.04 2141.6 3845.1C2141.59 3845.16 2141.58 3845.22 2141.58 3845.28V3856.03C2141.58 3856.09 2141.59 3856.15 2141.6 3856.21C2141.62 3856.27 2141.64 3856.32 2141.67 3856.36C2141.7 3856.4 2141.74 3856.44 2141.78 3856.46C2141.82 3856.48 2141.87 3856.5 2141.91 3856.5L2163.05 3855.89C2163.12 3855.89 2163.18 3855.87 2163.24 3855.84C2163.31 3855.8 2163.36 3855.76 2163.4 3855.71C2163.45 3855.65 2163.49 3855.59 2163.51 3855.52C2163.54 3855.45 2163.55 3855.37 2163.55 3855.3V3842.13C2163.55 3842.06 2163.54 3841.99 2163.51 3841.92C2163.49 3841.85 2163.45 3841.8 2163.4 3841.75C2163.36 3841.7 2163.3 3841.67 2163.24 3841.65C2163.18 3841.63 2163.11 3841.62 2163.05 3841.63L2141.91 3844.76Z" fill="#F2F2F2"/>
    <path d="M2143.76 3836.51L2160.42 3832.72V3834L2143.76 3837.61V3836.51Z" fill="white"/>
    <path d="M2143.79 3838.82L2160.46 3835.41V3836.01L2143.79 3839.33V3838.82Z" fill="white"/>
    <path d="M2143.79 3839.73L2160.46 3836.47V3837.06L2143.79 3840.24V3839.73Z" fill="white"/>
    <path d="M2143.79 3840.63L2160.46 3837.52V3838.12L2143.79 3841.14V3840.63Z" fill="white"/>
    <path d="M2153.04 3856.2L2161.49 3855.96C2161.52 3855.96 2161.55 3855.95 2161.58 3855.94C2161.6 3855.93 2161.63 3855.92 2161.65 3855.9C2161.68 3855.88 2161.7 3855.85 2161.72 3855.83C2161.74 3855.8 2161.75 3855.77 2161.76 3855.74C2161.78 3855.68 2161.79 3855.61 2161.78 3855.55C2161.77 3855.51 2161.76 3855.48 2161.75 3855.45C2161.74 3855.43 2161.72 3855.4 2161.7 3855.38L2156.12 3849.17C2156.1 3849.14 2156.07 3849.12 2156.04 3849.11C2156 3849.09 2155.97 3849.09 2155.94 3849.09C2155.9 3849.09 2155.87 3849.11 2155.84 3849.12C2155.8 3849.14 2155.77 3849.17 2155.75 3849.2L2154.45 3850.89C2154.4 3850.95 2154.34 3851 2154.27 3851.04C2154.21 3851.08 2154.14 3851.1 2154.07 3851.11C2154 3851.11 2153.93 3851.1 2153.87 3851.08C2153.8 3851.05 2153.74 3851 2153.69 3850.94L2149.87 3846.53C2149.85 3846.51 2149.82 3846.49 2149.79 3846.47C2149.76 3846.46 2149.73 3846.46 2149.7 3846.46C2149.67 3846.47 2149.64 3846.48 2149.61 3846.5C2149.58 3846.52 2149.55 3846.54 2149.53 3846.57L2142.82 3855.97C2142.8 3855.99 2142.79 3856.01 2142.78 3856.04C2142.77 3856.06 2142.77 3856.09 2142.76 3856.11C2142.76 3856.14 2142.76 3856.17 2142.76 3856.2C2142.76 3856.22 2142.77 3856.25 2142.77 3856.28C2142.78 3856.3 2142.79 3856.33 2142.81 3856.35C2142.82 3856.37 2142.83 3856.39 2142.85 3856.4C2142.87 3856.42 2142.88 3856.43 2142.9 3856.44C2142.92 3856.44 2142.94 3856.45 2142.97 3856.45L2153.05 3856.16L2153.04 3856.2Z" fill="white"/>
    <path d="M2144.44 3845.89C2144.55 3845.87 2144.66 3845.89 2144.76 3845.93C2144.86 3845.98 2144.95 3846.05 2145.02 3846.14C2145.1 3846.23 2145.16 3846.35 2145.2 3846.47C2145.25 3846.6 2145.27 3846.75 2145.27 3846.89C2145.27 3847.04 2145.24 3847.19 2145.2 3847.34C2145.16 3847.47 2145.1 3847.6 2145.02 3847.71C2144.95 3847.82 2144.86 3847.91 2144.76 3847.98C2144.66 3848.05 2144.55 3848.09 2144.44 3848.1C2144.33 3848.11 2144.22 3848.1 2144.12 3848.05C2144.02 3848 2143.93 3847.93 2143.86 3847.84C2143.78 3847.75 2143.72 3847.63 2143.68 3847.51C2143.64 3847.38 2143.62 3847.24 2143.62 3847.09C2143.62 3846.95 2143.64 3846.8 2143.68 3846.66C2143.72 3846.53 2143.78 3846.4 2143.86 3846.29C2143.93 3846.18 2144.01 3846.09 2144.12 3846.02C2144.21 3845.95 2144.32 3845.9 2144.44 3845.89Z" fill="white"/>
    <path d="M2141.91 3859.02C2141.87 3859.02 2141.82 3859.04 2141.78 3859.06C2141.74 3859.09 2141.7 3859.12 2141.67 3859.16C2141.64 3859.21 2141.62 3859.26 2141.6 3859.31C2141.59 3859.37 2141.58 3859.43 2141.58 3859.5V3870.24C2141.58 3870.31 2141.59 3870.37 2141.6 3870.43C2141.62 3870.49 2141.64 3870.54 2141.67 3870.59C2141.7 3870.63 2141.74 3870.67 2141.78 3870.7C2141.82 3870.73 2141.87 3870.75 2141.91 3870.76L2163.05 3873.22C2163.11 3873.23 2163.18 3873.22 2163.24 3873.2C2163.3 3873.17 2163.36 3873.14 2163.4 3873.09C2163.45 3873.04 2163.49 3872.98 2163.51 3872.92C2163.54 3872.85 2163.55 3872.77 2163.55 3872.7V3859.54C2163.55 3859.46 2163.53 3859.39 2163.51 3859.31C2163.49 3859.25 2163.45 3859.19 2163.4 3859.13C2163.36 3859.08 2163.3 3859.04 2163.24 3859.01C2163.18 3858.98 2163.12 3858.96 2163.05 3858.96L2141.91 3859.02Z" fill="#F2F2F2"/>
    <path d="M2153.04 3872.08L2161.49 3873.06C2161.52 3873.07 2161.55 3873.06 2161.58 3873.06C2161.6 3873.05 2161.63 3873.04 2161.65 3873.02C2161.68 3873.01 2161.7 3872.99 2161.72 3872.97C2161.73 3872.94 2161.75 3872.91 2161.76 3872.89C2161.77 3872.86 2161.78 3872.82 2161.78 3872.79C2161.78 3872.76 2161.78 3872.72 2161.78 3872.69C2161.77 3872.66 2161.76 3872.63 2161.75 3872.6C2161.74 3872.57 2161.72 3872.54 2161.7 3872.51L2156.12 3865.49C2156.1 3865.46 2156.07 3865.44 2156.04 3865.42C2156.01 3865.4 2155.97 3865.39 2155.94 3865.39C2155.9 3865.39 2155.87 3865.39 2155.84 3865.41C2155.8 3865.42 2155.77 3865.44 2155.75 3865.47L2154.45 3866.97C2154.4 3867.03 2154.34 3867.07 2154.27 3867.1C2154.21 3867.13 2154.14 3867.14 2154.07 3867.14C2154 3867.13 2153.93 3867.11 2153.87 3867.07C2153.8 3867.03 2153.74 3866.98 2153.69 3866.91L2149.87 3861.95C2149.85 3861.92 2149.82 3861.9 2149.79 3861.88C2149.76 3861.86 2149.73 3861.86 2149.7 3861.86C2149.67 3861.85 2149.64 3861.86 2149.61 3861.88C2149.58 3861.89 2149.55 3861.91 2149.53 3861.94L2142.82 3870.36C2142.8 3870.38 2142.79 3870.4 2142.78 3870.42C2142.77 3870.45 2142.77 3870.47 2142.76 3870.5C2142.76 3870.53 2142.76 3870.55 2142.76 3870.58C2142.76 3870.61 2142.77 3870.64 2142.77 3870.66C2142.78 3870.69 2142.79 3870.72 2142.81 3870.74C2142.82 3870.76 2142.83 3870.78 2142.85 3870.8C2142.87 3870.82 2142.88 3870.83 2142.9 3870.84C2142.92 3870.85 2142.94 3870.86 2142.97 3870.86L2153.05 3872.03L2153.04 3872.08Z" fill="white"/>
    <path d="M2144.44 3860.52C2144.55 3860.52 2144.66 3860.55 2144.76 3860.61C2144.86 3860.67 2144.95 3860.75 2145.02 3860.85C2145.1 3860.96 2145.16 3861.08 2145.2 3861.21C2145.24 3861.35 2145.27 3861.49 2145.27 3861.64C2145.27 3861.79 2145.24 3861.93 2145.2 3862.07C2145.16 3862.2 2145.1 3862.32 2145.02 3862.42C2144.95 3862.52 2144.86 3862.6 2144.76 3862.65C2144.66 3862.71 2144.55 3862.73 2144.44 3862.73C2144.32 3862.73 2144.21 3862.69 2144.12 3862.63C2144.02 3862.57 2143.93 3862.49 2143.86 3862.39C2143.78 3862.28 2143.72 3862.16 2143.68 3862.03C2143.64 3861.89 2143.62 3861.75 2143.62 3861.6C2143.62 3861.46 2143.64 3861.32 2143.68 3861.18C2143.72 3861.05 2143.78 3860.94 2143.86 3860.83C2143.93 3860.74 2144.02 3860.66 2144.12 3860.6C2144.21 3860.54 2144.32 3860.51 2144.44 3860.52Z" fill="white"/>
    <path d="M2147.87 3841.12C2147.79 3841.13 2147.72 3841.16 2147.65 3841.21C2147.58 3841.26 2147.52 3841.33 2147.48 3841.4C2147.42 3841.48 2147.38 3841.56 2147.36 3841.65C2147.33 3841.75 2147.31 3841.85 2147.31 3841.95V3882.61C2147.31 3882.81 2147.37 3883 2147.48 3883.16C2147.52 3883.24 2147.58 3883.31 2147.65 3883.36C2147.72 3883.42 2147.79 3883.45 2147.87 3883.47L2177.86 3890.43C2177.98 3890.45 2178.1 3890.46 2178.22 3890.44C2178.33 3890.42 2178.43 3890.37 2178.52 3890.3C2178.61 3890.23 2178.68 3890.15 2178.73 3890.05C2178.78 3889.93 2178.8 3889.81 2178.8 3889.69V3836.67C2178.8 3836.55 2178.78 3836.42 2178.73 3836.31C2178.68 3836.21 2178.61 3836.12 2178.52 3836.04C2178.43 3835.97 2178.33 3835.92 2178.22 3835.89C2178.1 3835.86 2177.98 3835.86 2177.86 3835.88L2147.87 3841.12Z" fill="#E6E6E6"/>
    <path d="M2148.57 3842.15C2148.49 3842.16 2148.41 3842.2 2148.34 3842.25C2148.27 3842.3 2148.21 3842.37 2148.16 3842.44C2148.11 3842.52 2148.07 3842.61 2148.04 3842.7C2148.01 3842.79 2148 3842.89 2148 3842.99V3881.93C2148 3882.13 2148.06 3882.32 2148.16 3882.49C2148.21 3882.57 2148.27 3882.64 2148.34 3882.7C2148.41 3882.75 2148.48 3882.79 2148.57 3882.81L2176.62 3889.1C2176.74 3889.12 2176.86 3889.12 2176.98 3889.1C2177.09 3889.07 2177.19 3889.02 2177.28 3888.95C2177.36 3888.88 2177.43 3888.79 2177.47 3888.69C2177.52 3888.58 2177.55 3888.46 2177.54 3888.33V3838.37C2177.55 3838.25 2177.52 3838.13 2177.47 3838.01C2177.43 3837.91 2177.36 3837.81 2177.28 3837.74C2177.19 3837.66 2177.09 3837.61 2176.98 3837.58C2176.87 3837.55 2176.74 3837.54 2176.62 3837.56L2148.57 3842.15Z" fill="white"/>
    <path d="M2152.15 3847.45C2152.11 3847.46 2152.07 3847.47 2152.04 3847.49C2152.01 3847.51 2151.98 3847.54 2151.96 3847.57C2151.93 3847.61 2151.91 3847.64 2151.9 3847.69C2151.88 3847.73 2151.88 3847.77 2151.88 3847.82V3849.38C2151.88 3849.42 2151.88 3849.47 2151.9 3849.51C2151.91 3849.55 2151.93 3849.58 2151.96 3849.61C2151.98 3849.64 2152.01 3849.66 2152.04 3849.68C2152.08 3849.69 2152.11 3849.7 2152.15 3849.69L2171.05 3848.02C2171.1 3848.01 2171.15 3848 2171.19 3847.97C2171.24 3847.95 2171.28 3847.92 2171.31 3847.88C2171.35 3847.84 2171.37 3847.79 2171.39 3847.74C2171.41 3847.69 2171.42 3847.64 2171.42 3847.59V3845.74C2171.42 3845.69 2171.41 3845.64 2171.39 3845.59C2171.37 3845.55 2171.35 3845.51 2171.31 3845.47C2171.28 3845.44 2171.24 3845.42 2171.19 3845.4C2171.15 3845.38 2171.09 3845.38 2171.05 3845.38L2152.15 3847.45Z" fill="#3B5BCD"/>
    <path d="M2152.05 3852.63C2152.04 3852.63 2152.03 3852.63 2152.02 3852.64C2152.01 3852.64 2152 3852.65 2152 3852.66C2151.99 3852.67 2151.99 3852.67 2151.98 3852.68C2151.98 3852.7 2151.98 3852.71 2151.98 3852.72V3853.33C2151.98 3853.34 2151.98 3853.35 2151.98 3853.36C2151.99 3853.37 2151.99 3853.38 2152 3853.39C2152 3853.39 2152.01 3853.4 2152.02 3853.4C2152.03 3853.41 2152.04 3853.41 2152.05 3853.41L2171.28 3852.36C2171.29 3852.36 2171.31 3852.36 2171.32 3852.35C2171.33 3852.35 2171.34 3852.34 2171.35 3852.33C2171.37 3852.31 2171.38 3852.28 2171.38 3852.26V3851.54C2171.38 3851.52 2171.37 3851.51 2171.37 3851.5C2171.36 3851.49 2171.36 3851.48 2171.35 3851.47C2171.34 3851.46 2171.33 3851.45 2171.32 3851.45C2171.31 3851.44 2171.29 3851.44 2171.28 3851.44L2152.05 3852.63Z" fill="#CCCCCC"/>
    <path d="M2152.05 3854.61C2152.04 3854.61 2152.03 3854.61 2152.02 3854.62C2152.01 3854.62 2152 3854.63 2152 3854.64C2151.99 3854.65 2151.99 3854.65 2151.98 3854.66C2151.98 3854.68 2151.98 3854.69 2151.98 3854.7V3855.31C2151.98 3855.32 2151.98 3855.33 2151.98 3855.34C2151.99 3855.35 2151.99 3855.36 2152 3855.37C2152 3855.37 2152.01 3855.38 2152.02 3855.38C2152.03 3855.39 2152.04 3855.39 2152.05 3855.39L2171.28 3854.69C2171.29 3854.69 2171.31 3854.69 2171.32 3854.68C2171.33 3854.68 2171.34 3854.67 2171.35 3854.66C2171.37 3854.64 2171.38 3854.62 2171.38 3854.59V3853.87C2171.38 3853.86 2171.37 3853.85 2171.37 3853.83C2171.36 3853.82 2171.36 3853.81 2171.35 3853.8C2171.34 3853.79 2171.33 3853.79 2171.32 3853.78C2171.31 3853.78 2171.29 3853.78 2171.28 3853.78L2152.05 3854.61Z" fill="#CCCCCC"/>
    <path d="M2152.05 3856.59C2152.04 3856.59 2152.03 3856.59 2152.02 3856.6C2152.01 3856.6 2152 3856.61 2152 3856.62C2151.99 3856.63 2151.99 3856.63 2151.98 3856.64C2151.98 3856.66 2151.98 3856.67 2151.98 3856.68V3857.29C2151.98 3857.3 2151.98 3857.31 2151.98 3857.32C2151.99 3857.33 2151.99 3857.34 2152 3857.35C2152 3857.35 2152.01 3857.36 2152.02 3857.36C2152.03 3857.37 2152.04 3857.37 2152.05 3857.37L2171.28 3857.03C2171.29 3857.03 2171.31 3857.02 2171.32 3857.02C2171.33 3857.01 2171.34 3857 2171.35 3857C2171.36 3856.99 2171.36 3856.97 2171.37 3856.96C2171.37 3856.95 2171.38 3856.94 2171.38 3856.92V3856.21C2171.38 3856.19 2171.37 3856.18 2171.37 3856.17C2171.36 3856.16 2171.36 3856.15 2171.35 3856.14C2171.34 3856.13 2171.33 3856.12 2171.32 3856.11C2171.31 3856.11 2171.29 3856.11 2171.28 3856.11L2152.05 3856.59Z" fill="#CCCCCC"/>
    <path d="M2152.01 3860.55C2152 3860.55 2151.99 3860.55 2151.99 3860.55C2151.98 3860.56 2151.97 3860.56 2151.96 3860.57C2151.96 3860.58 2151.95 3860.59 2151.95 3860.6C2151.95 3860.61 2151.94 3860.62 2151.94 3860.63V3861.24C2151.94 3861.25 2151.95 3861.26 2151.95 3861.27C2151.95 3861.28 2151.96 3861.29 2151.96 3861.3C2151.97 3861.31 2151.98 3861.31 2151.99 3861.32C2151.99 3861.32 2152 3861.33 2152.01 3861.33L2171.23 3861.68C2171.25 3861.68 2171.26 3861.68 2171.27 3861.68C2171.28 3861.67 2171.29 3861.67 2171.3 3861.66C2171.31 3861.65 2171.32 3861.64 2171.32 3861.63C2171.33 3861.61 2171.33 3861.6 2171.33 3861.59V3860.87C2171.33 3860.86 2171.33 3860.84 2171.32 3860.83C2171.32 3860.82 2171.31 3860.81 2171.3 3860.8C2171.29 3860.79 2171.28 3860.78 2171.27 3860.78C2171.26 3860.77 2171.25 3860.77 2171.23 3860.77L2152.01 3860.55Z" fill="#CCCCCC"/>
    <path d="M2152.01 3862.53C2152 3862.53 2151.99 3862.53 2151.99 3862.53C2151.98 3862.54 2151.97 3862.54 2151.96 3862.55C2151.96 3862.56 2151.95 3862.57 2151.95 3862.58C2151.95 3862.59 2151.94 3862.6 2151.94 3862.61V3863.22C2151.94 3863.23 2151.95 3863.24 2151.95 3863.25C2151.95 3863.26 2151.96 3863.27 2151.96 3863.28C2151.97 3863.29 2151.98 3863.3 2151.99 3863.3C2151.99 3863.3 2152 3863.31 2152.01 3863.31L2171.23 3864.02C2171.25 3864.02 2171.26 3864.02 2171.27 3864.01C2171.28 3864.01 2171.29 3864 2171.3 3863.99C2171.31 3863.98 2171.32 3863.97 2171.32 3863.96C2171.33 3863.95 2171.33 3863.93 2171.33 3863.92V3863.2C2171.33 3863.19 2171.33 3863.18 2171.32 3863.16C2171.32 3863.15 2171.31 3863.14 2171.3 3863.13C2171.29 3863.12 2171.28 3863.11 2171.27 3863.11C2171.26 3863.1 2171.25 3863.1 2171.23 3863.1L2152.01 3862.53Z" fill="#CCCCCC"/>
    <path d="M2152.01 3864.51C2152 3864.51 2151.99 3864.51 2151.99 3864.51C2151.98 3864.52 2151.97 3864.52 2151.96 3864.53C2151.96 3864.54 2151.95 3864.55 2151.95 3864.56C2151.95 3864.57 2151.94 3864.58 2151.94 3864.59V3865.2C2151.94 3865.21 2151.95 3865.22 2151.95 3865.23C2151.95 3865.24 2151.96 3865.25 2151.96 3865.26C2151.97 3865.27 2151.98 3865.27 2151.99 3865.28C2151.99 3865.28 2152 3865.29 2152.01 3865.29L2171.23 3866.35C2171.25 3866.35 2171.26 3866.35 2171.27 3866.34C2171.28 3866.34 2171.29 3866.33 2171.3 3866.32C2171.31 3866.31 2171.32 3866.3 2171.32 3866.29C2171.33 3866.28 2171.33 3866.27 2171.33 3866.25V3865.54C2171.33 3865.51 2171.32 3865.48 2171.3 3865.46C2171.29 3865.45 2171.28 3865.45 2171.27 3865.44C2171.26 3865.44 2171.25 3865.43 2171.23 3865.43L2152.01 3864.51Z" fill="#CCCCCC"/>
    <path d="M2152.01 3866.5C2152 3866.5 2151.99 3866.5 2151.99 3866.5C2151.98 3866.51 2151.97 3866.51 2151.96 3866.52C2151.96 3866.53 2151.95 3866.54 2151.95 3866.55C2151.95 3866.56 2151.94 3866.57 2151.94 3866.58V3867.19C2151.94 3867.2 2151.95 3867.21 2151.95 3867.22C2151.95 3867.23 2151.96 3867.24 2151.96 3867.25C2151.97 3867.26 2151.98 3867.26 2151.99 3867.27C2151.99 3867.27 2152 3867.28 2152.01 3867.28L2171.23 3868.69C2171.25 3868.69 2171.26 3868.69 2171.27 3868.69C2171.28 3868.68 2171.29 3868.68 2171.3 3868.67C2171.31 3868.66 2171.32 3868.65 2171.32 3868.64C2171.33 3868.63 2171.33 3868.61 2171.33 3868.6V3867.88C2171.33 3867.87 2171.33 3867.85 2171.32 3867.84C2171.32 3867.83 2171.31 3867.82 2171.3 3867.81C2171.29 3867.8 2171.28 3867.79 2171.27 3867.79C2171.26 3867.78 2171.25 3867.78 2171.23 3867.77L2152.01 3866.5Z" fill="#CCCCCC"/>
    <path d="M2152.01 3868.48C2152 3868.48 2151.99 3868.48 2151.99 3868.48C2151.98 3868.49 2151.97 3868.49 2151.96 3868.5C2151.96 3868.51 2151.95 3868.52 2151.95 3868.53C2151.95 3868.54 2151.94 3868.55 2151.94 3868.56V3869.17C2151.94 3869.18 2151.95 3869.19 2151.95 3869.2C2151.95 3869.21 2151.96 3869.22 2151.96 3869.23C2151.97 3869.24 2151.98 3869.24 2151.99 3869.25C2151.99 3869.25 2152 3869.26 2152.01 3869.26L2171.23 3871.02C2171.25 3871.03 2171.26 3871.02 2171.27 3871.02C2171.28 3871.02 2171.29 3871.01 2171.3 3871C2171.31 3870.99 2171.32 3870.98 2171.32 3870.97C2171.33 3870.96 2171.33 3870.95 2171.33 3870.93V3870.21C2171.33 3870.2 2171.33 3870.19 2171.32 3870.17C2171.32 3870.16 2171.31 3870.15 2171.3 3870.14C2171.29 3870.13 2171.28 3870.12 2171.27 3870.12C2171.26 3870.11 2171.25 3870.11 2171.23 3870.11L2152.01 3868.48Z" fill="#CCCCCC"/>
    <path d="M2152.01 3870.46C2152 3870.46 2151.99 3870.46 2151.99 3870.46C2151.98 3870.47 2151.97 3870.47 2151.96 3870.48C2151.96 3870.49 2151.95 3870.5 2151.95 3870.51C2151.95 3870.52 2151.94 3870.53 2151.94 3870.54V3871.15C2151.94 3871.16 2151.95 3871.17 2151.95 3871.18C2151.95 3871.19 2151.96 3871.2 2151.96 3871.21C2151.97 3871.22 2151.98 3871.22 2151.99 3871.23C2151.99 3871.23 2152 3871.24 2152.01 3871.24L2171.23 3873.36C2171.25 3873.36 2171.26 3873.36 2171.27 3873.35C2171.28 3873.35 2171.29 3873.34 2171.3 3873.33C2171.31 3873.33 2171.32 3873.32 2171.32 3873.3C2171.33 3873.29 2171.33 3873.28 2171.33 3873.27V3872.55C2171.33 3872.53 2171.33 3872.52 2171.32 3872.51C2171.32 3872.5 2171.31 3872.48 2171.3 3872.47C2171.29 3872.46 2171.28 3872.46 2171.27 3872.45C2171.26 3872.44 2171.25 3872.44 2171.23 3872.44L2152.01 3870.46Z" fill="#CCCCCC"/>
    <path d="M2152.01 3872.45C2152 3872.45 2151.99 3872.45 2151.99 3872.45C2151.98 3872.46 2151.97 3872.46 2151.96 3872.47C2151.96 3872.48 2151.95 3872.48 2151.95 3872.49C2151.95 3872.5 2151.94 3872.52 2151.94 3872.53V3873.14C2151.94 3873.15 2151.95 3873.16 2151.95 3873.17C2151.95 3873.18 2151.96 3873.19 2151.96 3873.2C2151.97 3873.21 2151.98 3873.21 2151.99 3873.22C2151.99 3873.22 2152 3873.23 2152.01 3873.23L2171.23 3875.7C2171.25 3875.7 2171.26 3875.7 2171.27 3875.7C2171.28 3875.69 2171.29 3875.69 2171.3 3875.68C2171.31 3875.67 2171.32 3875.66 2171.32 3875.65C2171.33 3875.64 2171.33 3875.62 2171.33 3875.61V3874.89C2171.33 3874.88 2171.33 3874.87 2171.32 3874.85C2171.32 3874.84 2171.31 3874.83 2171.3 3874.82C2171.29 3874.81 2171.28 3874.8 2171.27 3874.79C2171.26 3874.79 2171.25 3874.78 2171.23 3874.78L2152.01 3872.45Z" fill="#CCCCCC"/>
    <path d="M2152.01 3874.43C2152 3874.43 2151.99 3874.43 2151.99 3874.43C2151.98 3874.44 2151.97 3874.44 2151.96 3874.45C2151.96 3874.46 2151.95 3874.46 2151.95 3874.47C2151.95 3874.48 2151.94 3874.49 2151.94 3874.51V3875.11C2151.94 3875.13 2151.95 3875.14 2151.95 3875.15C2151.95 3875.16 2151.96 3875.17 2151.96 3875.18C2151.97 3875.19 2151.98 3875.19 2151.99 3875.2C2151.99 3875.2 2152 3875.21 2152.01 3875.21L2171.23 3878.03C2171.25 3878.03 2171.26 3878.03 2171.27 3878.03C2171.28 3878.03 2171.29 3878.02 2171.3 3878.01C2171.31 3878 2171.32 3877.99 2171.32 3877.98C2171.33 3877.97 2171.33 3877.96 2171.33 3877.95V3877.23C2171.33 3877.21 2171.33 3877.2 2171.32 3877.19C2171.32 3877.17 2171.31 3877.16 2171.3 3877.15C2171.29 3877.14 2171.28 3877.13 2171.27 3877.13C2171.26 3877.12 2171.25 3877.12 2171.23 3877.11L2152.01 3874.43Z" fill="#CCCCCC"/>
    <path d="M2152.01 3876.41C2152 3876.41 2151.99 3876.41 2151.99 3876.41C2151.98 3876.42 2151.97 3876.42 2151.96 3876.43C2151.96 3876.44 2151.95 3876.44 2151.95 3876.45C2151.95 3876.46 2151.94 3876.47 2151.94 3876.49V3877.09C2151.94 3877.11 2151.95 3877.12 2151.95 3877.13C2151.95 3877.14 2151.96 3877.15 2151.96 3877.16C2151.97 3877.17 2151.98 3877.17 2151.99 3877.18C2151.99 3877.18 2152 3877.19 2152.01 3877.19L2171.23 3880.36C2171.25 3880.37 2171.26 3880.36 2171.27 3880.36C2171.28 3880.36 2171.29 3880.35 2171.3 3880.34C2171.31 3880.34 2171.32 3880.33 2171.32 3880.32C2171.33 3880.3 2171.33 3880.29 2171.33 3880.28V3879.56C2171.33 3879.55 2171.33 3879.53 2171.32 3879.52C2171.32 3879.51 2171.31 3879.5 2171.3 3879.49C2171.29 3879.48 2171.28 3879.47 2171.27 3879.46C2171.26 3879.45 2171.25 3879.45 2171.23 3879.45L2152.01 3876.41Z" fill="#CCCCCC"/>
    <path d="M2177.03 3879.35C2178.08 3879.51 2179.1 3879.88 2180.02 3880.41C2181.96 3881.54 2183.48 3883.29 2184.34 3885.37C2184.77 3886.41 2184.99 3887.52 2185 3888.64C2185.01 3889.68 2184.78 3890.71 2184.34 3891.64C2183.93 3892.49 2183.32 3893.22 2182.57 3893.77C2181.81 3894.31 2180.94 3894.67 2180.02 3894.81C2179.02 3894.96 2178 3894.9 2177.03 3894.63C2176 3894.35 2175.03 3893.9 2174.16 3893.28C2173.31 3892.68 2172.55 3891.95 2171.91 3891.12C2171.29 3890.31 2170.79 3889.41 2170.44 3888.45C2170.09 3887.51 2169.91 3886.51 2169.9 3885.51C2169.9 3884.58 2170.08 3883.65 2170.44 3882.79C2170.77 3882 2171.28 3881.29 2171.92 3880.72C2172.57 3880.15 2173.33 3879.74 2174.16 3879.51C2175.09 3879.25 2176.07 3879.2 2177.03 3879.35Z" fill="#3B5BCD"/>
    <path d="M2176.31 3890.05L2174.12 3886.67L2175.39 3885.91L2176.44 3887.51L2180.1 3884.34L2181.38 3885.77L2176.31 3890.05Z" fill="white"/>
    <path d="M2160.32 3886.11L2159.92 3880.59L2160.63 3875.42L2158.61 3875.29L2158.21 3881L2159.34 3886.36C2159.24 3886.5 2159.19 3886.66 2159.19 3886.82C2159.19 3886.99 2159.23 3887.15 2159.33 3887.28C2159.42 3887.42 2159.55 3887.52 2159.71 3887.58C2159.86 3887.64 2160.03 3887.65 2160.18 3887.6C2160.34 3887.56 2160.48 3887.47 2160.59 3887.35C2160.7 3887.22 2160.76 3887.07 2160.77 3886.9C2160.79 3886.74 2160.75 3886.57 2160.67 3886.43C2160.59 3886.29 2160.46 3886.17 2160.32 3886.11Z" fill="#9F616A"/>
    <path d="M2158.35 3876.03L2158.83 3873.97C2158.92 3873.57 2159.16 3873.23 2159.49 3873C2159.83 3872.78 2160.24 3872.69 2160.63 3872.76C2161.03 3872.83 2161.39 3873.05 2161.63 3873.37C2161.87 3873.69 2161.98 3874.1 2161.94 3874.5L2161.68 3876.83L2158.35 3876.03Z" fill="#CBCBCB"/>
    <path d="M2162.09 3904.07L2163.04 3904.07L2163.5 3900.38L2162.09 3900.38L2162.09 3904.07Z" fill="#9F616A"/>
    <path d="M2161.85 3903.76L2163.73 3903.76C2164.04 3903.76 2164.35 3903.89 2164.57 3904.11C2164.79 3904.34 2164.92 3904.64 2164.92 3904.96V3905L2161.85 3905L2161.85 3903.76Z" fill="#2F2E41"/>
    <path d="M2166.84 3904.04L2167.75 3903.78L2167.18 3900.1L2165.83 3900.49L2166.84 3904.04Z" fill="#9F616A"/>
    <path d="M2166.52 3903.81L2168.32 3903.29C2168.63 3903.2 2168.95 3903.24 2169.23 3903.39C2169.51 3903.55 2169.71 3903.81 2169.8 3904.11L2169.81 3904.15L2166.86 3905L2166.52 3903.81Z" fill="#2F2E41"/>
    <path d="M2161.58 3902.73L2162.02 3891.55L2160.87 3886.49C2159.32 3883.88 2160.99 3879.72 2161.01 3879.68L2161.02 3879.67L2161.03 3879.66L2165.08 3879.11L2165.14 3879.24C2166.72 3882.88 2167.16 3886.92 2166.4 3890.82L2165.98 3892.98L2168.06 3901.44L2166.09 3902.43L2164.58 3898.49L2163.55 3902.52L2161.58 3902.73Z" fill="#2F2E41"/>
    <path d="M2160.48 3880.72L2159.16 3876.83C2158.33 3875.38 2158.85 3874.09 2159.44 3873.26C2160.06 3872.37 2160.1 3871.87 2160.11 3871.86L2160.12 3871.86L2161.85 3871.8L2163.46 3873.44C2163.56 3873.4 2164.41 3875.52 2164.34 3875.62L2165.46 3879.27L2160.48 3880.72Z" fill="#CBCBCB"/>
    <path d="M2171.17 3881.39L2166.82 3878.01L2163.47 3874.03L2162.02 3875.45L2165.98 3879.56L2170.71 3882.29C2170.75 3882.46 2170.83 3882.6 2170.95 3882.71C2171.07 3882.82 2171.22 3882.9 2171.39 3882.92C2171.55 3882.94 2171.71 3882.91 2171.86 3882.83C2172 3882.76 2172.12 3882.64 2172.2 3882.49C2172.27 3882.34 2172.3 3882.18 2172.28 3882.01C2172.25 3881.85 2172.18 3881.7 2172.07 3881.58C2171.96 3881.46 2171.81 3881.38 2171.65 3881.34C2171.49 3881.31 2171.32 3881.33 2171.17 3881.39Z" fill="#9F616A"/>
    <path d="M2161.6 3876.89L2160.39 3875.16C2160.16 3874.83 2160.06 3874.42 2160.12 3874.02C2160.18 3873.61 2160.39 3873.25 2160.7 3873C2161.02 3872.75 2161.42 3872.63 2161.82 3872.66C2162.22 3872.7 2162.6 3872.88 2162.86 3873.19L2164.42 3874.94L2161.6 3876.89Z" fill="#CBCBCB"/>
    <path d="M2160.78 3871.33C2161.92 3871.33 2162.84 3870.4 2162.84 3869.25C2162.84 3868.11 2161.92 3867.18 2160.78 3867.18C2159.64 3867.18 2158.72 3868.11 2158.72 3869.25C2158.72 3870.4 2159.64 3871.33 2160.78 3871.33Z" fill="#9F616A"/>
    <path d="M2162.88 3868.2H2159.6V3866.77C2160.32 3866.48 2161.03 3866.24 2161.45 3866.77C2161.83 3866.77 2162.19 3866.92 2162.46 3867.19C2162.73 3867.46 2162.88 3867.82 2162.88 3868.2Z" fill="#2F2E41"/>
    <path d="M2160.06 3866.43C2157.06 3866.34 2157.62 3871.31 2157.62 3871.31C2157.62 3871.31 2158.19 3871.38 2158.45 3871.43L2158.76 3871.25L2159.1 3871.47C2159.25 3871.47 2159.41 3871.47 2159.58 3871.47L2159.73 3871.15L2160.08 3871.46C2160.7 3871.46 2162.39 3871.48 2162.39 3871.48C2162.39 3871.48 2163.42 3866.52 2160.06 3866.43Z" fill="#2F2E41"/>
    <path d="M2147.97 3874.93C2147.98 3874.84 2147.98 3874.74 2147.94 3874.64C2147.91 3874.55 2147.86 3874.47 2147.8 3874.39C2147.73 3874.32 2147.65 3874.27 2147.56 3874.23C2147.47 3874.19 2147.37 3874.18 2147.28 3874.18L2146.62 3872.8L2145.69 3873L2146.64 3874.94C2146.66 3875.1 2146.74 3875.25 2146.86 3875.36C2146.99 3875.47 2147.15 3875.53 2147.31 3875.53C2147.47 3875.53 2147.63 3875.47 2147.75 3875.36C2147.88 3875.25 2147.95 3875.1 2147.97 3874.93Z" fill="#FFB7B7"/>
    <path d="M2133.67 3890.93L2134.44 3891.33L2136.34 3888.52L2135.2 3887.93L2133.67 3890.93Z" fill="#FFB7B7"/>
    <path d="M2133.6 3890.58L2135.13 3891.36C2135.39 3891.49 2135.58 3891.72 2135.67 3892C2135.76 3892.28 2135.73 3892.58 2135.6 3892.84L2135.59 3892.87L2133.09 3891.59L2133.6 3890.58Z" fill="#2F2E41"/>
    <path d="M2142.62 3892.02H2143.49L2143.9 3888.65L2142.62 3888.65L2142.62 3892.02Z" fill="#FFB7B7"/>
    <path d="M2142.4 3891.74L2144.11 3891.74C2144.4 3891.74 2144.68 3891.85 2144.88 3892.06C2145.09 3892.26 2145.2 3892.54 2145.2 3892.83V3892.87L2142.4 3892.87L2142.4 3891.74Z" fill="#2F2E41"/>
    <path d="M2138.55 3864.5C2138.55 3864.5 2137.97 3864.05 2137.97 3865.15L2137.87 3868.77L2138.9 3872.19L2139.5 3871.08L2139.25 3868.68L2138.55 3864.5Z" fill="#3B5BCD"/>
    <path d="M2144.78 3874.41C2144.78 3874.41 2145.46 3877.72 2144.6 3880.43L2144.13 3890.87L2142.4 3890.73L2141.79 3882.99L2141.2 3879.14L2139.98 3882.65L2135.97 3890.08L2134.13 3888.63C2134.13 3888.63 2136.17 3883.02 2137.69 3881.84L2138.44 3873.15L2144.78 3874.41Z" fill="#2F2E41"/>
    <path d="M2142.73 3860.08C2143.82 3860.08 2144.71 3859.19 2144.71 3858.09C2144.71 3856.99 2143.82 3856.1 2142.73 3856.1C2141.63 3856.1 2140.75 3856.99 2140.75 3858.09C2140.75 3859.19 2141.63 3860.08 2142.73 3860.08Z" fill="#FFB8B8"/>
    <path d="M2142.59 3858.51C2142.82 3858.54 2143 3858.3 2143.09 3858.08C2143.17 3857.85 2143.23 3857.59 2143.44 3857.47C2143.72 3857.3 2144.08 3857.5 2144.4 3857.44C2144.77 3857.38 2145 3857 2145.02 3856.63C2145.04 3856.25 2144.89 3855.9 2144.75 3855.56L2144.7 3855.98C2144.71 3855.84 2144.68 3855.69 2144.61 3855.57C2144.55 3855.44 2144.45 3855.33 2144.33 3855.25L2144.4 3855.87C2144.38 3855.78 2144.35 3855.7 2144.31 3855.63C2144.26 3855.55 2144.2 3855.49 2144.13 3855.44C2144.06 3855.39 2143.98 3855.35 2143.9 3855.33C2143.81 3855.31 2143.73 3855.31 2143.64 3855.32L2143.65 3855.69C2143.23 3855.63 2142.81 3855.61 2142.39 3855.63C2141.96 3855.66 2141.55 3855.81 2141.22 3856.08C2140.74 3856.5 2140.57 3857.19 2140.63 3857.82C2140.69 3858.45 2140.95 3859.05 2141.22 3859.62C2141.29 3859.77 2141.38 3859.93 2141.54 3859.95C2141.61 3859.95 2141.68 3859.93 2141.74 3859.88C2141.79 3859.84 2141.84 3859.78 2141.85 3859.71C2141.89 3859.57 2141.89 3859.42 2141.85 3859.28C2141.79 3859.07 2141.78 3858.85 2141.8 3858.64C2141.84 3858.42 2141.99 3858.21 2142.2 3858.18C2142.42 3858.16 2142.64 3858.41 2142.53 3858.6L2142.59 3858.51Z" fill="#2F2E41"/>
    <path d="M2140.83 3860.8L2141.25 3860.23C2141.25 3860.23 2141.71 3860.38 2142.95 3861L2143.04 3861.54L2145.19 3874.85L2141.28 3874.68L2140.21 3874.65L2139.43 3874.64L2138.39 3874.61L2138.38 3870.79L2138.72 3867.86L2138.2 3865.1C2138.2 3865.1 2137.54 3862.57 2140.07 3861.2L2140.83 3860.8Z" fill="#3B5BCD"/>
    <path d="M2146.25 3874.22L2146.4 3874.72L2147.39 3874.07L2147.02 3873.64L2146.25 3874.22Z" fill="#CBCBCB"/>
    <path d="M2141.57 3862.41C2141.57 3862.41 2143.11 3860.43 2144.05 3862.64L2144.34 3864.95C2144.34 3864.95 2145.47 3867.82 2145.5 3868.98C2145.5 3868.98 2146.27 3870.49 2146.26 3871.29L2147.39 3873.86L2146.23 3874.59L2143.02 3869.64L2141.57 3862.41Z" fill="#3B5BCD"/>
  </g>
</svg>