<?xml version="1.0" encoding="utf-8"?>
<svg viewBox="-3631.427 -1917.807 563.49 346.192" xmlns="http://www.w3.org/2000/svg">
  <defs>
    <clipPath id="clip12_0_1">
      <rect width="603" height="362" fill="white" transform="translate(2233 678)"/>
    </clipPath>
  </defs>
  <g clip-path="url(#clip12_0_1)" transform="matrix(1, 0, 0, 1, -5903.937012, -2611.614258)">
    <path d="M2537.55 731.747C2533.8 731.747 2530.13 730.634 2527.01 728.55C2523.89 726.465 2521.46 723.503 2520.03 720.037C2518.59 716.57 2518.22 712.756 2518.95 709.077C2519.68 705.397 2521.49 702.017 2524.14 699.364C2526.79 696.711 2530.17 694.904 2533.85 694.172C2537.53 693.44 2541.34 693.816 2544.81 695.252C2548.27 696.688 2551.24 699.119 2553.32 702.238C2555.4 705.358 2556.52 709.025 2556.52 712.777C2556.51 717.807 2554.51 722.628 2550.96 726.184C2547.4 729.741 2542.58 731.741 2537.55 731.747ZM2537.55 695.389C2534.11 695.389 2530.75 696.408 2527.89 698.319C2525.03 700.23 2522.8 702.946 2521.49 706.123C2520.17 709.3 2519.83 712.797 2520.5 716.17C2521.17 719.543 2522.83 722.641 2525.26 725.073C2527.69 727.505 2530.79 729.161 2534.16 729.832C2537.53 730.503 2541.03 730.158 2544.2 728.842C2547.38 727.526 2550.1 725.297 2552.01 722.438C2553.92 719.578 2554.94 716.216 2554.94 712.777C2554.93 708.167 2553.1 703.747 2549.84 700.487C2546.58 697.228 2542.16 695.394 2537.55 695.389Z" fill="#F2F2F2"/>
    <path d="M2671.1 824.223C2666.88 824.223 2662.76 822.971 2659.25 820.626C2655.74 818.281 2653 814.948 2651.39 811.049C2649.77 807.149 2649.35 802.858 2650.18 798.719C2651 794.579 2653.03 790.777 2656.01 787.792C2659 784.807 2662.8 782.775 2666.94 781.952C2671.08 781.128 2675.37 781.551 2679.27 783.166C2683.17 784.781 2686.5 787.516 2688.84 791.026C2691.19 794.535 2692.44 798.661 2692.44 802.882C2692.43 808.54 2690.18 813.964 2686.18 817.965C2682.18 821.966 2676.76 824.216 2671.1 824.223ZM2671.1 783.122C2667.19 783.122 2663.37 784.281 2660.13 786.452C2656.88 788.624 2654.34 791.71 2652.85 795.32C2651.35 798.931 2650.96 802.904 2651.73 806.737C2652.49 810.57 2654.37 814.091 2657.13 816.854C2659.89 819.618 2663.42 821.5 2667.25 822.262C2671.08 823.025 2675.05 822.633 2678.66 821.138C2682.27 819.642 2685.36 817.11 2687.53 813.86C2689.7 810.611 2690.86 806.79 2690.86 802.882C2690.85 797.643 2688.77 792.621 2685.06 788.916C2681.36 785.212 2676.34 783.128 2671.1 783.122Z" fill="#F2F2F2"/>
    <path d="M2844.21 1040H2666.41C2666.2 1040 2665.99 1039.92 2665.85 1039.77C2665.7 1039.62 2665.61 1039.42 2665.61 1039.21C2665.61 1039 2665.7 1038.8 2665.85 1038.65C2665.99 1038.5 2666.2 1038.42 2666.41 1038.42H2844.21C2844.42 1038.42 2844.62 1038.5 2844.77 1038.65C2844.92 1038.8 2845 1039 2845 1039.21C2845 1039.42 2844.92 1039.62 2844.77 1039.77C2844.62 1039.92 2844.42 1040 2844.21 1040Z" fill="#CCCCCC"/>
    <path d="M2748.48 799.125C2759.2 799.125 2767.89 790.434 2767.89 779.712C2767.89 768.991 2759.2 760.3 2748.48 760.3C2737.76 760.3 2729.07 768.991 2729.07 779.712C2729.07 790.434 2737.76 799.125 2748.48 799.125Z" fill="#FFB8B8"/>
    <path d="M2750.49 1010.24L2741.32 1013.35L2724.94 979.445L2738.48 974.846L2750.49 1010.24Z" fill="#FFB8B8"/>
    <path d="M2733.88 1012.96L2751.57 1006.95L2755.35 1018.09L2726.52 1027.88C2726.02 1026.42 2725.82 1024.87 2725.92 1023.33C2726.02 1021.79 2726.43 1020.28 2727.11 1018.9C2727.79 1017.51 2728.74 1016.27 2729.9 1015.25C2731.06 1014.23 2732.41 1013.45 2733.88 1012.96Z" fill="#2F2E41"/>
    <path d="M2771.22 1029.39L2761.54 1029.88L2755.06 992.778L2769.35 992.06L2771.22 1029.39Z" fill="#FFB8B8"/>
    <path d="M2754.49 1027.46L2773.16 1026.52L2773.75 1038.27L2743.34 1039.8C2743.26 1038.26 2743.49 1036.71 2744 1035.26C2744.52 1033.8 2745.32 1032.46 2746.36 1031.32C2747.4 1030.17 2748.65 1029.24 2750.04 1028.58C2751.44 1027.92 2752.95 1027.53 2754.49 1027.46Z" fill="#2F2E41"/>
    <path d="M2713.64 906.131C2714.51 905.358 2715.19 904.405 2715.65 903.338C2716.11 902.27 2716.33 901.115 2716.3 899.954C2716.26 898.793 2715.97 897.653 2715.45 896.616C2714.93 895.578 2714.18 894.668 2713.27 893.949L2722.5 867.255L2708.28 870.889L2701.7 895.681C2700.59 897.295 2700.12 899.259 2700.36 901.2C2700.61 903.14 2701.56 904.924 2703.03 906.212C2704.5 907.5 2706.39 908.203 2708.35 908.188C2710.3 908.173 2712.19 907.441 2713.64 906.131Z" fill="#FFB8B8"/>
    <path d="M2770.32 1018.2C2770.19 1018.2 2770.07 1018.2 2769.94 1018.18L2756.81 1016.79C2756 1016.71 2755.25 1016.35 2754.67 1015.78C2754.1 1015.21 2753.73 1014.46 2753.65 1013.65L2743.5 923.145L2736.15 947.912L2749.85 996.586C2749.99 997.082 2750.02 997.602 2749.93 998.111C2749.85 998.619 2749.66 999.104 2749.38 999.532C2749.09 999.959 2748.71 1000.32 2748.27 1000.59C2747.83 1000.86 2747.34 1001.02 2746.83 1001.08L2733.52 1002.61C2732.67 1002.71 2731.81 1002.49 2731.11 1002.01C2730.4 1001.53 2729.9 1000.82 2729.67 999.993L2715.13 945.217C2715.01 944.767 2714.98 944.297 2715.04 943.835L2721.58 894.674L2770.34 898.585L2773.87 1014.54C2773.89 1015.01 2773.8 1015.49 2773.63 1015.93C2773.46 1016.38 2773.2 1016.78 2772.87 1017.12C2772.54 1017.47 2772.14 1017.74 2771.7 1017.92C2771.26 1018.11 2770.79 1018.2 2770.32 1018.2V1018.2Z" fill="#2F2E41"/>
    <path d="M2753.46 906.992C2737.12 906.992 2718.62 900.677 2717.5 900.29L2717.18 900.177L2735.61 805.58L2735.95 805.594C2743.25 805.89 2763.19 806.042 2763.39 806.044L2763.75 806.046L2771.43 889.527L2772.8 901.737L2772.63 901.873C2767.93 905.674 2760.92 906.992 2753.46 906.992Z" fill="#6788FF"/>
    <path d="M2723.94 898.816L2712.41 894.172L2718.29 823.081C2718.43 821.328 2718.96 819.63 2719.85 818.111C2720.73 816.592 2721.95 815.291 2723.4 814.305L2729.47 810.175C2729.3 809.591 2729.27 808.975 2729.38 808.377C2729.49 807.779 2729.75 807.216 2730.12 806.735C2730.49 806.253 2730.97 805.867 2731.52 805.608C2732.07 805.349 2732.68 805.224 2733.29 805.243L2735.02 805.299C2735.35 805.076 2735.74 804.959 2736.14 804.962C2736.54 804.965 2736.93 805.088 2737.25 805.315C2737.58 805.543 2737.83 805.864 2737.97 806.236C2738.12 806.608 2738.14 807.015 2738.05 807.402L2737.67 814.934L2723.94 898.816Z" fill="#2F2E41"/>
    <path d="M2718.12 886.072L2703.07 885.438L2707.95 854.065L2711.99 824.545C2712.07 823.485 2712.38 822.457 2712.92 821.537C2713.45 820.617 2714.18 819.829 2715.06 819.233C2715.94 818.637 2716.95 818.247 2718 818.093C2719.05 817.939 2720.12 818.025 2721.14 818.344C2722.72 818.839 2724.07 819.875 2724.96 821.269C2725.85 822.663 2726.23 824.327 2726.02 825.969L2721.92 857.954L2718.12 886.072Z" fill="#2F2E41"/>
    <path d="M2741.96 899.904L2741.86 899.587C2741.79 899.37 2735 877.605 2746.35 851.632L2752.05 823.316L2756.91 805.536C2757 805.218 2757.17 804.926 2757.39 804.683C2757.61 804.44 2757.89 804.252 2758.2 804.135C2758.56 804.009 2758.95 803.993 2759.33 804.089C2759.7 804.184 2760.04 804.387 2760.29 804.672C2763.68 803.677 2767.33 804.042 2770.45 805.689L2777.29 809.288C2778.81 810.089 2780.02 811.37 2780.73 812.933C2781.44 814.495 2781.61 816.25 2781.22 817.922L2771.89 857.776L2776.42 895.001L2741.96 899.904Z" fill="#2F2E41"/>
    <path d="M2751.9 884.559C2753.05 884.685 2754.22 884.556 2755.32 884.18C2756.42 883.805 2757.43 883.194 2758.26 882.389C2759.1 881.584 2759.75 880.605 2760.17 879.521C2760.59 878.437 2760.76 877.274 2760.69 876.115L2781.83 860.449L2774.44 856.944L2751.64 868.691C2749.7 868.953 2747.93 869.918 2746.65 871.401C2745.38 872.885 2744.69 874.785 2744.72 876.741C2744.75 878.697 2745.5 880.573 2746.83 882.014C2748.15 883.455 2749.95 884.361 2751.9 884.56V884.559Z" fill="#FFB8B8"/>
    <path d="M2765.16 877.547L2758.01 864.214L2775.63 852.62L2767.03 821.787C2766.69 820.553 2766.6 819.26 2766.78 817.991C2766.96 816.722 2767.39 815.503 2768.06 814.41C2768.73 813.318 2769.62 812.375 2770.67 811.641C2771.72 810.906 2772.91 810.397 2774.17 810.143C2776.39 809.701 2778.69 810.079 2780.65 811.208C2782.62 812.336 2784.1 814.139 2784.84 816.28L2796.43 850.374C2796.67 851.076 2796.69 851.836 2796.47 852.547C2796.26 853.257 2795.83 853.883 2795.24 854.336L2765.16 877.547Z" fill="#2F2E41"/>
    <path d="M2749.85 783.83C2747.53 784.133 2745.77 781.752 2744.96 779.551C2744.14 777.35 2743.52 774.787 2741.5 773.598C2738.74 771.974 2735.2 773.928 2732.04 773.392C2728.47 772.787 2726.15 769.003 2725.97 765.387C2725.79 761.771 2727.23 758.293 2728.64 754.959L2729.13 759.103C2729.06 757.698 2729.36 756.301 2729.99 755.043C2730.62 753.786 2731.56 752.71 2732.72 751.92L2732.09 758C2732.22 757.162 2732.52 756.358 2732.97 755.635C2733.41 754.912 2734 754.285 2734.69 753.789C2735.38 753.292 2736.16 752.937 2736.98 752.744C2737.81 752.55 2738.67 752.522 2739.51 752.661L2739.41 756.283C2743.53 755.793 2747.69 755.302 2751.82 755.676C2755.96 756.049 2760.12 757.358 2763.25 760.081C2767.94 764.155 2769.65 770.863 2769.08 777.047C2768.5 783.231 2765.95 789.041 2763.29 794.653C2762.62 796.065 2761.7 797.659 2760.14 797.839C2758.75 798 2757.47 796.834 2757.04 795.499C2756.71 794.128 2756.72 792.697 2757.08 791.333C2757.47 789.248 2757.96 787.117 2757.6 785.029C2757.23 782.94 2755.72 780.876 2753.62 780.62C2751.51 780.364 2749.36 782.771 2750.37 784.635L2749.85 783.83Z" fill="#2F2E41"/>
    <path d="M2495.91 996.985L2488.36 993.803L2483.17 955.921H2414.15L2408.54 993.648L2401.78 997.028C2401.45 997.19 2401.19 997.456 2401.04 997.784C2400.89 998.111 2400.85 998.481 2400.93 998.833C2401.02 999.185 2401.22 999.499 2401.5 999.723C2401.78 999.947 2402.13 1000.07 2402.5 1000.07H2495.29C2495.66 1000.07 2496.02 999.941 2496.31 999.707C2496.59 999.472 2496.79 999.145 2496.86 998.782C2496.94 998.419 2496.88 998.041 2496.71 997.714C2496.54 997.386 2496.25 997.128 2495.91 996.985Z" fill="#E6E6E6"/>
    <path d="M2618.57 960.961H2279.52C2277.74 960.957 2276.04 960.247 2274.78 958.988C2273.53 957.728 2272.82 956.022 2272.82 954.242V906.424H2625.27V954.242C2625.27 956.022 2624.56 957.728 2623.31 958.988C2622.05 960.247 2620.34 960.957 2618.57 960.961Z" fill="#DCDCDC"/>
    <path d="M2625.62 929.024H2272.51V724.417C2272.51 722.27 2273.37 720.212 2274.88 718.693C2276.4 717.175 2278.46 716.321 2280.61 716.319H2617.52C2619.67 716.321 2621.73 717.175 2623.25 718.693C2624.77 720.212 2625.62 722.27 2625.62 724.417V929.024Z" fill="#C0C0C0"/>
    <path d="M2604.53 914.174H2293.6C2291.94 914.172 2290.36 913.513 2289.19 912.343C2288.02 911.172 2287.36 909.585 2287.36 907.93V737.413C2287.36 735.757 2288.02 734.17 2289.19 733C2290.36 731.829 2291.94 731.17 2293.6 731.169H2604.53C2606.19 731.17 2607.77 731.829 2608.94 733C2610.11 734.17 2610.77 735.757 2610.77 737.413V907.93C2610.77 909.585 2610.11 911.172 2608.94 912.343C2607.77 913.513 2606.19 914.172 2604.53 914.174Z" fill="white"/>
    <path d="M2601.21 1002H2300.79C2300.58 1002 2300.38 1001.84 2300.23 1001.56C2300.08 1001.28 2300 1000.9 2300 1000.5C2300 1000.1 2300.08 999.721 2300.23 999.439C2300.38 999.158 2300.58 999 2300.79 999H2601.21C2601.42 999 2601.62 999.158 2601.77 999.439C2601.92 999.721 2602 1000.1 2602 1000.5C2602 1000.9 2601.92 1001.28 2601.77 1001.56C2601.62 1001.84 2601.42 1002 2601.21 1002Z" fill="#CCCCCC"/>
    <path d="M2575.32 892.987H2322.81C2322.6 892.987 2322.4 892.904 2322.25 892.755C2322.1 892.607 2322.02 892.406 2322.02 892.197V771.145C2322.02 770.936 2322.1 770.735 2322.25 770.586C2322.4 770.438 2322.6 770.355 2322.81 770.355C2323.02 770.355 2323.22 770.438 2323.37 770.586C2323.52 770.735 2323.6 770.936 2323.6 771.145V891.406H2575.32C2575.53 891.406 2575.73 891.489 2575.88 891.638C2576.03 891.786 2576.11 891.987 2576.11 892.197C2576.11 892.406 2576.03 892.607 2575.88 892.755C2575.73 892.904 2575.53 892.987 2575.32 892.987Z" fill="#3F3D56"/>
    <path d="M2376.76 884.293H2353.79C2353.17 884.292 2352.58 884.045 2352.14 883.605C2351.7 883.165 2351.45 882.569 2351.45 881.946V850.281C2351.45 849.659 2351.7 849.062 2352.14 848.622C2352.58 848.183 2353.17 847.935 2353.79 847.935H2376.76C2377.38 847.935 2377.98 848.183 2378.42 848.622C2378.86 849.062 2379.11 849.659 2379.11 850.281V881.946C2379.11 882.569 2378.86 883.165 2378.42 883.605C2377.98 884.045 2377.38 884.292 2376.76 884.293Z" fill="#02316B"/>
    <path d="M2418.64 884.293H2395.68C2395.06 884.292 2394.46 884.044 2394.02 883.605C2393.58 883.165 2393.33 882.568 2393.33 881.946V820.246C2393.33 819.624 2393.58 819.027 2394.02 818.587C2394.46 818.148 2395.06 817.9 2395.68 817.9H2418.64C2419.27 817.9 2419.86 818.148 2420.3 818.587C2420.74 819.027 2420.99 819.624 2420.99 820.246V881.946C2420.99 882.568 2420.74 883.165 2420.3 883.605C2419.86 884.044 2419.27 884.292 2418.64 884.293Z" fill="#02316B"/>
    <path d="M2460.53 884.293H2437.56C2436.94 884.292 2436.34 884.045 2435.9 883.605C2435.46 883.165 2435.21 882.569 2435.21 881.946V850.281C2435.21 849.659 2435.46 849.062 2435.9 848.622C2436.34 848.183 2436.94 847.935 2437.56 847.935H2460.53C2461.15 847.935 2461.75 848.183 2462.18 848.622C2462.62 849.062 2462.87 849.659 2462.87 850.281V881.946C2462.87 882.569 2462.62 883.165 2462.18 883.605C2461.75 884.045 2461.15 884.292 2460.53 884.293Z" fill="#02316B"/>
    <path d="M2502.41 884.293H2479.44C2478.84 884.306 2478.25 884.077 2477.81 883.657C2477.37 883.238 2477.11 882.661 2477.1 882.053V808.283C2477.11 807.676 2477.37 807.099 2477.81 806.679C2478.25 806.259 2478.84 806.031 2479.44 806.044H2502.41C2503.02 806.031 2503.61 806.259 2504.05 806.679C2504.49 807.099 2504.74 807.676 2504.76 808.283V882.053C2504.74 882.661 2504.49 883.238 2504.05 883.657C2503.61 884.077 2503.02 884.306 2502.41 884.293Z" fill="#02316B"/>
    <path d="M2544.29 884.293H2521.33C2520.7 884.292 2520.11 884.044 2519.67 883.605C2519.23 883.165 2518.98 882.569 2518.98 881.946V787.049C2518.98 786.427 2519.23 785.831 2519.67 785.391C2520.11 784.951 2520.7 784.704 2521.33 784.703H2544.29C2544.91 784.704 2545.51 784.951 2545.95 785.391C2546.39 785.831 2546.64 786.427 2546.64 787.049V881.946C2546.64 882.569 2546.39 883.165 2545.95 883.605C2545.51 884.044 2544.91 884.292 2544.29 884.293Z" fill="#02316B"/>
    <path d="M2365.28 838.45C2367.9 838.45 2370.02 836.327 2370.02 833.707C2370.02 831.088 2367.9 828.965 2365.28 828.965C2362.66 828.965 2360.54 831.088 2360.54 833.707C2360.54 836.327 2362.66 838.45 2365.28 838.45Z" fill="#3F3D56"/>
    <path d="M2407.16 807.624C2409.78 807.624 2411.9 805.501 2411.9 802.882C2411.9 800.263 2409.78 798.14 2407.16 798.14C2404.54 798.14 2402.42 800.263 2402.42 802.882C2402.42 805.501 2404.54 807.624 2407.16 807.624Z" fill="#3F3D56"/>
    <path d="M2449.04 838.45C2451.66 838.45 2453.78 836.327 2453.78 833.707C2453.78 831.088 2451.66 828.965 2449.04 828.965C2446.42 828.965 2444.3 831.088 2444.3 833.707C2444.3 836.327 2446.42 838.45 2449.04 838.45Z" fill="#3F3D56"/>
    <path d="M2490.93 792.607C2493.55 792.607 2495.67 790.484 2495.67 787.865C2495.67 785.246 2493.55 783.122 2490.93 783.122C2488.31 783.122 2486.18 785.246 2486.18 787.865C2486.18 790.484 2488.31 792.607 2490.93 792.607Z" fill="#3F3D56"/>
    <path d="M2532.81 775.218C2535.43 775.218 2537.55 773.095 2537.55 770.476C2537.55 767.857 2535.43 765.734 2532.81 765.734C2530.19 765.734 2528.07 767.857 2528.07 770.476C2528.07 773.095 2530.19 775.218 2532.81 775.218Z" fill="#3F3D56"/>
    <path d="M2449.14 834.77L2407.16 803.318L2365.75 834.34L2364.8 833.075L2407.16 801.343L2448.94 832.645L2490.46 787.199L2490.63 787.131L2532.51 770.253L2533.1 771.719L2491.39 788.53L2449.14 834.77Z" fill="#3F3D56"/>
  </g>
</svg>