<?xml version="1.0"?>
<svg width="851" height="779" xmlns="http://www.w3.org/2000/svg" xmlns:svg="http://www.w3.org/2000/svg">
 <!-- Created with SVG-edit - https://github.com/SVG-Edit/svgedit-->
 <g class="layer">
  <title>Layer 1</title>
  <g id="svg_16">
   <path d="m27.846504,481.772728c-0.136039,-0.144522 -0.226731,-0.317949 -0.272077,-0.505828c-17.775713,-70.208976 -14.782864,-143.770871 8.615779,-212.44791c23.413759,-68.691491 66.326387,-129.795556 123.946301,-176.49074c57.619915,-46.695183 127.679806,-77.14605 202.334779,-87.941873c74.670089,-10.810275 151.002872,-1.54639 220.488378,26.765546c0.151154,0.057809 0.287193,0.158975 0.408116,0.274593c0.120923,0.115618 0.211616,0.26014 0.287193,0.404663c0.060462,0.144522 0.090692,0.317949 0.090692,0.476924c0,0.158975 -0.045346,0.317949 -0.105808,0.476924c-0.060462,0.144522 -0.166269,0.289045 -0.287193,0.39021c-0.120923,0.115618 -0.256962,0.216784 -0.423231,0.274593c-0.151154,0.057809 -0.332539,0.086713 -0.498808,0.086713c-0.166269,0 -0.332539,-0.028904 -0.498808,-0.101166c-142.130131,-57.823407 -303.426592,-34.251806 -420.933732,61.508728c-116.781601,95.167992 -166.934507,242.971038 -130.899387,385.730252c0.060462,0.274593 0.030231,0.563637 -0.090692,0.823778c-0.120923,0.245688 -0.332539,0.448019 -0.589501,0.57809c-0.256962,0.13007 -0.55927,0.173427 -0.846463,0.115618c-0.287193,-0.057809 -0.544154,-0.202331 -0.725539,-0.419115z" fill="#E6E6E6" id="svg_1"/>
   <path d="m265.233902,748.387629c-0.181385,-0.216784 -0.287193,-0.491376 -0.302308,-0.765969c-0.015115,-0.274593 0.075577,-0.549185 0.241846,-0.780421c0.181385,-0.231236 0.423231,-0.39021 0.710424,-0.462472c0.272077,-0.072261 0.574385,-0.057809 0.846463,0.043357c141.601092,56.739489 302.126668,32.864391 418.908268,-62.303601c118.610564,-96.656573 168.975086,-245.240039 131.443541,-387.753566c-0.030231,-0.158975 -0.045346,-0.332401 -0.015115,-0.491376c0.015115,-0.158975 0.075577,-0.317949 0.166269,-0.448019c0.090692,-0.144522 0.1965,-0.26014 0.332539,-0.361306c0.136039,-0.101166 0.302308,-0.173427 0.468577,-0.216784c0.166269,-0.028904 0.332539,-0.043357 0.498808,-0.014452c0.166269,0.014452 0.332539,0.072261 0.483693,0.158975c0.136039,0.086713 0.272077,0.187879 0.377885,0.332401c0.090692,0.13007 0.166269,0.274593 0.211616,0.433567c18.21406,69.255128 15.901404,141.993246 -6.665893,210.06329c-23.368412,70.136715 -66.900772,132.584838 -125.608996,180.176061c-57.332722,46.752992 -127.105421,77.362834 -201.533663,88.433249c-74.428242,11.070415 -150.609872,2.167836 -220.080262,-25.710533c-0.181385,-0.072261 -0.347654,-0.187879 -0.483693,-0.332401z" fill="#E6E6E6" id="svg_2"/>
   <path d="m235.229828,770.427293c-0.120923,-0.115618 -0.1965,-0.26014 -0.256962,-0.419115c-0.045346,-0.158975 -0.060462,-0.317949 -0.045346,-0.476924c0,-0.158975 0.060462,-0.317949 0.136039,-0.476924c0.075577,-0.144522 0.181385,-0.274593 0.302308,-0.375758l613.488846,-499.946295c0.272077,-0.216784 0.604616,-0.317949 0.95227,-0.289045c0.347654,0.014452 0.665078,0.173427 0.876693,0.433567c0.226731,0.245688 0.347654,0.563637 0.317423,0.896039c-0.030231,0.332401 -0.1965,0.635899 -0.453462,0.852682l-613.488846,499.946295c-0.136039,0.101166 -0.287193,0.187879 -0.438347,0.231236c-0.166269,0.057809 -0.332539,0.072261 -0.513924,0.057809c-0.166269,-0.014452 -0.332539,-0.057809 -0.483693,-0.13007c-0.151154,-0.072261 -0.287193,-0.173427 -0.393,-0.303497z" fill="#E6E6E6" id="svg_3"/>
   <path d="m0.321355,506.616127c-0.120923,-0.115618 -0.1965,-0.26014 -0.256962,-0.419115c-0.045346,-0.158975 -0.075577,-0.317949 -0.060462,-0.476924c0.015115,-0.158975 0.060462,-0.317949 0.136039,-0.462472c0.090692,-0.144522 0.1965,-0.274593 0.317423,-0.39021l613.488846,-499.946295c0.256962,-0.216784 0.604616,-0.317949 0.95227,-0.289045c0.332539,0.028904 0.649962,0.173427 0.876693,0.433567c0.226731,0.245688 0.332539,0.57809 0.302308,0.896039c-0.015115,0.332401 -0.181385,0.635899 -0.438347,0.852682l-613.488846,499.946295c-0.136039,0.101166 -0.287193,0.187879 -0.453462,0.245688c-0.151154,0.043357 -0.332539,0.057809 -0.498808,0.043357c-0.166269,0 -0.332539,-0.057809 -0.483693,-0.13007c-0.151154,-0.072261 -0.287193,-0.173427 -0.393,-0.303497z" fill="#E6E6E6" id="svg_4"/>
   <path d="m235.229828,770.427293c-0.120923,-0.115618 -0.1965,-0.26014 -0.256962,-0.419115c-0.045346,-0.158975 -0.060462,-0.317949 -0.045346,-0.476924c0,-0.158975 0.060462,-0.317949 0.136039,-0.476924c0.075577,-0.144522 0.181385,-0.274593 0.302308,-0.375758l613.488846,-499.946295c0.272077,-0.216784 0.604616,-0.317949 0.95227,-0.289045c0.347654,0.014452 0.665078,0.173427 0.876693,0.433567c0.226731,0.245688 0.347654,0.563637 0.317423,0.896039c-0.030231,0.332401 -0.1965,0.635899 -0.453462,0.852682l-613.488846,499.946295c-0.136039,0.101166 -0.287193,0.187879 -0.438347,0.231236c-0.166269,0.057809 -0.332539,0.072261 -0.513924,0.057809c-0.166269,-0.014452 -0.332539,-0.057809 -0.483693,-0.13007c-0.151154,-0.072261 -0.287193,-0.173427 -0.393,-0.303497z" fill="#E6E6E6" id="svg_5"/>
   <path d="m717.260017,206.096274l-237.432744,0l0,-1.185084c0,-0.924943 -0.393,-1.820982 -1.073194,-2.471333c-0.680193,-0.650351 -1.617348,-1.026109 -2.584734,-1.026109l-100.366273,0c-0.967386,0 -1.889425,0.375758 -2.569618,1.026109c-0.695309,0.650351 -1.073194,1.54639 -1.073194,2.471333l0,1.185084l-238.415245,0c-4.262544,0 -8.343702,1.618651 -11.366783,4.509098c-3.007965,2.875996 -4.70089,6.7781 -4.70089,10.853631l0,311.041082c0,4.075531 1.692925,7.977636 4.70089,10.853631c3.023081,2.890448 7.104239,4.509098 11.366783,4.509098l583.515003,0c4.262544,0 8.343702,-1.618651 11.351667,-4.509098c3.023081,-2.875996 4.716006,-6.7781 4.716006,-10.853631l0,-311.041082c0,-4.075531 -1.692925,-7.977636 -4.716006,-10.853631c-3.007965,-2.890448 -7.089124,-4.509098 -11.351667,-4.509098z" fill="#3F3D56" id="svg_6"/>
   <path d="m146.51753,238.80169c-0.408116,0 -0.786001,0.144522 -1.058078,0.419115c-0.287193,0.274593 -0.453462,0.635899 -0.453462,1.011657l0,295.028002c0,0.375758 0.166269,0.737064 0.453462,1.011657c0.272077,0.274593 0.649962,0.419115 1.058078,0.419115l557.969972,0c0.393,0 0.786001,-0.144522 1.058078,-0.419115c0.287193,-0.274593 0.453462,-0.635899 0.453462,-1.011657l0,-295.028002c0,-0.375758 -0.166269,-0.737064 -0.453462,-1.011657c-0.272077,-0.274593 -0.665078,-0.419115 -1.058078,-0.419115l-557.969972,0z" fill="#3B5BCD" id="svg_7"/>
   <path d="m425.018823,224.826376c3.234696,0 5.864776,-2.51469 5.864776,-5.621921c0,-3.107231 -2.63008,-5.621921 -5.864776,-5.621921c-3.249812,0 -5.879892,2.51469 -5.879892,5.621921c0,3.107231 2.63008,5.621921 5.879892,5.621921z" fill="#6C63FF" id="svg_8"/>
   <path d="m744.01428,526.892618l-55.881643,0l0,-5.520755c0,-0.303497 -0.347654,-0.549185 -0.801116,-0.549185l-19.151215,0c-0.438347,0 -0.801116,0.245688 -0.801116,0.549185l0,5.520755l-11.971399,0l0,-5.520755c0,-0.303497 -0.36277,-0.549185 -0.801116,-0.549185l-19.151215,0c-0.438347,0 -0.801116,0.245688 -0.801116,0.549185l0,5.520755l-11.971399,0l0,-5.520755c0,-0.303497 -0.36277,-0.549185 -0.801116,-0.549185l-19.166331,0c-0.438347,0 -0.786001,0.245688 -0.786001,0.549185l0,5.520755l-11.986514,0l0,-5.520755c0,-0.303497 -0.347654,-0.549185 -0.786001,-0.549185l-19.166331,0c-0.438347,0 -0.801116,0.245688 -0.801116,0.549185l0,5.520755l-11.971399,0l0,-5.520755c0,-0.303497 -0.36277,-0.549185 -0.801116,-0.549185l-19.151215,0c-0.438347,0 -0.801116,0.245688 -0.801116,0.549185l0,5.520755l-11.971399,0l0,-5.520755c0,-0.303497 -0.36277,-0.549185 -0.801116,-0.549185l-19.166331,0c-0.438347,0 -0.786001,0.245688 -0.786001,0.549185l0,5.520755l-11.986514,0l0,-5.520755c0,-0.303497 -0.347654,-0.549185 -0.786001,-0.549185l-150.080833,0c-0.438347,0 -0.801116,0.245688 -0.801116,0.549185l0,5.520755l-11.971399,0l0,-5.520755c0,-0.303497 -0.36277,-0.549185 -0.801116,-0.549185l-19.151215,0c-0.453462,0 -0.801116,0.245688 -0.801116,0.549185l0,5.520755l-11.971399,0l0,-5.520755c0,-0.303497 -0.36277,-0.549185 -0.801116,-0.549185l-19.166331,0c-0.438347,0 -0.801116,0.245688 -0.801116,0.549185l0,5.520755l-11.971399,0l0,-5.520755c0,-0.303497 -0.347654,-0.549185 -0.801116,-0.549185l-19.151215,0c-0.438347,0 -0.801116,0.245688 -0.801116,0.549185l0,5.520755l-11.971399,0l0,-5.520755c0,-0.303497 -0.36277,-0.549185 -0.801116,-0.549185l-19.151215,0c-0.453462,0 -0.801116,0.245688 -0.801116,0.549185l0,5.520755l-11.971399,0l0,-5.520755c0,-0.303497 -0.36277,-0.549185 -0.801116,-0.549185l-19.166331,0c-0.438347,0 -0.786001,0.245688 -0.786001,0.549185l0,5.520755l-11.986514,0l0,-5.520755c0,-0.303497 -0.347654,-0.549185 -0.801116,-0.549185l-19.151215,0c-0.438347,0 -0.801116,0.245688 -0.801116,0.549185l0,5.520755l-36.715313,0c-10.580782,0 -19.166331,5.896513 -19.166331,13.180442l0,5.954322c0,7.283928 8.585549,13.180442 19.166331,13.180442l637.023528,0c10.580782,0 19.166331,-5.896513 19.166331,-13.180442l0,-5.954322c0,-7.283928 -8.585549,-13.180442 -19.166331,-13.180442z" fill="#3F3D56" id="svg_9"/>
   <path d="m360.536515,362.917517l-164.924158,0c-0.347654,0 -0.680193,-0.13007 -0.92204,-0.361306c-0.241846,-0.231236 -0.377885,-0.549185 -0.377885,-0.881587c0,-0.332401 0.136039,-0.650351 0.377885,-0.881587c0.241846,-0.231236 0.574385,-0.361306 0.92204,-0.361306l164.924158,0c0.347654,0 0.680193,0.13007 0.92204,0.361306c0.241846,0.231236 0.377885,0.549185 0.377885,0.881587c0,0.332401 -0.136039,0.650351 -0.377885,0.881587c-0.241846,0.231236 -0.574385,0.361306 -0.92204,0.361306z" fill="#F2F2F2" id="svg_10"/>
   <path d="m360.536515,390.2467l-164.924158,0c-0.347654,0 -0.680193,-0.13007 -0.92204,-0.361306c-0.241846,-0.231236 -0.377885,-0.549185 -0.377885,-0.881587c0,-0.332401 0.136039,-0.635899 0.377885,-0.881587c0.241846,-0.231236 0.574385,-0.361306 0.92204,-0.361306l164.924158,0c0.347654,0 0.680193,0.13007 0.92204,0.361306c0.241846,0.245688 0.377885,0.549185 0.377885,0.881587c0,0.332401 -0.136039,0.650351 -0.377885,0.881587c-0.241846,0.231236 -0.574385,0.361306 -0.92204,0.361306z" fill="#F2F2F2" id="svg_11"/>
   <path d="m360.536515,417.575884l-164.924158,0c-0.166269,0 -0.332539,-0.028904 -0.498808,-0.086713c-0.151154,-0.057809 -0.302308,-0.158975 -0.423231,-0.274593c-0.120923,-0.115618 -0.211616,-0.245688 -0.272077,-0.404663c-0.075577,-0.144522 -0.105808,-0.303497 -0.105808,-0.476924c0,-0.158975 0.030231,-0.317949 0.105808,-0.476924c0.060462,-0.144522 0.151154,-0.274593 0.272077,-0.39021c0.120923,-0.115618 0.272077,-0.216784 0.423231,-0.274593c0.166269,-0.057809 0.332539,-0.101166 0.498808,-0.101166l164.924158,0c0.166269,0 0.347654,0.043357 0.498808,0.101166c0.166269,0.057809 0.302308,0.158975 0.423231,0.274593c0.120923,0.115618 0.211616,0.245688 0.287193,0.39021c0.060462,0.158975 0.090692,0.317949 0.090692,0.476924c0,0.173427 -0.030231,0.332401 -0.090692,0.476924c-0.075577,0.158975 -0.166269,0.289045 -0.287193,0.404663c-0.120923,0.115618 -0.256962,0.216784 -0.423231,0.274593c-0.151154,0.057809 -0.332539,0.086713 -0.498808,0.086713z" fill="#F2F2F2" id="svg_12"/>
   <path d="m640.398195,291.480101l-203.891666,0c-2.146387,0 -3.899774,1.67646 -3.899774,3.728678l0,187.590059c0,2.06667 1.753387,3.728678 3.899774,3.728678l203.891666,0c2.146387,0 3.884658,-1.662007 3.884658,-3.728678l0,-187.590059c0,-2.052218 -1.738271,-3.728678 -3.884658,-3.728678z" fill="white" id="svg_13"/>
   <path d="m475.005459,394.712442c0.695309,-11.821931 5.758968,-23.007964 14.26894,-31.578142c8.525087,-8.58463 19.952331,-13.989767 32.256269,-15.247112c12.288822,-1.271797 24.668337,1.690912 34.901465,8.338942c10.218012,6.64803 17.65479,16.547813 20.965063,27.95063c0.634847,-0.014452 1.254578,-0.043357 1.904541,-0.043357c2.176618,0.028904 4.323005,0.375758 6.393815,1.040561c25.953146,8.151063 19.120984,45.235507 -8.207664,45.235507l-67.142618,0c-4.761352,0.014452 -9.462242,-0.896039 -13.830593,-2.659212c-4.383467,-1.763173 -8.328587,-4.364576 -11.63886,-7.61633c-3.310273,-3.266206 -5.879892,-7.139406 -7.587932,-11.373912c-1.70804,-4.248958 -2.494041,-8.772509 -2.327772,-13.310512c0.015115,-0.245688 0.030231,-0.491376 0.045346,-0.737064z" fill="#3B5BCD" id="svg_14"/>
   <path d="m536.207724,393.932021l0,-20.435466l-11.502821,0l0,20.435466l-9.190165,0l7.467009,12.371116l7.467009,12.371116l7.467009,-12.371116l7.467009,-12.371116l-9.175049,0z" fill="white" id="svg_15"/>
  </g>
 </g>
</svg>