<?xml version="1.0" encoding="utf-8"?>
<svg viewBox="-3473.907 1414.416 63.73 75.97" xmlns="http://www.w3.org/2000/svg">
  <defs>
    <clipPath id="clip26_0_1">
      <rect width="135" height="104" fill="white" transform="translate(2400 3998)"/>
    </clipPath>
  </defs>
  <g clip-path="url(#clip26_0_1)" transform="matrix(1, 0, 0, 1, -5903.937012, -2611.614258)">
    <path d="M2470.19 4070.02C2469.91 4069.97 2469.65 4069.86 2469.42 4069.7C2469.19 4069.54 2469 4069.34 2468.86 4069.09C2468.72 4068.85 2468.63 4068.58 2468.61 4068.3C2468.58 4068.02 2468.62 4067.74 2468.71 4067.48L2460.32 4052.95L2464.29 4051.7L2471.3 4066.36C2471.73 4066.55 2472.07 4066.89 2472.27 4067.32C2472.47 4067.75 2472.5 4068.23 2472.36 4068.68C2472.23 4069.13 2471.93 4069.52 2471.53 4069.76C2471.13 4070.01 2470.65 4070.1 2470.19 4070.02Z" fill="#FFB8B8"/>
    <path d="M2460.62 4055.3C2460.5 4055.28 2460.38 4055.23 2460.29 4055.16C2460.19 4055.08 2460.11 4054.99 2460.05 4054.88L2457.84 4050.51C2457.75 4050.34 2457.73 4050.15 2457.77 4049.97C2457.81 4049.78 2457.92 4049.62 2458.06 4049.51L2460.43 4047.68C2460.59 4047.56 2460.77 4047.5 2460.96 4047.51C2461.15 4047.52 2461.34 4047.6 2461.47 4047.74L2464.76 4050.86C2464.84 4050.94 2464.9 4051.03 2464.95 4051.13C2464.99 4051.24 2465.01 4051.35 2465.01 4051.46C2465.01 4051.57 2464.98 4051.68 2464.94 4051.78C2464.89 4051.88 2464.82 4051.97 2464.74 4052.04L2461.3 4055.11C2461.21 4055.19 2461.1 4055.25 2460.98 4055.29C2460.86 4055.32 2460.74 4055.33 2460.62 4055.3Z" fill="#6C63FF"/>
    <path d="M2430.2 4101.99H2493.59C2493.64 4101.99 2493.68 4101.97 2493.71 4101.94C2493.74 4101.91 2493.76 4101.86 2493.76 4101.82C2493.76 4101.78 2493.74 4101.73 2493.71 4101.7C2493.68 4101.67 2493.64 4101.65 2493.59 4101.65H2430.2C2430.16 4101.65 2430.11 4101.67 2430.08 4101.7C2430.05 4101.73 2430.03 4101.78 2430.03 4101.82C2430.03 4101.86 2430.05 4101.91 2430.08 4101.94C2430.11 4101.97 2430.16 4101.99 2430.2 4101.99Z" fill="#3F3D56"/>
    <path d="M2460.21 4056.35C2460.09 4056.33 2459.98 4056.27 2459.88 4056.2C2459.78 4056.12 2459.71 4056.02 2459.65 4055.91L2457.56 4051.48C2457.48 4051.31 2457.46 4051.12 2457.51 4050.94C2457.56 4050.76 2457.66 4050.6 2457.82 4050.49L2460.23 4048.73C2460.39 4048.62 2460.58 4048.56 2460.77 4048.58C2460.96 4048.59 2461.14 4048.68 2461.27 4048.81L2464.47 4052.03C2464.55 4052.11 2464.61 4052.2 2464.65 4052.31C2464.69 4052.41 2464.71 4052.52 2464.7 4052.63C2464.7 4052.74 2464.67 4052.85 2464.62 4052.95C2464.57 4053.05 2464.5 4053.14 2464.42 4053.21L2460.89 4056.18C2460.8 4056.26 2460.69 4056.32 2460.57 4056.35C2460.45 4056.38 2460.33 4056.38 2460.21 4056.35Z" fill="#6C63FF"/>
    <path d="M2446.95 4098.36L2449.06 4098.94L2452.27 4091.08L2449.16 4090.23L2446.95 4098.36Z" fill="#FFB8B8"/>
    <path d="M2452.58 4102L2445.97 4100.2L2446.66 4097.64L2450.89 4098.79C2451.52 4098.96 2452.06 4099.38 2452.39 4099.95C2452.72 4100.52 2452.8 4101.2 2452.63 4101.83L2452.58 4102Z" fill="#2F2E41"/>
    <path d="M2464.95 4099.97L2467.13 4099.97L2468.17 4091.54L2464.95 4091.54L2464.95 4099.97Z" fill="#FFB8B8"/>
    <path d="M2471.34 4102L2464.48 4102L2464.48 4099.35L2468.86 4099.35C2469.52 4099.35 2470.15 4099.61 2470.61 4100.07C2471.08 4100.54 2471.34 4101.17 2471.34 4101.83L2471.34 4102Z" fill="#2F2E41"/>
    <path d="M2464.75 4043.04C2466.46 4041.34 2466.46 4038.56 2464.75 4036.85C2463.05 4035.14 2460.28 4035.14 2458.57 4036.85C2456.86 4038.56 2456.86 4041.34 2458.57 4043.04C2460.28 4044.75 2463.05 4044.75 2464.75 4043.04Z" fill="#FFB8B8"/>
    <path d="M2464.29 4093.27L2461.85 4075.38C2461.83 4075.24 2461.77 4075.12 2461.67 4075.03C2461.58 4074.93 2461.46 4074.87 2461.33 4074.85C2461.19 4074.83 2461.06 4074.85 2460.94 4074.91C2460.82 4074.97 2460.73 4075.07 2460.67 4075.19L2452.35 4092.46C2452.27 4092.64 2452.12 4092.77 2451.95 4092.85C2451.77 4092.93 2451.57 4092.94 2451.39 4092.88L2448.18 4091.85C2447.98 4091.79 2447.82 4091.65 2447.72 4091.47C2447.62 4091.28 2447.6 4091.07 2447.66 4090.87C2451.55 4077.09 2454.92 4066.83 2458.67 4061.59C2458.69 4061.57 2458.7 4061.55 2458.72 4061.53L2459.55 4060.56C2459.63 4060.47 2459.72 4060.4 2459.83 4060.35C2459.93 4060.3 2460.05 4060.28 2460.16 4060.28H2466.29C2466.45 4060.28 2466.61 4060.33 2466.74 4060.42C2466.87 4060.51 2466.98 4060.63 2467.04 4060.78L2467.19 4061.18C2467.21 4061.21 2467.22 4061.25 2467.23 4061.28C2469.23 4068.92 2469.75 4079.07 2468.86 4093.21C2468.85 4093.41 2468.76 4093.6 2468.61 4093.74C2468.46 4093.88 2468.27 4093.96 2468.06 4093.96H2465.08C2464.89 4093.96 2464.7 4093.89 2464.56 4093.76C2464.41 4093.64 2464.31 4093.46 2464.29 4093.27Z" fill="#2F2E41"/>
    <path d="M2458.38 4061.23C2457.49 4059.81 2453.28 4052.5 2457.06 4047.54C2457.13 4047.46 2457.17 4047.35 2457.19 4047.24L2457.34 4046.09C2457.35 4045.98 2457.39 4045.88 2457.44 4045.79C2457.5 4045.69 2457.57 4045.61 2457.66 4045.55C2457.75 4045.48 2457.85 4045.44 2457.95 4045.41C2458.06 4045.39 2458.17 4045.39 2458.27 4045.4C2459.59 4045.64 2462.07 4046.4 2463.88 4048.75C2463.97 4048.87 2464.02 4049 2464.04 4049.14L2464.14 4049.94C2464.15 4050.05 2464.19 4050.15 2464.25 4050.23C2464.32 4050.32 2464.4 4050.39 2464.5 4050.43C2465.65 4050.96 2468.24 4053.01 2467.3 4060.66C2467.28 4060.85 2467.19 4061.03 2467.04 4061.16C2466.9 4061.29 2466.72 4061.36 2466.53 4061.37L2459.08 4061.6C2459.07 4061.6 2459.06 4061.6 2459.06 4061.6C2458.92 4061.6 2458.79 4061.57 2458.67 4061.5C2458.55 4061.44 2458.45 4061.34 2458.38 4061.23Z" fill="#3B5BCD"/>
    <path d="M2455.36 4072.96C2455.17 4072.75 2455.03 4072.5 2454.94 4072.24C2454.86 4071.97 2454.83 4071.69 2454.87 4071.41C2454.91 4071.13 2455 4070.87 2455.15 4070.63C2455.3 4070.4 2455.5 4070.2 2455.74 4070.04L2457.96 4053.41L2461.87 4054.84L2458.47 4070.74C2458.69 4071.15 2458.76 4071.63 2458.65 4072.09C2458.55 4072.55 2458.28 4072.96 2457.9 4073.23C2457.51 4073.5 2457.04 4073.63 2456.57 4073.58C2456.11 4073.53 2455.67 4073.3 2455.36 4072.96Z" fill="#FFB8B8"/>
    <path d="M2456.76 4055.45C2456.68 4055.36 2456.62 4055.25 2456.59 4055.13C2456.55 4055.01 2456.55 4054.89 2456.57 4054.77L2457.49 4049.95C2457.52 4049.77 2457.62 4049.6 2457.76 4049.48C2457.91 4049.37 2458.09 4049.3 2458.28 4049.3L2461.26 4049.31C2461.46 4049.31 2461.64 4049.37 2461.79 4049.5C2461.93 4049.62 2462.03 4049.8 2462.05 4049.99L2462.75 4054.47C2462.76 4054.58 2462.76 4054.69 2462.73 4054.8C2462.7 4054.91 2462.65 4055.01 2462.58 4055.09C2462.51 4055.18 2462.43 4055.25 2462.33 4055.3C2462.23 4055.36 2462.12 4055.39 2462.01 4055.39L2457.42 4055.72C2457.29 4055.73 2457.17 4055.71 2457.06 4055.66C2456.94 4055.62 2456.84 4055.54 2456.76 4055.45Z" fill="#3B5BCD"/>
    <path d="M2456.85 4037.23C2457.18 4036.24 2457.42 4035.23 2457.57 4034.2C2457.62 4033.61 2457.46 4032.96 2457.03 4032.55C2456.22 4031.78 2454.83 4032.15 2453.98 4032.88C2452.75 4033.93 2452.14 4035.55 2451.91 4037.16C2451.68 4038.76 2451.78 4040.4 2451.72 4042.02C2451.67 4043.64 2451.44 4045.3 2450.61 4046.7C2449.79 4048.09 2448.26 4049.17 2446.64 4049.05C2445.99 4049.01 2445.37 4048.75 2444.89 4048.3C2444.66 4048.08 2444.48 4047.8 2444.37 4047.5C2444.27 4047.19 2444.24 4046.86 2444.28 4046.54C2443.46 4048.02 2443.88 4050.03 2445.11 4051.19C2446.34 4052.35 2448.23 4052.68 2449.85 4052.19C2451.47 4051.69 2452.8 4050.44 2453.6 4048.95C2454.39 4047.45 2454.68 4045.72 2454.64 4044.03C2454.61 4042.73 2454.39 4041.41 2454.61 4040.13C2454.83 4038.85 2455.63 4037.54 2456.89 4037.24L2456.85 4037.23Z" fill="#2F2E41"/>
    <path d="M2460.94 4044.02C2460.77 4043.75 2460.66 4043.44 2460.61 4043.12C2460.57 4042.8 2460.6 4042.48 2460.69 4042.17C2460.78 4041.86 2460.94 4041.58 2461.16 4041.34C2461.37 4041.09 2461.63 4040.9 2461.93 4040.77C2462.72 4040.42 2463.64 4040.55 2464.49 4040.39C2466.01 4040.09 2467.26 4038.7 2467.35 4037.14C2467.44 4035.59 2466.33 4034.04 2464.82 4033.68C2464.21 4033.54 2463.58 4033.57 2462.97 4033.61C2462.37 4033.64 2461.78 4033.67 2461.19 4033.74C2460.02 4033.88 2458.83 4034.16 2457.86 4034.82C2456.89 4035.49 2456.15 4036.58 2456.16 4037.76C2456.18 4039.11 2456.81 4041.79 2457.69 4042.8C2458.54 4043.78 2459.19 4044.14 2460.54 4044.2L2460.94 4044.02Z" fill="#2F2E41"/>
    <path d="M2477.37 4060.17H2475.32V4058.11C2475.32 4058.04 2475.29 4057.98 2475.25 4057.93C2475.2 4057.89 2475.14 4057.86 2475.07 4057.86C2475 4057.86 2474.94 4057.89 2474.89 4057.93C2474.85 4057.98 2474.82 4058.04 2474.82 4058.11V4060.17H2472.77C2472.7 4060.17 2472.64 4060.19 2472.59 4060.24C2472.54 4060.29 2472.52 4060.35 2472.52 4060.42C2472.52 4060.48 2472.54 4060.55 2472.59 4060.59C2472.64 4060.64 2472.7 4060.67 2472.77 4060.67H2474.82V4062.72C2474.82 4062.79 2474.85 4062.85 2474.89 4062.9C2474.94 4062.95 2475 4062.97 2475.07 4062.97C2475.14 4062.97 2475.2 4062.95 2475.25 4062.9C2475.29 4062.85 2475.32 4062.79 2475.32 4062.72V4060.67H2477.37C2477.44 4060.67 2477.5 4060.64 2477.55 4060.59C2477.6 4060.55 2477.62 4060.48 2477.62 4060.42C2477.62 4060.35 2477.6 4060.29 2477.55 4060.24C2477.5 4060.19 2477.44 4060.17 2477.37 4060.17Z" fill="#3B5BCD"/>
    <path d="M2471.55 4028.34H2469.5V4026.28C2469.5 4026.21 2469.47 4026.15 2469.42 4026.1C2469.38 4026.06 2469.31 4026.03 2469.25 4026.03C2469.18 4026.03 2469.12 4026.06 2469.07 4026.1C2469.02 4026.15 2469 4026.21 2469 4026.28V4028.34H2466.94C2466.88 4028.34 2466.81 4028.36 2466.77 4028.41C2466.72 4028.46 2466.7 4028.52 2466.7 4028.59C2466.7 4028.65 2466.72 4028.72 2466.77 4028.76C2466.81 4028.81 2466.88 4028.84 2466.94 4028.84H2469V4030.89C2469 4030.96 2469.02 4031.02 2469.07 4031.07C2469.12 4031.12 2469.18 4031.14 2469.25 4031.14C2469.31 4031.14 2469.38 4031.12 2469.42 4031.07C2469.47 4031.02 2469.5 4030.96 2469.5 4030.89V4028.84H2471.55C2471.62 4028.84 2471.68 4028.81 2471.73 4028.76C2471.77 4028.72 2471.8 4028.65 2471.8 4028.59C2471.8 4028.52 2471.77 4028.46 2471.73 4028.41C2471.68 4028.36 2471.62 4028.34 2471.55 4028.34Z" fill="#3B5BCD"/>
    <path d="M2444.93 4037.67H2442.87V4035.61C2442.87 4035.55 2442.85 4035.48 2442.8 4035.44C2442.75 4035.39 2442.69 4035.36 2442.62 4035.36C2442.56 4035.36 2442.5 4035.39 2442.45 4035.44C2442.4 4035.48 2442.38 4035.55 2442.38 4035.61V4037.67H2440.32C2440.26 4037.67 2440.19 4037.69 2440.15 4037.74C2440.1 4037.79 2440.07 4037.85 2440.07 4037.92C2440.07 4037.98 2440.1 4038.05 2440.15 4038.1C2440.19 4038.14 2440.26 4038.17 2440.32 4038.17H2442.38V4040.22C2442.38 4040.29 2442.4 4040.35 2442.45 4040.4C2442.5 4040.45 2442.56 4040.47 2442.62 4040.47C2442.69 4040.47 2442.75 4040.45 2442.8 4040.4C2442.85 4040.35 2442.87 4040.29 2442.87 4040.22V4038.17H2444.93C2444.99 4038.17 2445.06 4038.14 2445.1 4038.1C2445.15 4038.05 2445.18 4037.98 2445.18 4037.92C2445.18 4037.85 2445.15 4037.79 2445.1 4037.74C2445.06 4037.69 2444.99 4037.67 2444.93 4037.67Z" fill="#3B5BCD"/>
  </g>
</svg>