<?xml version="1.0" encoding="utf-8"?>
<svg viewBox="-3774.936 1412.386 55.997 76.997" xmlns="http://www.w3.org/2000/svg">
  <defs>
    <clipPath id="clip30_0_1">
      <rect width="56" height="77" fill="white" transform="matrix(-1 0 0 1 2185 4024)"/>
    </clipPath>
  </defs>
  <g clip-path="url(#clip30_0_1)" transform="matrix(1, 0, 0, 1, -5903.937012, -2611.614258)">
    <path d="M2161.52 4097.06C2161.54 4097.25 2161.54 4097.44 2161.52 4097.61L2151.6 4097.22C2151.52 4097.04 2151.45 4096.86 2151.39 4096.66C2150.32 4093.21 2152.54 4087.61 2150.36 4079.1C2148.74 4072.78 2145.44 4067.76 2143.9 4065.42C2142 4062.54 2139.83 4059.87 2137.37 4055.64C2136.83 4054.73 2136.29 4053.74 2135.72 4052.66C2135.53 4052.3 2133.35 4048.11 2133.57 4047.99C2133.67 4047.93 2134.26 4048.78 2134.46 4049.07C2136.22 4051.6 2137.25 4052.72 2138.72 4054.55C2139.62 4055.66 2140.67 4057.02 2142.15 4059.13C2145.92 4064.52 2147.81 4067.21 2148.42 4069.2C2148.59 4069.73 2149.45 4072.6 2151.15 4076.18C2152.02 4078.01 2152.45 4078.92 2152.71 4078.86C2153.45 4078.68 2152.77 4071.23 2149.99 4063.69C2149.51 4062.41 2149.15 4061.59 2148.46 4060.03C2147.35 4057.49 2141.15 4043.38 2136.51 4034.9C2135.93 4033.83 2135.37 4032.86 2134.85 4032C2134.75 4031.84 2134.65 4031.68 2134.56 4031.53C2133.91 4030.49 2133.33 4029.67 2132.84 4029.13C2132.58 4028.85 2131.92 4028.04 2130.61 4026.43C2130.08 4025.78 2129.7 4025.31 2129.44 4024.96C2129.41 4024.91 2129.37 4024.86 2129.34 4024.81C2129.03 4024.38 2128.95 4024.18 2129.03 4024.07C2129.15 4023.92 2129.57 4024.03 2130.02 4024.21C2130.07 4024.22 2130.13 4024.25 2130.17 4024.27C2130.67 4024.47 2131.17 4024.73 2131.34 4024.82C2132.87 4025.61 2134.34 4026.99 2135.69 4028.61C2136.19 4029.21 2136.67 4029.84 2137.13 4030.49C2138.62 4032.58 2139.9 4034.84 2140.86 4036.69C2142.04 4038.98 2142.73 4040.65 2142.73 4040.65C2145.96 4048.45 2149.54 4057.37 2149.75 4057.3C2149.98 4057.23 2146.06 4046.15 2145.04 4040.18C2144.69 4038.17 2144.68 4036.75 2145.24 4036.49C2145.26 4036.48 2145.29 4036.48 2145.31 4036.47C2145.4 4036.44 2145.48 4036.45 2145.52 4036.46C2145.52 4036.46 2146.04 4036.41 2146.58 4036.55C2147.25 4036.72 2147.95 4038.59 2148.59 4041.22C2150.27 4047.97 2151.66 4059.67 2151.66 4059.67C2153.04 4071.36 2155.47 4080.88 2156.14 4080.8C2156.52 4080.75 2156.11 4077.81 2156.8 4072.96C2157.29 4069.56 2157.67 4069.68 2159.19 4063.56C2161.59 4053.85 2162.79 4048.99 2162.8 4048.97C2162.79 4048.76 2162.78 4048.35 2162.87 4047.92C2162.95 4047.45 2163.14 4046.97 2163.56 4046.71C2164.19 4046.31 2165.17 4046.53 2165.56 4046.78C2165.87 4046.99 2166.02 4047.36 2166.04 4047.88C2166.13 4051.14 2160.97 4060.37 2158.8 4073.04C2157.72 4079.36 2157.13 4082.8 2158.21 4087.43C2159.29 4092.01 2161.36 4094.99 2161.52 4097.06Z" fill="#F2F2F2"/>
    <path d="M2169.4 4069.36C2169.4 4069.36 2169.47 4084.42 2175.21 4081.89C2178.19 4080.58 2182.6 4075.02 2182.6 4075.02L2180.78 4073.32L2175.81 4077.38L2174.88 4069.3L2169.4 4069.36Z" fill="#FFB6B6"/>
    <path d="M2166.98 4060.99C2166.98 4060.99 2170.78 4059.94 2172.84 4062.83C2174.89 4065.73 2175.94 4076.49 2175.94 4076.49L2170.51 4079.14L2166.98 4060.99Z" fill="#E6E6E6"/>
    <path d="M2163.19 4043.99C2164.36 4044.37 2165.75 4041.92 2166.32 4042.92C2166.9 4043.92 2166.66 4048.36 2166.33 4049.47C2166.17 4050.02 2165.9 4050.55 2165.75 4051.1C2165.59 4051.65 2165.56 4052.26 2165.86 4052.75C2166.39 4053.61 2167.67 4053.78 2168.41 4054.48C2169.28 4055.3 2169.2 4056.61 2169.05 4057.75C2168.93 4058.74 2168.78 4059.73 2168.37 4060.66C2167.96 4061.59 2167.26 4062.45 2166.27 4062.89C2165.01 4063.46 2163.53 4063.26 2162.18 4062.99C2160.89 4062.73 2159.59 4062.41 2158.43 4061.84C2157.27 4061.27 2156.24 4060.43 2155.68 4059.34C2154.99 4057.97 2155.11 4056.33 2155.67 4054.89C2156.24 4053.45 2157.23 4052.16 2158.25 4050.94C2159.97 4048.87 2161.85 4046.9 2163.85 4045.06" fill="#2F2E41"/>
    <path d="M2146.36 4069L2143.95 4077.93L2138.1 4094.9L2141.15 4096.59L2148.8 4079.7L2150.74 4070.69L2146.36 4069Z" fill="#FFB6B6"/>
    <path d="M2157.99 4056.27L2164.83 4056.02L2165.48 4058.42L2171.03 4061.57L2170.45 4081.12L2153.27 4082.64L2150.8 4069.33L2150.17 4061.78L2157.4 4058.74L2157.99 4056.27Z" fill="#E6E6E6"/>
    <path d="M2154.45 4063.08C2154.45 4063.08 2151.33 4060.08 2148.96 4062.17C2146.59 4064.26 2143.75 4078.11 2143.75 4078.11L2148.77 4080.53L2154.45 4063.08Z" fill="#E6E6E6"/>
    <path d="M2154.17 4064.94C2154.17 4064.94 2157.02 4064.81 2159.34 4065.44C2161.67 4066.08 2168.25 4064.68 2168.25 4064.68C2166.67 4069.98 2167.72 4075.51 2170.39 4081.19C2173.9 4085.41 2169.95 4093.43 2176 4097.69H2150.8L2151.72 4086.81L2153.14 4082.77C2153.14 4082.77 2152.37 4082.01 2152.62 4081.76C2152.88 4081.5 2156.11 4069.24 2154.17 4064.94Z" fill="#3B5BCD"/>
    <path d="M2166.45 4058.23L2168 4065.95L2165.8 4066.58L2166.32 4063.8L2165.54 4057.86L2166.45 4058.23Z" fill="#3F3D56"/>
    <path d="M2157.27 4058.11L2156.4 4068.41L2155.21 4068.35L2155.98 4058.61L2157.27 4058.11Z" fill="#3F3D56"/>
    <path d="M2152.48 4082.77C2152.48 4082.77 2159.41 4084.6 2165.22 4083.97L2170.6 4080.52L2170.84 4081.12C2170.84 4081.12 2166.17 4086.85 2162.69 4086.52C2159.21 4086.18 2152.11 4084.16 2152.11 4083.65C2152.11 4083.15 2152.48 4082.77 2152.48 4082.77Z" fill="#3F3D56"/>
    <path d="M2181.18 4074.9C2180.41 4074.32 2180.53 4072.91 2181.44 4071.74C2182.36 4070.57 2183.72 4070.09 2184.49 4070.67C2185.26 4071.25 2185.14 4072.66 2184.23 4073.83C2183.32 4075 2181.95 4075.48 2181.18 4074.9Z" fill="#FFB6B6"/>
    <path d="M2137.52 4099.61C2136.5 4099.12 2136.31 4097.47 2137.08 4095.93C2137.85 4094.39 2139.3 4093.53 2140.32 4094.02C2141.33 4094.51 2141.53 4096.15 2140.76 4097.7C2139.99 4099.24 2138.54 4100.09 2137.52 4099.61Z" fill="#FFB6B6"/>
    <path d="M2160.88 4054.23C2157.72 4054.23 2155.16 4051.72 2155.16 4048.63C2155.16 4045.53 2157.72 4043.03 2160.88 4043.03C2164.04 4043.03 2166.6 4045.53 2166.6 4048.63C2166.6 4051.72 2164.04 4054.23 2160.88 4054.23Z" fill="#FFB6B6"/>
    <path d="M2159.34 4053.99L2159.41 4052.1C2159.41 4052.1 2162.86 4044.35 2165.32 4045.3L2166.52 4047.44C2166.52 4047.44 2167.49 4046.83 2166.5 4045.49C2165.51 4044.15 2166.42 4044.53 2166.42 4044.53C2166.42 4044.53 2167.66 4043.73 2166.17 4043.06C2164.68 4042.4 2163.72 4040.31 2160.75 4042.73C2159.1 4044.08 2157.26 4046.25 2155.95 4047.9C2154.48 4049.77 2155.02 4052.53 2157.15 4053.62C2157.78 4053.95 2158.52 4054.12 2159.34 4053.99Z" fill="#2F2E41"/>
    <path d="M2156.68 4062.64C2158.39 4064.74 2159.54 4067.49 2159.91 4070.33C2161.25 4069.2 2161.94 4067.16 2161.95 4065.1C2161.96 4063.05 2161.35 4060.99 2160.48 4059.15C2160.47 4059.13 2160.46 4059.11 2160.45 4059.1C2159.13 4056.34 2159.37 4052.98 2161.09 4050.86C2162.25 4049.42 2163.18 4047.71 2163.8 4045.82C2164.14 4044.75 2164.37 4043.45 2163.81 4042.44C2163.29 4041.51 2162.3 4041.19 2161.41 4041.02C2159.38 4040.62 2157.28 4040.55 2155.39 4041.31C2153.49 4042.07 2151.83 4043.77 2151.27 4046.09C2150.7 4048.42 2151.44 4051.36 2153.22 4052.73C2152.78 4053 2152.54 4053.67 2152.69 4054.28C2152.83 4054.89 2153.34 4055.37 2153.85 4055.38C2153.52 4055.42 2153.42 4055.97 2153.59 4056.32C2153.77 4056.68 2154.11 4056.86 2154.42 4057C2154.87 4057.21 2155.36 4057.43 2155.49 4058.14C2155.53 4058.42 2155.5 4058.71 2155.4 4058.97C2155.17 4059.58 2154.68 4059.92 2154.21 4060.24C2155.35 4060.46 2156.41 4061.51 2156.83 4062.84" fill="#2F2E41"/>
    <path d="M2152.97 4084.05C2152.21 4084.99 2152.2 4086.39 2151.19 4087.16C2150.77 4087.48 2150.16 4087.65 2149.64 4087.47C2149.13 4087.28 2148.84 4086.82 2148.78 4086.3C2148.72 4085.75 2148.95 4085.22 2149.29 4084.8C2149.65 4084.33 2150.12 4083.89 2150.62 4083.58C2151.09 4083.29 2151.66 4083.14 2152.2 4083.31C2152.74 4083.49 2153.07 4083.92 2153.08 4084.48C2153.09 4084.87 2153.03 4085.27 2153.01 4085.66L2152.92 4086.85L2152.73 4089.29C2152.71 4089.53 2152.33 4089.53 2152.35 4089.29L2152.63 4085.47C2152.65 4085.17 2152.69 4084.87 2152.69 4084.57C2152.7 4084.32 2152.66 4084.08 2152.47 4083.9C2152.16 4083.59 2151.65 4083.56 2151.25 4083.7C2150.74 4083.87 2150.33 4084.26 2149.96 4084.62C2149.6 4084.97 2149.25 4085.4 2149.17 4085.91C2149.11 4086.32 2149.23 4086.8 2149.6 4087.03C2150.02 4087.28 2150.57 4087.15 2150.93 4086.88C2151.41 4086.52 2151.66 4085.94 2151.87 4085.41C2152.1 4084.84 2152.31 4084.27 2152.7 4083.78C2152.85 4083.59 2153.13 4083.86 2152.97 4084.05Z" fill="#3F3D56"/>
    <path d="M2153.07 4083.66C2153.41 4084.08 2153.62 4084.58 2153.82 4085.08C2154.01 4085.57 2154.2 4086.09 2154.56 4086.49C2154.87 4086.84 2155.33 4087.1 2155.82 4087.03C2156.29 4086.96 2156.57 4086.55 2156.6 4086.11C2156.64 4085.62 2156.4 4085.17 2156.09 4084.8C2155.75 4084.4 2155.34 4084.01 2154.88 4083.74C2154.48 4083.51 2154 4083.39 2153.56 4083.59C2153.37 4083.68 2153.2 4083.83 2153.13 4084.02C2153.03 4084.29 2153.08 4084.6 2153.1 4084.88C2153.21 4086.31 2153.31 4087.73 2153.42 4089.16C2153.44 4089.41 2153.05 4089.41 2153.03 4089.16C2152.92 4087.72 2152.82 4086.29 2152.71 4084.85C2152.68 4084.53 2152.65 4084.2 2152.76 4083.89C2152.85 4083.66 2153.02 4083.47 2153.23 4083.34C2153.69 4083.05 2154.26 4083.05 2154.75 4083.25C2155.3 4083.47 2155.77 4083.9 2156.17 4084.32C2156.57 4084.73 2156.91 4085.22 2156.98 4085.8C2157.04 4086.29 2156.88 4086.84 2156.47 4087.15C2156.02 4087.49 2155.42 4087.47 2154.93 4087.24C2153.59 4086.64 2153.61 4084.94 2152.79 4083.92C2152.64 4083.73 2152.91 4083.46 2153.07 4083.66Z" fill="#3F3D56"/>
    <path d="M2176.2 4067.01C2176.2 4067.01 2179.13 4069.73 2184.06 4067.01L2183.29 4076.07C2183.29 4076.07 2183.22 4076.09 2183.09 4076.12C2183.01 4076.44 2182.76 4076.7 2182.43 4076.81C2181.35 4077.14 2179.29 4077.59 2177.89 4076.73C2177.6 4076.55 2177.43 4076.23 2177.43 4075.9V4075.87C2177.32 4075.79 2177.22 4075.71 2177.12 4075.62L2176.2 4067.01Z" fill="#3F3D56"/>
    <path d="M2180.13 4068.37C2177.96 4068.37 2176.2 4067.76 2176.2 4067.01C2176.2 4066.26 2177.96 4065.66 2180.13 4065.66C2182.3 4065.66 2184.06 4066.26 2184.06 4067.01C2184.06 4067.76 2182.3 4068.37 2180.13 4068.37Z" fill="#3B5BCD"/>
    <path d="M2182.29 4067.17C2182.07 4067.17 2181.9 4067.03 2181.9 4066.86C2181.9 4066.7 2182.07 4066.56 2182.29 4066.56C2182.5 4066.56 2182.67 4066.7 2182.67 4066.86C2182.67 4067.03 2182.5 4067.17 2182.29 4067.17Z" fill="#3F3D56"/>
    <path d="M2178.43 4067.17C2178.22 4067.17 2178.05 4067.03 2178.05 4066.86C2178.05 4066.7 2178.22 4066.56 2178.43 4066.56C2178.65 4066.56 2178.82 4066.7 2178.82 4066.86C2178.82 4067.03 2178.65 4067.17 2178.43 4067.17Z" fill="#3F3D56"/>
    <path d="M2179.74 4065.39C2179.74 4065.62 2179.98 4065.81 2180.28 4065.81C2180.58 4065.81 2180.82 4065.62 2180.82 4065.39C2180.82 4065.15 2180.23 4064.68 2180.28 4064.96C2180.36 4065.36 2179.74 4065.15 2179.74 4065.39Z" fill="#3F3D56"/>
    <path d="M2177.89 4066.44C2177.89 4066.67 2178.14 4066.86 2178.43 4066.86C2178.73 4066.86 2178.97 4066.67 2178.97 4066.44C2178.97 4066.21 2178.38 4065.73 2178.43 4066.02C2178.51 4066.41 2177.89 4066.21 2177.89 4066.44Z" fill="#3F3D56"/>
    <path d="M2178.97 4066.89C2178.97 4067.13 2179.21 4067.32 2179.51 4067.32C2179.81 4067.32 2180.05 4067.13 2180.05 4066.89C2180.05 4066.66 2179.46 4066.19 2179.51 4066.47C2179.59 4066.86 2178.97 4066.66 2178.97 4066.89Z" fill="#3F3D56"/>
    <path d="M2180.36 4067.04C2180.36 4067.28 2180.6 4067.47 2180.9 4067.47C2181.2 4067.47 2181.44 4067.28 2181.44 4067.04C2181.44 4066.81 2180.84 4066.34 2180.9 4066.62C2180.98 4067.01 2180.36 4066.81 2180.36 4067.04Z" fill="#3F3D56"/>
    <path d="M2181.75 4066.59C2181.75 4066.83 2181.99 4067.01 2182.29 4067.01C2182.58 4067.01 2182.83 4066.83 2182.83 4066.59C2182.83 4066.36 2182.23 4065.88 2182.29 4066.17C2182.36 4066.56 2181.75 4066.36 2181.75 4066.59Z" fill="#3F3D56"/>
    <path d="M2181.21 4067.77C2180.99 4067.77 2180.82 4067.63 2180.82 4067.47C2180.82 4067.3 2180.99 4067.17 2181.21 4067.17C2181.42 4067.17 2181.59 4067.3 2181.59 4067.47C2181.59 4067.63 2181.42 4067.77 2181.21 4067.77Z" fill="#3F3D56"/>
    <path d="M2179.36 4067.77C2179.15 4067.77 2178.97 4067.63 2178.97 4067.47C2178.97 4067.3 2179.15 4067.17 2179.36 4067.17C2179.57 4067.17 2179.74 4067.3 2179.74 4067.47C2179.74 4067.63 2179.57 4067.77 2179.36 4067.77Z" fill="#3F3D56"/>
    <path d="M2179.18 4066.29C2179.18 4066.69 2180.1 4066.51 2180.1 4067.01C2180.09 4068.81 2180.9 4067.12 2181.03 4066.29C2181.09 4065.89 2180.61 4065.57 2180.1 4065.57C2179.59 4065.57 2179.18 4065.89 2179.18 4066.29Z" fill="#3F3D56"/>
    <path d="M2138.48 4090.79C2138.48 4090.79 2141.41 4093.51 2146.34 4090.79L2145.57 4099.84C2145.57 4099.84 2145.5 4099.86 2145.38 4099.9C2145.29 4100.22 2145.04 4100.48 2144.71 4100.58C2143.64 4100.91 2141.57 4101.36 2140.18 4100.5C2139.88 4100.33 2139.71 4100.01 2139.71 4099.67V4099.64C2139.6 4099.57 2139.5 4099.48 2139.4 4099.39L2138.48 4090.79Z" fill="#3F3D56"/>
    <path d="M2142.41 4092.15C2140.24 4092.15 2138.48 4091.54 2138.48 4090.79C2138.48 4090.04 2140.24 4089.43 2142.41 4089.43C2144.58 4089.43 2146.34 4090.04 2146.34 4090.79C2146.34 4091.54 2144.58 4092.15 2142.41 4092.15Z" fill="#3B5BCD"/>
    <path d="M2144.57 4090.94C2144.35 4090.94 2144.18 4090.81 2144.18 4090.64C2144.18 4090.47 2144.35 4090.34 2144.57 4090.34C2144.78 4090.34 2144.95 4090.47 2144.95 4090.64C2144.95 4090.81 2144.78 4090.94 2144.57 4090.94Z" fill="#3F3D56"/>
    <path d="M2140.71 4090.94C2140.5 4090.94 2140.33 4090.81 2140.33 4090.64C2140.33 4090.47 2140.5 4090.34 2140.71 4090.34C2140.93 4090.34 2141.1 4090.47 2141.1 4090.64C2141.1 4090.81 2140.93 4090.94 2140.71 4090.94Z" fill="#3F3D56"/>
    <path d="M2142.02 4089.16C2142.02 4089.39 2142.27 4089.58 2142.56 4089.58C2142.86 4089.58 2143.1 4089.39 2143.1 4089.16C2143.1 4088.93 2142.51 4088.45 2142.56 4088.74C2142.64 4089.13 2142.02 4088.93 2142.02 4089.16Z" fill="#3F3D56"/>
    <path d="M2140.18 4090.22C2140.18 4090.45 2140.42 4090.64 2140.71 4090.64C2141.01 4090.64 2141.25 4090.45 2141.25 4090.22C2141.25 4089.98 2140.66 4089.51 2140.71 4089.79C2140.79 4090.19 2140.18 4089.98 2140.18 4090.22Z" fill="#3F3D56"/>
    <path d="M2141.25 4090.67C2141.25 4090.9 2141.5 4091.09 2141.79 4091.09C2142.09 4091.09 2142.33 4090.9 2142.33 4090.67C2142.33 4090.44 2141.74 4089.96 2141.79 4090.25C2141.87 4090.64 2141.25 4090.44 2141.25 4090.67Z" fill="#3F3D56"/>
    <path d="M2142.64 4090.82C2142.64 4091.05 2142.88 4091.24 2143.18 4091.24C2143.48 4091.24 2143.72 4091.05 2143.72 4090.82C2143.72 4090.59 2143.12 4090.11 2143.18 4090.4C2143.26 4090.79 2142.64 4090.59 2142.64 4090.82Z" fill="#3F3D56"/>
    <path d="M2144.03 4090.37C2144.03 4090.6 2144.27 4090.79 2144.57 4090.79C2144.87 4090.79 2145.11 4090.6 2145.11 4090.37C2145.11 4090.13 2144.51 4089.66 2144.57 4089.94C2144.64 4090.34 2144.03 4090.13 2144.03 4090.37Z" fill="#3F3D56"/>
    <path d="M2143.49 4091.54C2143.28 4091.54 2143.1 4091.41 2143.1 4091.24C2143.1 4091.08 2143.28 4090.94 2143.49 4090.94C2143.7 4090.94 2143.87 4091.08 2143.87 4091.24C2143.87 4091.41 2143.7 4091.54 2143.49 4091.54Z" fill="#3F3D56"/>
    <path d="M2141.64 4091.54C2141.43 4091.54 2141.25 4091.41 2141.25 4091.24C2141.25 4091.08 2141.43 4090.94 2141.64 4090.94C2141.85 4090.94 2142.02 4091.08 2142.02 4091.24C2142.02 4091.41 2141.85 4091.54 2141.64 4091.54Z" fill="#3F3D56"/>
    <path d="M2141.46 4090.07C2141.46 4090.47 2142.38 4090.29 2142.38 4090.79C2142.38 4092.59 2143.18 4090.89 2143.31 4090.07C2143.37 4089.67 2142.89 4089.34 2142.38 4089.34C2141.87 4089.34 2141.46 4089.67 2141.46 4090.07Z" fill="#3F3D56"/>
  </g>
</svg>