<?xml version="1.0" encoding="utf-8"?>
<svg viewBox="4546.063 -981.614 514 684" xmlns="http://www.w3.org/2000/svg">
  <defs>
    <clipPath id="clip7_0_1">
      <rect width="1251" height="684" fill="white" transform="translate(10450 1630)"/>
    </clipPath>
  </defs>
  <g clip-path="url(#clip7_0_1)" transform="matrix(1, 0, 0, 1, -5903.937012, -2611.614258)">
    <path d="M10499.7 2285.26C10533.8 2309.87 10578.1 2311.11 10620.8 2308.08C10626.8 2307.66 10632.7 2307.17 10638.6 2306.63C10638.7 2306.62 10638.7 2306.63 10638.7 2306.62C10639 2306.59 10639.3 2306.56 10639.6 2306.55C10640.8 2306.43 10642 2306.32 10643.2 2306.21L10642.9 2306.75L10642 2308.43C10642.3 2307.87 10642.7 2307.32 10643 2306.75C10643.1 2306.58 10643.2 2306.42 10643.3 2306.25C10654.4 2286.95 10665.4 2266.95 10668.2 2244.92C10671.1 2222.06 10662.9 2196.16 10642.8 2184.93C10640.2 2183.46 10637.4 2182.28 10634.5 2181.44C10633.3 2181.07 10632 2180.77 10630.8 2180.51C10623.3 2178.83 10615.4 2179.2 10608.1 2181.57C10600.7 2183.93 10594.1 2188.22 10589 2193.98C10583.8 2199.74 10580.3 2206.78 10578.7 2214.35C10577.2 2221.93 10577.7 2229.78 10580.2 2237.09C10563.2 2219.6 10566.3 2191.22 10572.2 2167.5C10578.1 2143.78 10585.3 2117.38 10573.3 2096.07C10566.6 2084.22 10554.9 2076.86 10541.7 2073.89C10541.3 2073.81 10540.9 2073.72 10540.5 2073.65C10524.9 2070.47 10508.6 2073.33 10494.9 2081.64C10469.8 2097.5 10456.8 2127.56 10452.6 2157C10445.9 2204.39 10460.8 2257.27 10499.7 2285.26Z" fill="#F1F1F1"/>
    <path d="M10510.7 2209.3C10511.7 2219.75 10514.2 2230 10518.1 2239.73C10521.8 2248.34 10526.7 2256.35 10532.7 2263.51C10545 2278.28 10561.2 2289.39 10578.8 2296.79C10592.3 2302.31 10606.4 2306.1 10620.8 2308.08C10626.8 2307.66 10632.7 2307.17 10638.6 2306.63C10638.7 2306.62 10638.7 2306.63 10638.7 2306.62C10639 2306.59 10639.3 2306.56 10639.6 2306.55C10640.8 2306.43 10642 2306.32 10643.2 2306.21L10642.9 2306.75L10642 2308.43C10642.3 2307.87 10642.7 2307.32 10643 2306.75C10643.1 2306.58 10643.2 2306.42 10643.3 2306.25C10632.5 2295.46 10624.4 2282.25 10619.7 2267.7C10615.1 2253.15 10614 2237.7 10616.5 2222.63C10619.2 2207.68 10625.3 2193.56 10634.5 2181.44C10633.3 2181.07 10632 2180.77 10630.8 2180.51C10627.3 2185.27 10624.3 2190.32 10621.7 2195.61C10612.4 2214.49 10609.5 2235.85 10613.3 2256.54C10616.8 2275.26 10625.6 2292.58 10638.6 2306.48C10637.5 2306.4 10636.3 2306.31 10635.2 2306.2C10613.8 2304.39 10592.5 2299.8 10573.2 2290.39C10556.6 2282.55 10542.2 2270.75 10531.3 2256.04C10519.6 2239.85 10514.4 2220.39 10513.5 2200.6C10512.6 2179.42 10515.3 2157.87 10520.2 2137.27C10525.1 2116.15 10532.6 2095.71 10542.5 2076.42C10542.7 2075.98 10542.8 2075.47 10542.6 2075C10542.5 2074.53 10542.2 2074.14 10541.7 2073.89C10541.4 2073.65 10540.9 2073.57 10540.5 2073.65C10540.3 2073.7 10540.1 2073.8 10540 2073.94C10539.8 2074.08 10539.7 2074.25 10539.6 2074.45C10538.4 2076.83 10537.2 2079.21 10536 2081.63C10526.4 2101.72 10519.4 2122.92 10515 2144.75C10510.7 2165.82 10508.5 2187.85 10510.7 2209.3Z" fill="white"/>
    <path d="M10943.7 2314H10451.3C10450.9 2314 10450.6 2313.86 10450.4 2313.62C10450.1 2313.38 10450 2313.05 10450 2312.71C10450 2312.36 10450.1 2312.04 10450.4 2311.79C10450.6 2311.55 10450.9 2311.41 10451.3 2311.41H10943.7C10944 2311.41 10944.4 2311.55 10944.6 2311.79C10944.9 2312.04 10945 2312.36 10945 2312.71C10945 2313.05 10944.9 2313.38 10944.6 2313.62C10944.4 2313.86 10944 2314 10943.7 2314Z" fill="#CBCBCB"/>
    <path d="M10795.9 1966.79L10773.6 1857.64L10763.8 1777.02L10742.2 1791.04L10745.2 1879.88L10779.7 1971.93C10778.6 1974.05 10778.2 1976.45 10778.4 1978.83C10778.7 1981.21 10779.6 1983.46 10781.2 1985.29C10782.7 1987.12 10784.8 1988.46 10787.1 1989.12C10789.4 1989.79 10791.8 1989.76 10794.1 1989.03C10796.4 1988.3 10798.4 1986.91 10799.9 1985.04C10801.3 1983.17 10802.2 1980.9 10802.4 1978.51C10802.6 1976.13 10802.1 1973.74 10800.9 1971.65C10799.8 1969.56 10798 1967.87 10795.9 1966.79Z" fill="#FFB7B7"/>
    <path d="M10587.6 1975.23L10593.8 1864L10591.8 1782.81L10620.4 1793.54L10625.2 1881.87L10604.4 1977.97C10605.8 1979.9 10606.6 1982.21 10606.7 1984.6C10606.7 1986.99 10606.1 1989.36 10604.9 1991.39C10603.6 1993.43 10601.8 1995.05 10599.6 1996.04C10597.4 1997.03 10595 1997.36 10592.7 1996.97C10590.3 1996.58 10588.1 1995.5 10586.4 1993.87C10584.6 1992.23 10583.4 1990.11 10582.9 1987.78C10582.3 1985.45 10582.5 1983.01 10583.3 1980.78C10584.2 1978.54 10585.7 1976.61 10587.6 1975.23Z" fill="#FFB7B7"/>
    <path d="M10647.6 2298.61L10662.3 2298.61L10669.2 2242.12L10647.6 2242.12L10647.6 2298.61Z" fill="#FFB7B7"/>
    <path d="M10643.9 2293.83L10672.7 2293.83C10677.6 2293.83 10682.3 2295.76 10685.7 2299.21C10689.2 2302.66 10691.1 2307.33 10691.1 2312.2V2312.8L10643.9 2312.8L10643.9 2293.83Z" fill="#2F2E41"/>
    <path d="M10703.1 2292.13L10717.5 2294.37L10733.1 2239.61L10711.7 2236.31L10703.1 2292.13Z" fill="#FFB7B7"/>
    <path d="M10700.1 2286.83L10728.6 2291.24C10733.4 2291.99 10737.7 2294.61 10740.6 2298.55C10743.5 2302.48 10744.7 2307.4 10744 2312.21L10743.9 2312.8L10697.2 2305.58L10700.1 2286.83Z" fill="#2F2E41"/>
    <path d="M10643.3 2281.74L10643.3 2281.33L10590.3 1994.71C10586.1 1971.7 10589.4 1947.94 10599.8 1927L10631.9 1862.82L10727.6 1875.8L10738.9 1957.5L10779.2 2113.36L10779.1 2113.49L10727.5 2277.36L10693.7 2279.59L10723.7 2133.3L10668.9 2008.74L10672.7 2279.51L10643.3 2281.74Z" fill="#2F2E41"/>
    <path d="M10729.8 1886.25L10729.2 1885.26C10729.1 1885.08 10717.5 1867.56 10685.8 1879.26C10653.5 1891.21 10628.5 1868.13 10628.3 1867.9L10628.1 1867.78L10620.8 1802.57L10612.2 1749.63L10639.7 1744.81L10653.2 1736.7L10706.9 1735.74L10721.1 1746.86L10744.3 1749.39L10746.4 1797.63L10746.4 1797.69L10729.8 1886.25Z" fill="#3B5BCD"/>
    <path d="M10737.5 1802.3V1760.99L10744.1 1749.08L10744.3 1749.07C10749.5 1749.26 10754.3 1751.47 10757.8 1755.21C10764.4 1761.89 10767.4 1773.01 10766.7 1788.26L10766.7 1788.54L10737.5 1802.3Z" fill="#3B5BCD"/>
    <path d="M10623.8 1797.81L10590.5 1793.81L10590.5 1793.43C10589.3 1776.83 10592.2 1764.51 10599.1 1756.81C10605.3 1749.82 10612.4 1749.4 10612.7 1749.39L10612.9 1749.38L10621.9 1757.57L10623.8 1797.81Z" fill="#3B5BCD"/>
    <path d="M10720.1 1719.1H10632.5C10630.7 1719.09 10629 1718.38 10627.7 1717.1C10626.5 1715.83 10625.7 1714.1 10625.7 1712.3V1680.59C10625.7 1667.17 10631.1 1654.3 10640.5 1644.82C10650 1635.33 10662.9 1630 10676.3 1630C10689.7 1630 10702.6 1635.33 10712.1 1644.82C10721.5 1654.3 10726.9 1667.17 10726.9 1680.59V1712.3C10726.9 1714.1 10726.1 1715.83 10724.9 1717.1C10723.6 1718.38 10721.9 1719.09 10720.1 1719.1Z" fill="#2F2E41"/>
    <path d="M10710.9 1699.48C10720.7 1681.51 10714.1 1658.97 10696.1 1649.15C10678.1 1639.32 10655.6 1645.93 10645.8 1663.9C10636 1681.88 10642.6 1704.41 10660.6 1714.24C10678.5 1724.06 10701 1717.46 10710.9 1699.48Z" fill="#FFB7B7"/>
    <path d="M10713.6 1682.85H10664.6C10663.7 1682.85 10662.8 1682.52 10662.1 1681.91C10661.4 1681.3 10661 1680.46 10660.9 1679.55L10660.2 1674.47C10660.2 1673.99 10660 1673.53 10659.6 1673.18C10659.3 1672.83 10658.8 1672.59 10658.4 1672.52C10657.9 1672.44 10657.4 1672.52 10656.9 1672.76C10656.5 1672.99 10656.2 1673.35 10655.9 1673.8L10652.7 1680.68C10652.4 1681.32 10652 1681.87 10651.3 1682.26C10650.7 1682.65 10650 1682.85 10649.3 1682.85H10641.9C10641.4 1682.85 10640.8 1682.74 10640.4 1682.53C10639.9 1682.32 10639.4 1682.01 10639.1 1681.62C10638.7 1681.23 10638.5 1680.77 10638.3 1680.27C10638.1 1679.77 10638.1 1679.24 10638.1 1678.72L10641.1 1648.08C10641.1 1647.43 10641.4 1646.8 10641.7 1646.26C10642.1 1645.72 10642.6 1645.29 10643.2 1645.01C10665.6 1634.54 10688.4 1634.55 10710.8 1645.05C10711.3 1645.32 10711.8 1645.72 10712.2 1646.23C10712.6 1646.73 10712.8 1647.32 10712.9 1647.95L10717.3 1678.54C10717.4 1679.08 10717.3 1679.62 10717.2 1680.14C10717 1680.66 10716.8 1681.14 10716.4 1681.55C10716.1 1681.96 10715.6 1682.29 10715.1 1682.51C10714.6 1682.74 10714.1 1682.85 10713.6 1682.85Z" fill="#2F2E41"/>
    <path d="M10796 1973.76L10794.2 1971.93L10873.6 1892.46H10964V1895.04H10874.7L10796 1973.76Z" fill="#3F3D56"/>
    <path d="M10872.6 1941.61C10899 1941.61 10920.4 1920.2 10920.4 1893.77C10920.4 1867.35 10899 1845.93 10872.6 1845.93C10846.2 1845.93 10824.8 1867.35 10824.8 1893.77C10824.8 1920.2 10846.2 1941.61 10872.6 1941.61Z" fill="white"/>
    <path d="M10872.6 1942.91C10862.9 1942.91 10853.4 1940.03 10845.3 1934.63C10837.2 1929.23 10830.9 1921.55 10827.2 1912.58C10823.5 1903.6 10822.5 1893.72 10824.4 1884.19C10826.3 1874.66 10831 1865.9 10837.9 1859.03C10844.7 1852.16 10853.5 1847.48 10863 1845.58C10872.5 1843.69 10882.4 1844.66 10891.4 1848.38C10900.3 1852.1 10908 1858.4 10913.4 1866.48C10918.8 1874.56 10921.7 1884.06 10921.7 1893.77C10921.7 1906.8 10916.5 1919.29 10907.3 1928.5C10898.1 1937.71 10885.6 1942.89 10872.6 1942.91ZM10872.6 1847.22C10863.4 1847.22 10854.4 1849.95 10846.7 1855.07C10839.1 1860.18 10833.1 1867.45 10829.6 1875.96C10826.1 1884.47 10825.1 1893.82 10826.9 1902.85C10828.7 1911.88 10833.2 1920.18 10839.7 1926.69C10846.2 1933.2 10854.5 1937.63 10863.5 1939.43C10872.5 1941.22 10881.9 1940.3 10890.4 1936.78C10898.9 1933.25 10906.1 1927.29 10911.3 1919.63C10916.4 1911.98 10919.1 1902.98 10919.1 1893.77C10919.1 1881.43 10914.2 1869.6 10905.5 1860.87C10896.7 1852.15 10884.9 1847.24 10872.6 1847.22Z" fill="#3F3D56"/>
    <path d="M10872.6 1927.96C10891.4 1927.96 10906.7 1912.65 10906.7 1893.77C10906.7 1874.89 10891.4 1859.59 10872.6 1859.59C10853.7 1859.59 10838.4 1874.89 10838.4 1893.77C10838.4 1912.65 10853.7 1927.96 10872.6 1927.96Z" fill="#3B5BCD"/>
    <path d="M10869.3 1908.2L10859.1 1895.05L10865 1890.42L10869.9 1896.65L10886.2 1879.37L10891.7 1884.56L10869.3 1908.2Z" fill="white"/>
  </g>
</svg>