<?xml version="1.0" encoding="utf-8"?>
<svg viewBox="-4146.937 1428.386 109 81" xmlns="http://www.w3.org/2000/svg">
  <defs>
    <clipPath id="clip29_0_1">
      <rect width="109" height="81" fill="white" transform="matrix(-1 0 0 1 1866 4040)"/>
    </clipPath>
  </defs>
  <g clip-path="url(#clip29_0_1)" transform="matrix(1, 0, 0, 1, -5903.937012, -2611.614258)">
    <path d="M1835.66 4101.32L1841.81 4101.98L1844.75 4099.99L1846.46 4101.98L1845.64 4106.18L1844.7 4109.5L1839.02 4106.64L1834.45 4106.23L1835.66 4101.32Z" fill="#A0616A"/>
    <path d="M1804.49 4094.28L1819.34 4094.02L1837.39 4101.58L1834.99 4106.76L1818.67 4102.25L1793.39 4109.41L1796.86 4092.43L1804.49 4094.28Z" fill="#2F2E41"/>
    <path d="M1845.21 4101.8L1842.26 4101.57L1846.02 4093.71C1846.02 4093.71 1847.76 4093.1 1848.02 4094.99C1848.29 4096.89 1846.01 4109.74 1845.34 4109.74C1844.67 4109.74 1842.43 4108.44 1842.43 4108.44L1845.75 4102.2L1845.21 4101.8Z" fill="#2F2E41"/>
    <path d="M1771.19 4099.65C1771.49 4099.68 1771.81 4099.73 1772.16 4099.8C1773.62 4100.09 1773.65 4101.08 1773.64 4101.3L1773.65 4101.29C1773.8 4101.53 1773.89 4101.77 1773.94 4101.99L1774.01 4098.97C1773.97 4098.88 1773.93 4098.78 1773.89 4098.68C1773.79 4099.01 1773.61 4099.33 1773.45 4099.31C1773.25 4099.28 1773.16 4098.69 1773.2 4098.27C1772.94 4098.6 1772.51 4098.95 1772.35 4098.84C1772.22 4098.76 1772.3 4098.4 1772.44 4098.08C1772.15 4098.26 1771.82 4098.37 1771.72 4098.26C1771.58 4098.11 1771.91 4097.59 1772.22 4097.29C1771.81 4097.33 1771.29 4097.27 1771.25 4097.08C1771.22 4096.93 1771.53 4096.74 1771.87 4096.62C1771.53 4096.53 1771.22 4096.38 1771.23 4096.23C1771.24 4096.05 1771.71 4095.93 1772.11 4095.91C1771.8 4095.68 1771.53 4095.35 1771.61 4095.21C1771.69 4095.07 1772.05 4095.13 1772.39 4095.24C1772.19 4094.96 1772.05 4094.65 1772.15 4094.54C1772.29 4094.41 1772.75 4094.64 1773.07 4094.89C1773.01 4094.49 1773.04 4093.99 1773.22 4093.94C1773.37 4093.91 1773.59 4094.2 1773.74 4094.52C1773.8 4094.18 1773.93 4093.87 1774.08 4093.87C1774.3 4093.87 1774.47 4094.51 1774.47 4094.93C1774.47 4094.96 1774.47 4094.98 1774.47 4095C1774.49 4094.98 1774.52 4094.95 1774.55 4094.92C1774.85 4094.63 1775.44 4094.3 1775.59 4094.46C1775.7 4094.56 1775.56 4094.88 1775.36 4095.16C1775.7 4095.04 1776.06 4094.99 1776.13 4095.12C1776.24 4095.3 1775.79 4095.75 1775.43 4095.97C1775.45 4095.97 1775.47 4095.97 1775.5 4095.97C1775.92 4095.94 1776.58 4096.07 1776.6 4096.28C1776.61 4096.43 1776.3 4096.58 1775.97 4096.67C1776.3 4096.79 1776.61 4096.99 1776.58 4097.14C1776.54 4097.32 1776.02 4097.39 1775.61 4097.35C1775.92 4097.64 1776.25 4098.16 1776.11 4098.32C1776.01 4098.43 1775.69 4098.31 1775.39 4098.14C1775.53 4098.46 1775.61 4098.81 1775.48 4098.9C1775.31 4099.01 1774.84 4098.62 1774.59 4098.27C1774.62 4098.69 1774.51 4099.26 1774.32 4099.29C1774.23 4099.3 1774.14 4099.21 1774.06 4099.07L1774.29 4102.32C1774.34 4102.69 1774 4102.94 1773.97 4103.1L1773.93 4105.29C1773.98 4105.14 1774.05 4104.98 1774.15 4104.82L1774.16 4104.82C1774.15 4104.6 1774.18 4103.61 1775.64 4103.32C1775.99 4103.25 1776.31 4103.2 1776.61 4103.17C1776.96 4103.13 1777.1 4103.61 1776.78 4103.76C1776.32 4103.98 1775.89 4104.26 1775.66 4104.6C1775.09 4105.45 1774.3 4104.96 1774.18 4104.88C1774.06 4105.09 1773.97 4105.3 1773.92 4105.5L1773.9 4106.66C1773.9 4106.69 1773.91 4106.71 1773.91 4106.71L1773.89 4106.71L1773.83 4109.53L1773.25 4109.53L1773.46 4106.64C1773.42 4106.49 1773.32 4105.96 1773.46 4105.41L1773.67 4103.14C1773.65 4103.2 1773.67 4103.14 1773.67 4103.14L1773.94 4102.25C1773.9 4101.97 1773.81 4101.66 1773.62 4101.36C1773.51 4101.43 1772.71 4101.92 1772.14 4101.07C1771.91 4100.74 1771.48 4100.46 1771.02 4100.24C1770.71 4100.09 1770.84 4099.61 1771.19 4099.65ZM1773.85 4106.33L1773.86 4105.83C1773.84 4106.02 1773.84 4106.19 1773.85 4106.33Z" fill="#F2F2F2"/>
    <path d="M1866 4109.48C1866 4109.62 1865.89 4109.73 1865.75 4109.73H1757.25C1757.11 4109.73 1757 4109.62 1757 4109.48C1757 4109.34 1757.11 4109.24 1757.25 4109.24H1865.75C1865.89 4109.24 1866 4109.34 1866 4109.48Z" fill="#3F3D56"/>
    <path d="M1794 4076.59L1792.53 4071.68L1788.25 4071.54L1786.51 4077.65L1794 4076.59Z" fill="#A0616A"/>
    <path opacity="0.1" d="M1794 4076.59L1792.53 4071.68L1788.25 4071.54L1786.51 4077.65L1794 4076.59Z" fill="black"/>
    <path d="M1787.43 4075.9L1794.39 4075.64L1796.55 4080.04L1799.87 4099.53L1782.42 4103.44C1782.42 4103.44 1781.35 4081.68 1783.75 4078.62C1786.16 4075.57 1787.43 4075.9 1787.43 4075.9Z" fill="#E6E6E6"/>
    <path d="M1807.8 4060.64C1808.09 4059.11 1809.13 4058.01 1810.11 4058.19C1811.1 4058.37 1811.66 4059.77 1811.37 4061.31C1811.27 4061.92 1811.01 4062.5 1810.63 4063L1809.32 4069.49L1806.73 4068.97L1807.88 4062.49C1807.71 4061.89 1807.68 4061.25 1807.8 4060.64Z" fill="#A0616A"/>
    <path d="M1788.47 4077.67L1802.68 4074.89L1806.67 4062.98L1811.15 4064.03L1806.66 4081.63L1790.58 4083.73L1788.47 4077.67Z" fill="#E6E6E6"/>
    <path d="M1810.11 4041.56C1810.12 4041.57 1810.14 4041.59 1810.15 4041.6C1812.3 4039.48 1815.77 4039.46 1817.94 4041.56C1820.12 4043.66 1820.2 4047.11 1818.11 4049.31L1818.11 4049.31L1818.05 4049.36L1810.36 4057.22L1802.38 4049.54L1802.4 4049.51C1802.39 4049.5 1802.37 4049.49 1802.36 4049.48C1800.16 4047.35 1800.11 4043.86 1802.25 4041.67C1804.39 4039.49 1807.91 4039.44 1810.11 4041.56Z" fill="#3B5BCD"/>
    <path d="M1808.21 4080.56C1808.23 4080.58 1808.26 4080.61 1808.28 4080.63C1812.24 4076.73 1818.62 4076.7 1822.63 4080.55C1826.65 4084.43 1826.78 4090.78 1822.93 4094.82L1822.94 4094.83L1822.84 4094.92L1808.66 4109.4L1793.97 4095.24L1794.01 4095.2C1793.98 4095.18 1793.96 4095.16 1793.93 4095.13C1789.88 4091.22 1789.78 4084.79 1793.72 4080.76C1797.66 4076.74 1804.15 4076.65 1808.21 4080.56Z" fill="#3B5BCD"/>
    <path d="M1786.53 4096.7C1786.53 4096.7 1781.28 4101.04 1783.23 4103.67C1785.18 4106.3 1791.8 4111.01 1794.79 4109.55C1797.78 4108.09 1803.99 4097.53 1803.99 4097.53L1805.62 4108.34L1809.87 4107.97C1809.87 4107.97 1812.96 4092.69 1810.11 4090.35C1807.26 4088 1794.3 4092.15 1794.3 4092.15L1786.53 4096.7Z" fill="#2F2E41"/>
    <path d="M1808.81 4106.54L1810.02 4110.29L1812.56 4113.82L1810.62 4116.7L1804.44 4112.67L1804.46 4110.59L1805.43 4109.29L1806.11 4106.81L1808.81 4106.54Z" fill="#A0616A"/>
    <path d="M1810.75 4115.28L1812.3 4112.78L1817.64 4119.68C1817.64 4119.68 1817.4 4121.5 1815.57 4120.87C1813.75 4120.24 1802.44 4114.49 1802.75 4113.89C1803.05 4113.3 1804.31 4110.12 1804.31 4110.12L1810.15 4115.57L1810.75 4115.28Z" fill="#2F2E41"/>
    <path d="M1807.47 4096.66C1809.04 4096.81 1810.23 4097.74 1810.13 4098.73C1810.03 4099.72 1808.68 4100.4 1807.11 4100.24C1806.48 4100.19 1805.88 4099.99 1805.35 4099.66L1798.71 4098.92L1799.01 4096.32L1805.62 4096.89C1806.21 4096.67 1806.84 4096.59 1807.47 4096.66Z" fill="#A0616A"/>
    <path d="M1788.7 4079.02L1792.72 4092.82L1805.02 4095.74L1804.35 4100.25L1786.3 4097.34L1782.8 4081.62L1788.7 4079.02Z" fill="#E6E6E6"/>
    <path d="M1790.94 4073.15C1787.8 4073.15 1785.25 4070.62 1785.25 4067.51C1785.25 4064.39 1787.8 4061.87 1790.94 4061.87C1794.08 4061.87 1796.62 4064.39 1796.62 4067.51C1796.62 4070.62 1794.08 4073.15 1790.94 4073.15Z" fill="#A0616A"/>
    <path d="M1790.48 4059.92C1790.65 4060.02 1790.87 4059.88 1790.92 4059.69C1790.97 4059.51 1790.91 4059.32 1790.85 4059.14C1790.75 4058.84 1790.65 4058.54 1790.54 4058.24C1790.33 4057.6 1790.1 4056.94 1789.62 4056.45C1788.91 4055.72 1787.78 4055.53 1786.77 4055.67C1785.46 4055.84 1784.17 4056.54 1783.56 4057.7C1782.96 4058.86 1783.21 4060.48 1784.31 4061.21C1782.75 4062.98 1782.2 4064.97 1782.29 4067.33C1782.37 4069.69 1784.97 4071.86 1786.66 4073.52C1787.03 4073.29 1787.38 4072.23 1787.17 4071.84C1786.96 4071.46 1787.26 4071.01 1787 4070.65C1786.74 4070.3 1786.53 4070.86 1786.79 4070.51C1786.95 4070.29 1786.31 4069.77 1786.56 4069.64C1787.74 4068.99 1788.13 4067.53 1788.87 4066.42C1789.76 4065.07 1791.29 4064.16 1792.91 4064.01C1793.8 4063.92 1794.74 4064.08 1795.47 4064.59C1796.2 4065.1 1796.67 4066.02 1796.5 4066.89C1796.94 4066.45 1797.16 4065.8 1797.08 4065.19C1797 4064.57 1796.61 4064 1796.07 4063.69C1796.4 4062.61 1796.12 4061.38 1795.36 4060.54C1794.6 4059.71 1791.51 4059.85 1790.4 4060.07L1790.48 4059.92Z" fill="#2F2E41"/>
    <path d="M1790.31 4064.04C1788.84 4064.2 1787.77 4065.46 1786.88 4066.63C1786.36 4067.31 1785.82 4068.05 1785.83 4068.9C1785.84 4069.75 1786.42 4070.49 1786.69 4071.3C1787.15 4072.63 1786.71 4074.2 1785.63 4075.11C1786.69 4075.31 1787.84 4074.52 1788.02 4073.47C1788.24 4072.24 1787.3 4071.05 1787.41 4069.81C1787.51 4068.72 1788.38 4067.88 1789.11 4067.06C1789.85 4066.24 1790.55 4065.16 1790.21 4064.11L1790.31 4064.04Z" fill="#2F2E41"/>
  </g>
</svg>