<?xml version="1.0" encoding="utf-8"?>
<svg viewBox="-3491.525 1198.386 73.587 90.83" xmlns="http://www.w3.org/2000/svg">
  <defs>
    <clipPath id="clip28_0_1">
      <rect width="76" height="91" fill="white" transform="translate(2410 3810)"/>
    </clipPath>
  </defs>
  <g clip-path="url(#clip28_0_1)" transform="matrix(1, 0, 0, 1, -5903.937012, -2611.614258)">
    <path d="M2441.52 3899.29H2443.15L2443.93 3893.15H2441.52V3899.29Z" fill="#FFB8B8"/>
    <path d="M2441.11 3898.77H2444.32C2444.86 3898.77 2445.38 3898.98 2445.76 3899.36C2446.14 3899.73 2446.36 3900.24 2446.36 3900.77V3900.83H2441.11V3898.77Z" fill="#2F2E41"/>
    <path d="M2420.51 3896.27L2421.9 3897.09L2425.81 3892.22L2423.74 3891.01L2420.51 3896.27Z" fill="#FFB8B8"/>
    <path d="M2419.34 3897.39L2420.43 3895.62L2423.18 3897.23C2423.64 3897.51 2423.98 3897.95 2424.11 3898.46C2424.24 3898.98 2424.15 3899.52 2423.88 3899.98L2423.84 3900.03L2419.34 3897.39Z" fill="#2F2E41"/>
    <path d="M2441.08 3898C2440.75 3897.68 2439.93 3892.3 2438.73 3884.14C2438.3 3881.31 2437.91 3878.62 2437.58 3876.56C2434.78 3882.59 2430.24 3889.1 2424.8 3894.94L2424.76 3894.97L2424.72 3894.95C2422.98 3894.25 2422.65 3894.09 2421.87 3893.7C2421.64 3893.58 2421.36 3893.44 2421 3893.26L2420.97 3893.25C2420.81 3893.06 2422.34 3890.57 2427.71 3882.1C2430.05 3878.41 2432.47 3874.6 2434.07 3871.95L2434.08 3871.92L2434.11 3871.92C2437.98 3871.13 2441.72 3872.05 2444.62 3874.52L2444.65 3874.54L2444.65 3874.57C2444.57 3877.68 2444.63 3882.56 2444.69 3886.86C2444.81 3895.26 2444.8 3897.72 2444.53 3897.79L2444.52 3897.8C2444.13 3897.83 2443.8 3897.86 2443.5 3897.89C2442.71 3897.98 2441.92 3898.02 2441.13 3898.02L2441.1 3898.02L2441.08 3898Z" fill="#2F2E41"/>
    <path d="M2432.64 3848.33C2432.09 3846.12 2431.62 3843.62 2432.66 3841.58C2433.38 3840.17 2436.03 3839.69 2437.56 3840.2C2439.08 3840.71 2440.18 3842.09 2440.66 3843.6C2441.15 3845.11 2441.09 3846.73 2440.88 3848.3C2438.08 3848.25 2435.28 3848.19 2432.64 3848.33Z" fill="#2F2E41"/>
    <path d="M2437.36 3848.52C2439.17 3848.52 2440.63 3847.09 2440.63 3845.33C2440.63 3843.57 2439.17 3842.14 2437.36 3842.14C2435.56 3842.14 2434.1 3843.57 2434.1 3845.33C2434.1 3847.09 2435.56 3848.52 2437.36 3848.52Z" fill="#FFB8B8"/>
    <path d="M2433.37 3844.68C2433.36 3844.14 2433.46 3843.6 2433.67 3843.11C2433.87 3842.61 2434.18 3842.15 2434.56 3841.77C2434.95 3841.39 2435.41 3841.09 2435.92 3840.89C2436.43 3840.69 2436.98 3840.59 2437.53 3840.59C2438.08 3840.6 2438.62 3840.71 2439.12 3840.93C2439.62 3841.15 2440.08 3841.46 2440.45 3841.85C2440.83 3842.24 2441.12 3842.7 2441.32 3843.2C2441.51 3843.71 2441.59 3844.24 2441.57 3844.78C2438.77 3844.79 2435.98 3844.79 2433.37 3844.68Z" fill="#2F2E41"/>
    <path d="M2446.2 3875.89C2445.6 3873.89 2445.3 3872.48 2444.95 3870.86C2444.48 3868.63 2443.94 3866.11 2442.46 3861.21L2442.45 3861.19L2442.45 3861.18C2442.87 3856.92 2441.04 3852.41 2437.68 3849.39C2437.45 3849.21 2437.16 3849.11 2436.87 3849.13C2436.57 3849.14 2436.29 3849.26 2436.09 3849.47C2434.2 3851.55 2433.01 3853.5 2432.45 3855.42L2432.44 3855.46C2433.23 3857.95 2434.11 3860.45 2434.97 3862.86L2434.98 3862.9L2434.96 3862.93C2431.76 3866.69 2429.98 3871.73 2430.09 3876.76C2433.16 3875.72 2436.38 3875.19 2439.63 3875.2C2441.84 3875.2 2444.04 3875.43 2446.2 3875.89Z" fill="#3F3D56"/>
    <path opacity="0.1" d="M2434.85 3859.69L2439.67 3869.95L2442.43 3867.22L2434.85 3859.69Z" fill="black"/>
    <path d="M2461.13 3820.46C2461.17 3814.72 2457.34 3810.04 2452.57 3810C2447.8 3809.96 2443.89 3814.59 2443.85 3820.33C2443.81 3825.53 2446.95 3829.87 2451.09 3830.66L2450.81 3832.33L2453.97 3832.36L2453.72 3830.68C2457.87 3829.95 2461.08 3825.66 2461.13 3820.46Z" fill="#3B5BCD"/>
    <path d="M2446.75 3823.08L2445.55 3823.07C2445.17 3820.87 2445.19 3818.63 2445.61 3816.44L2446.8 3816.45C2446.27 3818.74 2446.25 3820.95 2446.75 3823.08Z" fill="white"/>
    <path d="M2454.2 3830.67L2450.61 3830.64L2450.6 3831.42L2454.19 3831.45L2454.2 3830.67Z" fill="#3F3D56"/>
    <path d="M2477.75 3823.63C2478.22 3817.91 2474.74 3812.97 2469.98 3812.6C2465.22 3812.23 2460.99 3816.57 2460.53 3822.29C2460.1 3827.48 2462.93 3832.02 2467 3833.1L2466.59 3834.75L2469.75 3835L2469.61 3833.3C2473.81 3832.87 2477.33 3828.82 2477.75 3823.63Z" fill="#FF6584"/>
    <path d="M2463.22 3825.24L2462.03 3825.14C2461.81 3822.93 2461.99 3820.69 2462.56 3818.54L2463.76 3818.63C2463.06 3820.88 2462.88 3823.08 2463.22 3825.24Z" fill="white"/>
    <path d="M2470.1 3833.33L2466.52 3833.05L2466.46 3833.83L2470.03 3834.11L2470.1 3833.33Z" fill="#3F3D56"/>
    <path d="M2468.18 3833.35L2442.06 3875.02L2442.4 3875.22L2468.52 3833.56L2468.18 3833.35Z" fill="#3F3D56"/>
    <path d="M2484.5 3829.25C2487.27 3824.18 2486.09 3818.3 2481.88 3816.11C2477.67 3813.91 2472.02 3816.24 2469.26 3821.3C2466.75 3825.9 2467.48 3831.16 2470.78 3833.74L2469.73 3835.09L2472.52 3836.55L2473.09 3834.94C2477.12 3836.18 2482 3833.84 2484.5 3829.25Z" fill="#3B5BCD"/>
    <path d="M2470.52 3825.06L2469.47 3824.51C2470.17 3822.39 2471.25 3820.41 2472.66 3818.66L2473.71 3819.21C2472.15 3820.99 2471.09 3822.94 2470.52 3825.06Z" fill="white"/>
    <path d="M2473.52 3835.16L2470.36 3833.51L2469.98 3834.2L2473.15 3835.85L2473.52 3835.16Z" fill="#3F3D56"/>
    <path d="M2471.51 3834.7L2442.1 3874.22L2442.42 3874.45L2471.83 3834.93L2471.51 3834.7Z" fill="#3F3D56"/>
    <path d="M2452.62 3831.02L2443.88 3879.13L2444.27 3879.2L2453.02 3831.09L2452.62 3831.02Z" fill="#3F3D56"/>
    <path d="M2445.6 3870.59C2445.4 3870.58 2445.21 3870.53 2445.04 3870.43C2444.87 3870.34 2444.72 3870.21 2444.61 3870.06C2444.5 3869.9 2444.42 3869.73 2444.38 3869.54C2444.34 3869.35 2444.35 3869.16 2444.4 3868.97L2440.42 3866.43L2442.69 3865.47L2446.11 3868.03C2446.43 3868.13 2446.69 3868.34 2446.86 3868.62C2447.03 3868.89 2447.08 3869.22 2447.02 3869.54C2446.96 3869.85 2446.78 3870.13 2446.51 3870.33C2446.25 3870.52 2445.93 3870.62 2445.6 3870.59Z" fill="#FFB8B8"/>
    <path d="M2441.74 3868.72C2439.36 3866.04 2436.9 3863.28 2434.67 3860.5L2434.65 3860.49L2434.65 3860.46C2434.66 3858.19 2434.67 3855.85 2434.95 3853.23C2434.73 3853 2434.57 3852.73 2434.47 3852.44C2434.37 3852.15 2434.34 3851.83 2434.38 3851.53C2434.41 3851.18 2434.52 3850.85 2434.7 3850.55C2434.88 3850.25 2435.13 3850 2435.42 3849.81C2436.54 3849.12 2438.22 3849.49 2439.01 3850.61C2439.77 3851.69 2439.66 3853.23 2439.08 3854.01L2438.43 3858.97L2438.37 3858.97L2438.39 3858.97L2438.39 3858.97L2438.4 3858.98L2438.42 3858.99C2438.42 3858.99 2438.42 3858.99 2438.42 3859C2440.51 3861.5 2442.68 3864.09 2444.85 3866.57L2444.9 3866.62L2444.84 3866.66C2443.82 3867.34 2442.77 3868.05 2441.83 3868.73L2441.78 3868.76L2441.74 3868.72Z" fill="#3F3D56"/>
    <path d="M2480.72 3873.88L2480.64 3874.13L2475.63 3872.57C2476.07 3873.15 2477.56 3874.94 2479.11 3875.33C2480.95 3875.8 2481.9 3875.14 2482.18 3874.1C2482.46 3873.06 2481.96 3872.03 2480.11 3871.56C2478.55 3871.16 2476.32 3872.04 2475.67 3872.31L2480.72 3873.88Z" fill="#F2F2F2"/>
    <path d="M2457.04 3890.49L2456.78 3890.5L2456.51 3885.37C2456.12 3885.98 2454.92 3887.97 2455.09 3889.52C2455.28 3891.38 2456.24 3892.02 2457.34 3891.91C2458.44 3891.8 2459.25 3890.98 2459.05 3889.12C2458.89 3887.55 2457.26 3885.81 2456.77 3885.32L2457.04 3890.49Z" fill="#F2F2F2"/>
    <path d="M2414.06 3824.04L2414.22 3823.84L2418.44 3826.89C2418.21 3826.21 2417.4 3824.05 2416.07 3823.18C2414.48 3822.15 2413.36 3822.47 2412.75 3823.37C2412.14 3824.26 2412.27 3825.4 2413.86 3826.43C2415.21 3827.3 2417.61 3827.18 2418.31 3827.12L2414.06 3824.04Z" fill="#F2F2F2"/>
  </g>
</svg>