<?xml version="1.0" encoding="utf-8"?>
<svg viewBox="-4140.509 997.387 50.182 87.996" xmlns="http://www.w3.org/2000/svg">
  <defs>
    <clipPath id="clip24_0_1">
      <rect width="127" height="88" fill="white" transform="matrix(-1 0 0 1 1860 3609)"/>
    </clipPath>
  </defs>
  <g clip-path="url(#clip24_0_1)" transform="matrix(1, 0, 0, 1, -5903.937012, -2611.614258)">
    <path d="M1786.74 3660.54L1785.12 3691.75L1781.06 3691.26L1778.84 3659L1786.74 3660.54Z" fill="#FFB6B6"/>
    <path d="M1780.53 3689.86C1780.53 3689.86 1778.27 3695.8 1781.22 3696.15C1784.17 3696.49 1792.68 3698.06 1792.68 3695.8C1792.68 3693.53 1788.34 3692.66 1788.34 3692.66C1788.34 3692.66 1786.26 3689.34 1785.39 3689.69C1784.52 3690.04 1783.83 3691.96 1782.26 3691.43C1780.7 3690.91 1780.53 3689.86 1780.53 3689.86Z" fill="#2F2E41"/>
    <path d="M1786.52 3619.29H1791.55V3625.74H1786.52V3619.29Z" fill="#FFB6B6"/>
    <path d="M1789.16 3622.6C1785.98 3622.6 1783.39 3620.01 1783.39 3616.8C1783.39 3613.6 1785.98 3611 1789.16 3611C1792.35 3611 1794.94 3613.6 1794.94 3616.8C1794.94 3620.01 1792.35 3622.6 1789.16 3622.6Z" fill="#FFB6B6"/>
    <path d="M1782.79 3640.49L1782.09 3634.73L1778.79 3634.9L1778.1 3641.71L1775.37 3654.31L1775.36 3654.31L1775.36 3654.31L1774.57 3657.75C1774.08 3658.36 1773.75 3659.07 1773.6 3659.83C1773.18 3661.73 1773.82 3663.48 1775.02 3663.74C1776.23 3664.01 1777.53 3662.68 1777.95 3660.79C1778.12 3660.03 1778.11 3659.24 1777.92 3658.49L1778.67 3655.88L1782.79 3640.49Z" fill="#FFB6B6"/>
    <path d="M1791.9 3623.83H1785.82L1779.92 3626.97L1782 3639.53L1779.57 3647.38C1779.57 3647.38 1792.59 3651.39 1796.58 3649.65L1794.85 3639.53L1796.06 3626.09C1796.06 3626.09 1791.9 3623.83 1791.9 3623.83Z" fill="#3B5BCD"/>
    <path d="M1781.05 3627.05C1781.05 3627.05 1778.97 3626.36 1778.62 3627.58C1778.27 3628.8 1777.4 3636.13 1777.4 3636.13L1782.61 3636.3C1782.61 3636.3 1781.05 3627.05 1781.05 3627.05Z" fill="#6C63FF"/>
    <path d="M1809.48 3650.01C1809.69 3650.01 1809.9 3649.99 1810.1 3649.96C1810.9 3649.83 1811.48 3649.44 1811.72 3648.86C1811.97 3648.28 1811.85 3647.59 1811.39 3646.91C1810.94 3646.25 1810.2 3645.68 1809.33 3645.31C1808.62 3644.99 1807.84 3644.85 1807.07 3644.89L1799.88 3641.13L1799.36 3635.72L1795.38 3634.08L1794.83 3641.44C1794.73 3642.68 1795.44 3643.83 1796.57 3644.3L1805.65 3648.23C1806.15 3648.82 1806.8 3649.29 1807.52 3649.58C1808.17 3649.87 1808.85 3650.01 1809.48 3650.01Z" fill="#FFB6B6"/>
    <path d="M1794.59 3626.01C1794.59 3626.01 1798.06 3624.78 1799.1 3628.62C1800.14 3632.46 1799.8 3635.95 1799.8 3635.95L1793.89 3635.43C1793.89 3635.43 1794.59 3626.01 1794.59 3626.01Z" fill="#3B5BCD"/>
    <path d="M1813.61 3640.4C1813.61 3642.14 1812.21 3643.55 1810.48 3643.55C1809.55 3643.55 1808.72 3643.14 1808.14 3642.5C1808.14 3642.5 1808.14 3642.5 1808.14 3642.5C1807.77 3642.08 1807.5 3641.55 1807.4 3640.97C1807.39 3640.91 1807.38 3640.85 1807.37 3640.79C1807.36 3640.67 1807.35 3640.55 1807.35 3640.42V3640.4C1807.35 3638.66 1808.75 3637.25 1810.48 3637.25C1811.63 3637.25 1812.64 3637.88 1813.18 3638.81C1813.27 3638.95 1813.34 3639.11 1813.4 3639.27C1813.53 3639.62 1813.61 3640 1813.61 3640.4Z" fill="#3B5BCD"/>
    <path d="M1813.4 3639.27C1813.23 3639.22 1813.04 3639.14 1812.84 3639.03C1812.77 3638.99 1812.71 3638.96 1812.66 3638.93C1812.56 3638.86 1812.5 3638.83 1812.4 3638.82C1812.14 3638.78 1811.91 3638.92 1811.82 3638.98C1811.52 3639.17 1811.39 3639.43 1811.27 3639.69C1811.2 3639.83 1811.07 3640.12 1811.01 3640.52C1810.98 3640.75 1810.99 3640.88 1811 3640.99C1811.01 3641.11 1811.02 3641.23 1810.97 3641.43C1810.84 3641.96 1810.46 3642.3 1810.25 3642.45C1809.9 3642.71 1809.54 3642.84 1809.16 3642.84C1809.12 3642.84 1809.07 3642.84 1809.02 3642.83C1808.83 3642.82 1808.47 3642.75 1808.14 3642.5C1808.14 3642.5 1808.14 3642.5 1808.14 3642.5C1807.77 3642.08 1807.5 3641.55 1807.4 3640.97C1807.4 3640.96 1807.4 3640.95 1807.4 3640.93C1807.41 3640.9 1807.42 3640.83 1807.4 3640.8C1807.4 3640.8 1807.39 3640.8 1807.37 3640.79C1807.36 3640.67 1807.35 3640.55 1807.35 3640.42C1807.56 3640.47 1807.63 3640.53 1807.67 3640.58C1807.79 3640.73 1807.76 3640.91 1807.75 3640.98C1807.7 3641.32 1807.96 3641.89 1808.3 3642.18C1808.59 3642.42 1808.92 3642.47 1809.05 3642.49C1809.56 3642.53 1809.93 3642.26 1810.05 3642.17C1810.22 3642.04 1810.53 3641.76 1810.64 3641.34C1810.67 3641.2 1810.67 3641.13 1810.65 3641.02C1810.64 3640.89 1810.63 3640.74 1810.67 3640.47C1810.73 3640.02 1810.88 3639.69 1810.96 3639.53C1811.09 3639.26 1811.26 3638.93 1811.63 3638.69C1811.75 3638.62 1812.06 3638.42 1812.44 3638.47C1812.62 3638.49 1812.72 3638.56 1812.84 3638.63C1812.89 3638.66 1812.94 3638.69 1813 3638.72C1813.06 3638.75 1813.12 3638.78 1813.18 3638.81C1813.27 3638.95 1813.34 3639.11 1813.4 3639.27Z" fill="#F2F2F2"/>
    <path d="M1775.7 3664.41L1777.9 3663.87L1773.59 3649.5L1774.27 3646.52L1769.54 3647.71L1771.83 3650.26L1775.7 3664.41Z" fill="#3F3D56"/>
    <path d="M1764 3641.64C1762.53 3637.1 1763.99 3632.55 1767.27 3631.47C1770.55 3630.4 1774.41 3633.2 1775.88 3637.73C1777.36 3642.26 1775.89 3646.81 1772.61 3647.89C1769.33 3648.97 1765.48 3646.17 1764 3641.64ZM1764.66 3641.42C1765.97 3645.45 1769.4 3647.94 1772.32 3646.98C1775.23 3646.02 1776.53 3641.98 1775.22 3637.95C1773.91 3633.92 1770.48 3631.43 1767.57 3632.39C1764.65 3633.35 1763.35 3637.39 1764.66 3641.42Z" fill="#3F3D56"/>
    <path d="M1783.57 3616.81L1782.57 3619.46L1780.15 3623.83C1777.63 3628.38 1776.53 3633.58 1776.99 3638.77L1783.43 3638.45L1784.18 3636.33C1786.06 3630.98 1786.75 3625.32 1786.51 3619.65C1786.4 3616.94 1787.58 3614.88 1790.16 3613.53L1783.57 3616.81Z" fill="#2F2E41"/>
    <path d="M1782.87 3618.77L1785.65 3616.15C1785.65 3616.15 1789.29 3614.93 1790.86 3613.88C1791.85 3613.22 1793.32 3613.95 1794.27 3614.58C1794.88 3614.98 1795.66 3615.02 1796.3 3614.67C1796.76 3614.42 1796.96 3613.86 1796.77 3613.37C1796.06 3611.55 1794.15 3610.51 1792.25 3610.91L1790.88 3609.93C1789.46 3608.92 1787.63 3608.72 1786.03 3609.4L1785.13 3609.79C1784.22 3610.18 1783.45 3610.84 1782.92 3611.67C1782.22 3612.75 1781.97 3614.06 1782.21 3615.33L1782.87 3618.77Z" fill="#3B5BCD"/>
    <path d="M1798.39 3660.99L1799.99 3692.21L1795.91 3692.14L1790.38 3660.28L1798.39 3660.99Z" fill="#FFB6B6"/>
    <path d="M1780.13 3646.06C1780.13 3646.06 1776.66 3651.47 1777 3659.14C1777 3659.14 1786.72 3665.25 1798.87 3661.59C1798.87 3661.59 1797.66 3650.77 1796.1 3649.02L1780.13 3646.06Z" fill="#2F2E41"/>
    <path d="M1795.11 3689.86C1795.11 3689.86 1792.85 3695.8 1795.8 3696.15C1798.75 3696.49 1807.26 3698.06 1807.26 3695.8C1807.26 3693.53 1802.92 3692.66 1802.92 3692.66C1802.92 3692.66 1800.84 3689.34 1799.97 3689.69C1799.1 3690.04 1798.41 3691.96 1796.85 3691.43C1795.28 3690.91 1795.11 3689.86 1795.11 3689.86Z" fill="#2F2E41"/>
  </g>
</svg>