<?xml version="1.0" encoding="utf-8"?>
<!-- Generator: Adobe Illustrator 16.0.3, SVG Export Plug-In . SVG Version: 6.00 Build 0)  -->
<!DOCTYPE svg PUBLIC "-//W3C//DTD SVG 1.1//EN" "http://www.w3.org/Graphics/SVG/1.1/DTD/svg11.dtd">
<svg version="1.1" id="Capa_1" xmlns="http://www.w3.org/2000/svg" xmlns:xlink="http://www.w3.org/1999/xlink" x="0px" y="0px"
	 width="1558.512px" height="1210.399px" viewBox="382.949 -0.009 1558.512 1210.399"
	 enable-background="new 382.949 -0.009 1558.512 1210.399" xml:space="preserve">
<g transform="matrix(1, 0, 0, 1, -5903.937012, -2611.614258)">
	<path fill="#2B49B8" d="M7548.123,3075.815c-65.554-257.047-292.021-442.595-557.877-450.04
		c-140.534-3.909-288.433,42.551-396.082,205.229c-192.483,290.789,11.81,491.708,154.245,587.2
		c68.82,46.22,130.839,101.785,184.236,165.116c96.215,113.862,281.281,255.36,501.723,33.661
		C7594.155,3456.312,7591.772,3247.01,7548.123,3075.815z"/>
	<g>
		<path fill="#4A69D9" d="M7894.939,3111.271c0,66.705-54.227,173.175-121.119,173.175s-121.119-106.47-121.119-173.175
			c0-32.027,12.746-62.769,35.48-85.396c22.709-22.655,53.504-35.402,85.639-35.402s62.931,12.747,85.638,35.402
			C7882.166,3048.502,7894.939,3079.245,7894.939,3111.271z"/>
		<path fill="none" stroke="#2F2E41" stroke-width="8" d="M7778.291,3288.759c-15.209,5.223-18.852,25.922-13.603,41.105
			c5.222,15.184,16.308,27.77,21.878,42.818c2.57,7.605,4.393,15.424,5.463,23.352c3.188,18.879,6.4,38.105,3.938,57.117
			c-2.33,18.021-9.642,35-17.836,51.256c-15.799,31.465-35.053,61.08-57.358,88.314"/>
		<path fill="#8DA5FB" d="M7785.496,3296.097c-7.793-4.98-15.559-4.98-23.352,0V3272.8h23.352V3296.097z"/>
		<path stroke="#2F2E41" stroke-width="2" d="M7762.197,3283.966c3.643,1.82,7.659,2.785,11.703,2.758
			c4.07-0.025,8.087-0.99,11.701-2.865"/>
		<path opacity="0.4" fill="#FFFFFF" enable-background="new    " d="M7824.164,3090.892c14.111,0,25.547-13.684,25.547-30.554
			s-11.436-30.554-25.547-30.554c-14.112,0-25.547,13.684-25.547,30.554S7810.05,3090.892,7824.164,3090.892z"/>
	</g>
	<g>
		<path fill="#4A69D9" d="M6325.12,3114.135c0,66.707,54.227,173.178,121.12,173.178s121.119-106.471,121.119-173.178
			c0-32.054-12.747-62.769-35.481-85.423c-22.707-22.655-53.502-35.375-85.638-35.375s-62.931,12.72-85.638,35.375
			C6337.894,3051.366,6325.12,3082.081,6325.12,3114.135z"/>
		<path fill="none" stroke="#2F2E41" stroke-width="8" d="M6441.768,3291.598c15.209,5.221,18.853,25.92,13.604,41.104
			c-5.223,15.184-16.309,27.77-21.878,42.846c-2.571,7.578-4.392,15.397-5.463,23.324c-3.187,18.905-6.399,38.133-3.937,57.119
			c2.33,18.021,9.641,35.024,17.834,51.279c15.799,31.438,35.054,61.056,57.359,88.315"/>
		<path fill="#8DA5FB" d="M6434.565,3298.934c7.791-4.98,15.558-4.98,23.351,0v-23.271h-23.351V3298.934z"/>
		<path stroke="#2F2E41" stroke-width="2" d="M6457.862,3286.803c-3.643,1.85-7.66,2.784-11.703,2.759
			c-4.07,0-8.088-0.99-11.703-2.839"/>
		<path opacity="0.4" fill="#FFFFFF" enable-background="new    " d="M6395.895,3093.758c14.113,0,25.547-13.685,25.547-30.582
			c0-16.871-11.434-30.555-25.547-30.555c-14.111,0-25.545,13.685-25.545,30.555
			C6370.348,3080.073,6381.782,3093.758,6395.895,3093.758z"/>
	</g>
	<path fill="#3F3D56" d="M7796.065,3645.315c0,68.713-324.047,190.636-723.797,190.636s-685.853-247.086-685.853-315.799
		c0-68.715,286.103,66.945,685.853,66.945S7796.065,3576.601,7796.065,3645.315z"/>
	<path opacity="0.1" fill="#02316B" enable-background="new    " d="M7796.065,3645.315c0,68.713-324.047,190.636-723.797,190.636
		s-685.853-247.086-685.853-315.799c0-68.715,286.103,66.945,685.853,66.945S7796.065,3576.601,7796.065,3645.315z"/>
	<path fill="#0B4B9A" d="M7796.065,3644.592c0,68.715-324.047,124.414-723.797,124.414s-685.853-180.141-685.853-248.854
		c0-68.715,286.103,0,685.853,0S7796.065,3575.852,7796.065,3644.592z"/>
	<path fill="#2F2E41" d="M6961.647,3450.93l-14.648,93.322c0,0-72.168,38.239-21.423,39.364c50.718,1.124,289.771,0,289.771,0
		s46.22,0-27.072-40.489l-14.647-97.82L6961.647,3450.93z"/>
	<path opacity="0.1" enable-background="new    " d="M6915.345,3582.6c11.542-10.229,31.653-20.887,31.653-20.887l14.647-93.324
		l211.979,0.188l14.646,92.012c17.085,9.452,27.688,16.684,33.874,22.227c9.427-2.143,19.71-10.096-33.874-39.686l-14.646-97.821
		l-211.979,5.623l-14.647,93.323C6946.999,3544.253,6886.344,3576.387,6915.345,3582.6z"/>
	<path fill="#03408A" d="M7510.444,2800.425h-887.869c-18.558,0-33.58,14.996-33.58,33.5v596.438c0,18.504,15.021,33.5,33.58,33.5
		h887.869c18.531,0,33.582-14.996,33.582-33.5v-596.438C7544.026,2815.421,7528.977,2800.425,7510.444,2800.425z"/>
	<path fill="#3B5BCD" d="M7511.891,2835.854h-890.76v497.009h890.76V2835.854z"/>
	<path fill="#F2F2F2" d="M7066.51,2825.73c3.105,0,5.624-2.518,5.624-5.624s-2.519-5.623-5.624-5.623s-5.65,2.517-5.65,5.623
		C7060.86,2823.214,7063.405,2825.73,7066.51,2825.73z"/>
	<path fill="#02316B" d="M7544.026,3372.201v58.162c0,4.393-0.885,8.757-2.571,12.827c-1.687,4.069-4.149,7.739-7.284,10.872
		c-3.105,3.105-6.801,5.57-10.871,7.257c-4.098,1.66-8.463,2.544-12.854,2.544h-887.869c-4.42,0-8.785-0.884-12.854-2.544
		c-4.069-1.687-7.767-4.149-10.899-7.257c-3.105-3.133-5.596-6.803-7.283-10.872c-1.688-4.07-2.545-8.437-2.545-12.827v-58.162
		H7544.026z"/>
	<path fill="#2F2E41" d="M7315.684,3644.324v11.246h-606.613v-8.997l0.83-2.249l14.97-40.462h578.417L7315.684,3644.324z"/>
	<path fill="#2F2E41" d="M7549.141,3633.318c-1.099,4.713-5.274,9.693-14.701,14.38c-33.821,16.87-102.615-4.499-102.615-4.499
		s-52.996-8.998-52.996-32.589c1.5-1.02,3.054-1.955,4.66-2.759c14.22-7.498,61.375-26.028,144.979,0.776
		c6.158,1.929,11.647,5.517,15.88,10.39C7547.749,3622.981,7550.399,3627.989,7549.141,3633.318z"/>
	<path opacity="0.1" enable-background="new    " d="M7549.141,3633.318c-41.399,15.826-78.301,17.004-116.192-9.239
		c-19.093-13.2-36.444-16.495-49.459-16.228c14.22-7.498,61.375-26.028,144.979,0.777c6.158,1.928,11.647,5.516,15.879,10.39
		C7547.749,3622.981,7550.399,3627.989,7549.141,3633.318z"/>
	<path fill="#F2F2F2" d="M7497.216,3624.079c8.114,0,14.675-2.009,14.675-4.472c0-2.49-6.561-4.499-14.675-4.499
		c-8.087,0-14.647,2.009-14.647,4.499C7482.569,3622.07,7489.129,3624.079,7497.216,3624.079z"/>
	<path fill="#F2F2F2" d="M7066.51,3439.683c11.836,0,21.423-9.562,21.423-21.369c0-11.81-9.587-21.37-21.423-21.37
		s-21.423,9.561-21.423,21.37C7045.087,3430.122,7054.674,3439.683,7066.51,3439.683z"/>
	<path opacity="0.1" enable-background="new    " d="M7315.684,3644.324v11.246h-606.613v-8.997l0.83-2.249H7315.684z"/>
	<g>
		<path fill="none" stroke="#2F2E41" stroke-width="8" d="M7596.27,3068.934c-15.235,5.222-18.879,25.921-13.629,41.104
			c5.222,15.185,16.308,27.771,21.904,42.846c2.543,7.58,4.363,15.398,5.436,23.352c3.188,18.879,6.4,38.105,3.938,57.091
			c-2.33,18.022-9.641,35.027-17.809,51.281c-15.826,31.438-35.08,61.055-57.387,88.315"/>
		<path fill="#4A69D9" d="M7712.891,2891.472c0,66.706-54.227,173.177-121.119,173.177c-66.892,0-121.119-106.472-121.119-173.177
			c0-32.054,12.773-62.769,35.481-85.424c22.708-22.655,53.53-35.375,85.638-35.375c32.135,0,62.931,12.72,85.639,35.375
			C7700.145,2828.703,7712.891,2859.418,7712.891,2891.472z"/>
		<path fill="#8DA5FB" d="M7603.448,3076.299c-7.793-4.981-15.56-4.981-23.353,0v-23.298h23.353V3076.299z"/>
		<path stroke="#2F2E41" stroke-width="2" d="M7580.151,3064.141c3.642,1.848,7.658,2.785,11.729,2.785
			c4.043-0.027,8.061-1.019,11.675-2.866"/>
		<path opacity="0.4" fill="#FFFFFF" enable-background="new    " d="M7642.116,2871.093c14.111,0,25.547-13.683,25.547-30.554
			c0-16.896-11.436-30.581-25.547-30.581c-14.112,0-25.521,13.685-25.521,30.581
			C7616.595,2857.41,7628.003,2871.093,7642.116,2871.093z"/>
	</g>
	<g>
		<path fill="#637CFF" d="M7205.946,3045.502v125.939l-33.394,67.16v0.026l-1.044,2.115l-88.396-5.812l-33.981-2.25l-78.862-5.193
			v-150.656l78.862,2.223l35.269,0.99l89.227,2.518L7205.946,3045.502z"/>
		<path opacity="0.1" enable-background="new    " d="M7205.946,3052.92v118.522l-8.142,16.415l0,0l-8.381,16.816l0,0
			l-16.871,33.929l1.901-125.939l0.375-25.413l16.039-17.674v-0.027l6.989-7.712L7205.946,3052.92z"/>
		<path fill="#637CFF" d="M7210.472,3012.057v43.97l-4.526,7.203l-8.086,12.881l-7.178,11.381l-15.852,25.198l-0.376-0.027
			l-211.122-10.818v-43.408l0.536-0.563l25.198-27.207l9.132-9.854l16.495-17.809L7210.472,3012.057z"/>
		<path opacity="0.1" enable-background="new    " d="M7174.831,3069.281v43.408l-211.498-10.846v-43.408l0.536-0.563
			L7174.831,3069.281z"/>
		<path opacity="0.15" enable-background="new    " d="M7210.472,3012.057v43.97l-35.642,56.663v-43.408L7210.472,3012.057z"/>
		<path fill="#2F2E41" d="M7197.885,3032.273l-0.025,29.563v14.273l-0.055,111.747l0,0l-8.381,16.816l1.258-117.183l0.188-17.915
			v-0.027l0.295-26.458l-202.098-12.425l9.132-9.854L7197.885,3032.273z"/>
		<path fill="#2F2E41" d="M7098.698,3033.746l-14.166,30.662l-0.133,15.639l-1.287,154.888l-33.981-2.25v-170.312l18.129-28.627
			H7098.698z"/>
		<path fill="#2F2E41" d="M7052.05,3035.809c-8.168,2.705-16.951,3.025-25.306,0.884c-1.635-0.322-3.16-1.019-4.445-2.062
			c-1.393-1.527-2.355-3.401-2.758-5.438c-1.473-4.177-2.305-8.542-2.411-12.988c0.081-4.418,1.794-9.023,5.409-11.595
			c0.723-0.456,1.419-0.964,2.063-1.553c0.75-0.938,1.285-2.035,1.58-3.213c2.49-7.364,7.283-15.156,14.969-16.335
			c7.124-1.071,13.577,3.883,19.04,8.516l12.022,10.202c1.34-3.588,3.723-6.668,6.83-8.863c3.133-2.196,6.854-3.4,10.685-3.455
			c3.802-0.054,7.552,1.044,10.737,3.16c3.187,2.116,5.65,5.142,7.097,8.676c7.257-8.194,16.442-14.46,26.698-18.29
			c2.275-0.855,4.954-1.525,7.043-0.268c1.258,0.937,2.249,2.223,2.785,3.722c3.268,7.149,5.034,14.862,5.195,22.708
			c0.855-0.268,1.767-0.268,2.597,0c0.831,0.295,1.554,0.857,2.035,1.607c0.938,1.5,1.474,3.239,1.554,5.007
			c0.32,2.73,0.481,5.489,0.481,8.248c0,2.892-0.269,6.052-2.169,8.248c-2.463,2.839-6.693,3.159-10.471,3.239
			c1.82,1.607,0.938,4.82-1.071,6.187c-2.008,1.366-4.604,1.394-7.017,1.366c-9.346-0.081-19.308-0.35-27.072-5.518
			c-3.054-2.062-5.623-4.767-8.703-6.802c-7.551-4.979-17.03-5.222-25.76-4.82
			C7065.815,3026.758,7059.575,3033.291,7052.05,3035.809z"/>
		<path fill="#2F2E41" d="M7050.336,3033.746c0,0-77.953,10.846-88.825,57.842l16.335-2.41l11.461,20.486
			c0,0,12.104-45.793,47.746-56.638s48.335-12.667,48.335-12.667s24.771,6.025,47.131,77.738l12.692-17.459l22.359,4.82
			c0,0-16.309-56.047-60.412-71.713H7050.336L7050.336,3033.746z"/>
	</g>
</g>
</svg>
