<?xml version="1.0" encoding="utf-8"?>
<svg viewBox="-1390.663 1146.296 252.42 409.93" xmlns="http://www.w3.org/2000/svg">
  <path d="M -1185.983 1519.736 C -1196.333 1530.816 -1208.193 1540.386 -1221.213 1548.166 C -1221.513 1548.346 -1221.823 1548.516 -1222.123 1548.696 L -1243.203 1530.036 C -1242.983 1529.836 -1242.743 1529.596 -1242.473 1529.346 C -1226.763 1514.426 -1148.793 1410.136 -1143.593 1384.746 C -1143.953 1386.856 -1138.903 1469.836 -1185.983 1519.736 Z" fill="#F0F0F0"/>
  <path d="M -1217.153 1551.766 C -1217.553 1551.856 -1217.953 1551.946 -1218.363 1552.026 L -1234.173 1538.026 C -1233.863 1537.926 -1233.503 1537.796 -1233.093 1537.646 C -1226.303 1535.246 -1206.093 1527.996 -1185.983 1519.736 C -1164.373 1510.846 -1142.863 1500.816 -1138.243 1494.386 C -1139.233 1495.876 -1169.793 1541.176 -1217.153 1551.766 Z" fill="#F0F0F0"/>
  <path d="M -1186.273 1243.706 L -1188.523 1243.706 L -1188.523 1182.006 C -1188.523 1177.316 -1189.453 1172.676 -1191.243 1168.336 C -1193.043 1164.006 -1195.673 1160.066 -1198.983 1156.756 C -1202.303 1153.436 -1206.243 1150.806 -1210.573 1149.016 C -1214.903 1147.216 -1219.543 1146.296 -1224.233 1146.296 L -1354.953 1146.296 C -1359.643 1146.296 -1364.283 1147.216 -1368.623 1149.016 C -1372.953 1150.806 -1376.883 1153.436 -1380.203 1156.756 C -1383.523 1160.066 -1386.153 1164.006 -1387.943 1168.336 C -1389.743 1172.676 -1390.663 1177.316 -1390.663 1182.006 L -1390.663 1520.516 C -1390.663 1525.206 -1389.743 1529.846 -1387.943 1534.186 C -1386.153 1538.516 -1383.523 1542.456 -1380.203 1545.766 C -1376.893 1549.086 -1372.953 1551.716 -1368.623 1553.506 C -1364.283 1555.306 -1359.643 1556.226 -1354.953 1556.226 L -1224.233 1556.226 C -1219.543 1556.226 -1214.903 1555.306 -1210.573 1553.506 C -1206.243 1551.716 -1202.303 1549.086 -1198.983 1545.766 C -1195.673 1542.456 -1193.043 1538.516 -1191.243 1534.186 C -1189.453 1529.846 -1188.523 1525.206 -1188.523 1520.516 L -1188.523 1287.636 L -1186.273 1287.636 L -1186.273 1243.706 Z" fill="#3F3D56"/>
  <path d="M -1196.133 1182.256 L -1196.133 1520.266 C -1196.133 1523.776 -1196.823 1527.236 -1198.163 1530.476 C -1199.503 1533.706 -1201.463 1536.646 -1203.943 1539.126 C -1206.423 1541.606 -1209.363 1543.566 -1212.593 1544.906 C -1215.833 1546.246 -1219.303 1546.936 -1222.803 1546.936 L -1354.143 1546.936 C -1357.643 1546.936 -1361.113 1546.246 -1364.353 1544.906 C -1367.583 1543.566 -1370.523 1541.596 -1373.003 1539.126 C -1375.473 1536.646 -1377.443 1533.706 -1378.783 1530.476 C -1380.123 1527.236 -1380.813 1523.766 -1380.813 1520.266 L -1380.813 1182.256 C -1380.813 1178.746 -1380.123 1175.286 -1378.783 1172.046 C -1377.443 1168.816 -1375.473 1165.876 -1373.003 1163.396 C -1370.523 1160.926 -1367.583 1158.956 -1364.353 1157.616 C -1361.113 1156.276 -1357.643 1155.586 -1354.143 1155.586 L -1338.203 1155.586 C -1338.993 1157.516 -1339.283 1159.596 -1339.073 1161.666 C -1338.863 1163.736 -1338.143 1165.716 -1336.983 1167.436 C -1335.823 1169.156 -1334.263 1170.576 -1332.423 1171.546 C -1330.593 1172.526 -1328.553 1173.036 -1326.473 1173.036 L -1251.593 1173.036 C -1249.513 1173.046 -1247.463 1172.536 -1245.633 1171.556 C -1243.793 1170.576 -1242.233 1169.166 -1241.073 1167.446 C -1239.913 1165.716 -1239.193 1163.736 -1238.983 1161.666 C -1238.773 1159.596 -1239.073 1157.516 -1239.853 1155.586 L -1222.803 1155.586 C -1219.303 1155.586 -1215.833 1156.276 -1212.593 1157.616 C -1209.363 1158.956 -1206.423 1160.916 -1203.943 1163.396 C -1201.463 1165.866 -1199.503 1168.806 -1198.163 1172.046 C -1196.823 1175.286 -1196.133 1178.746 -1196.133 1182.256 Z" fill="white"/>
  <path d="M -1236.983 1357.906 L -1352.433 1357.906 C -1354.453 1357.906 -1356.393 1357.096 -1357.823 1355.666 C -1359.253 1354.236 -1360.063 1352.296 -1360.063 1350.276 L -1360.063 1346.476 C -1360.063 1344.456 -1359.253 1342.516 -1357.823 1341.086 C -1356.393 1339.656 -1354.453 1338.856 -1352.433 1338.856 L -1236.983 1338.856 C -1234.963 1338.856 -1233.023 1339.656 -1231.593 1341.086 C -1230.163 1342.516 -1229.363 1344.456 -1229.363 1346.476 L -1229.363 1350.276 C -1229.363 1352.296 -1230.163 1354.236 -1231.593 1355.666 C -1233.023 1357.096 -1234.963 1357.906 -1236.983 1357.906 Z" fill="#F0F0F0"/>
  <path d="M -1236.983 1390.636 L -1352.433 1390.636 C -1354.453 1390.626 -1356.393 1389.826 -1357.823 1388.396 C -1359.253 1386.966 -1360.063 1385.026 -1360.063 1383.006 L -1360.063 1379.206 C -1360.063 1377.186 -1359.253 1375.246 -1357.823 1373.816 C -1356.393 1372.386 -1354.453 1371.586 -1352.433 1371.576 L -1236.983 1371.576 C -1234.963 1371.586 -1233.023 1372.386 -1231.593 1373.816 C -1230.163 1375.246 -1229.363 1377.186 -1229.363 1379.206 L -1229.363 1383.006 C -1229.363 1385.026 -1230.163 1386.966 -1231.593 1388.396 C -1233.023 1389.826 -1234.963 1390.626 -1236.983 1390.636 Z" fill="#F0F0F0"/>
  <path d="M -1231.213 1350.586 L -1346.663 1350.586 C -1348.783 1350.586 -1350.823 1349.736 -1352.323 1348.236 C -1353.823 1346.736 -1354.663 1344.696 -1354.673 1342.576 L -1354.673 1338.776 C -1354.663 1336.656 -1353.823 1334.616 -1352.323 1333.116 C -1350.823 1331.616 -1348.783 1330.776 -1346.663 1330.766 L -1231.213 1330.766 C -1229.083 1330.776 -1227.053 1331.616 -1225.553 1333.116 C -1224.053 1334.616 -1223.203 1336.656 -1223.203 1338.776 L -1223.203 1342.576 C -1223.203 1344.696 -1224.053 1346.736 -1225.553 1348.236 C -1227.053 1349.736 -1229.083 1350.586 -1231.213 1350.586 Z M -1346.663 1332.296 C -1348.383 1332.296 -1350.023 1332.976 -1351.243 1334.196 C -1352.453 1335.416 -1353.143 1337.056 -1353.143 1338.776 L -1353.143 1342.576 C -1353.143 1344.296 -1352.453 1345.946 -1351.243 1347.156 C -1350.023 1348.376 -1348.383 1349.056 -1346.663 1349.056 L -1231.213 1349.056 C -1229.493 1349.056 -1227.843 1348.376 -1226.633 1347.156 C -1225.413 1345.946 -1224.733 1344.296 -1224.723 1342.576 L -1224.723 1338.776 C -1224.733 1337.056 -1225.413 1335.416 -1226.633 1334.196 C -1227.843 1332.976 -1229.493 1332.296 -1231.213 1332.296 L -1346.663 1332.296 Z" fill="#02316B"/>
  <path d="M -1231.213 1383.316 L -1346.663 1383.316 C -1348.783 1383.306 -1350.823 1382.466 -1352.323 1380.966 C -1353.823 1379.466 -1354.663 1377.426 -1354.673 1375.306 L -1354.673 1371.506 C -1354.663 1369.386 -1353.823 1367.346 -1352.323 1365.846 C -1350.823 1364.346 -1348.783 1363.496 -1346.663 1363.496 L -1231.213 1363.496 C -1229.083 1363.496 -1227.053 1364.346 -1225.553 1365.846 C -1224.053 1367.346 -1223.203 1369.386 -1223.203 1371.506 L -1223.203 1375.306 C -1223.203 1377.426 -1224.053 1379.466 -1225.553 1380.966 C -1227.053 1382.466 -1229.083 1383.306 -1231.213 1383.316 Z M -1346.663 1365.026 C -1348.383 1365.026 -1350.023 1365.706 -1351.243 1366.926 C -1352.453 1368.136 -1353.143 1369.786 -1353.143 1371.506 L -1353.143 1375.306 C -1353.143 1377.026 -1352.453 1378.666 -1351.243 1379.886 C -1350.023 1381.106 -1348.383 1381.786 -1346.663 1381.786 L -1231.213 1381.786 C -1229.493 1381.786 -1227.843 1381.106 -1226.633 1379.886 C -1225.413 1378.666 -1224.733 1377.026 -1224.723 1375.306 L -1224.723 1371.506 C -1224.733 1369.786 -1225.413 1368.136 -1226.633 1366.926 C -1227.843 1365.706 -1229.493 1365.026 -1231.213 1365.026 L -1346.663 1365.026 Z" fill="#02316B"/>
  <path d="M -1196.133 1182.256 L -1196.133 1255.776 C -1207.813 1258.846 -1220.043 1259.206 -1231.883 1256.806 C -1243.723 1254.416 -1254.853 1249.336 -1264.423 1241.956 C -1273.993 1234.586 -1281.743 1225.116 -1287.073 1214.276 C -1292.403 1203.436 -1295.183 1191.526 -1295.193 1179.446 C -1295.193 1177.286 -1295.103 1175.156 -1294.933 1173.036 L -1251.593 1173.036 C -1249.513 1173.046 -1247.463 1172.536 -1245.633 1171.556 C -1243.793 1170.576 -1242.233 1169.166 -1241.073 1167.446 C -1239.913 1165.716 -1239.193 1163.736 -1238.983 1161.666 C -1238.773 1159.596 -1239.073 1157.516 -1239.853 1155.586 L -1222.803 1155.586 C -1219.303 1155.586 -1215.833 1156.276 -1212.593 1157.616 C -1209.363 1158.956 -1206.423 1160.916 -1203.943 1163.396 C -1201.463 1165.866 -1199.503 1168.806 -1198.163 1172.046 C -1196.823 1175.286 -1196.133 1178.746 -1196.133 1182.256 Z" fill="#F0F0F0"/>
  <path d="M -1314.443 1542.346 C -1314.443 1543.896 -1314.503 1545.426 -1314.623 1546.936 L -1354.143 1546.936 C -1357.643 1546.936 -1361.113 1546.246 -1364.353 1544.906 C -1367.583 1543.566 -1370.523 1541.596 -1373.003 1539.126 C -1375.473 1536.646 -1377.443 1533.706 -1378.783 1530.476 C -1380.123 1527.236 -1380.813 1523.766 -1380.813 1520.266 L -1380.813 1484.116 C -1372.523 1483.036 -1364.103 1483.736 -1356.113 1486.166 C -1348.123 1488.606 -1340.743 1492.706 -1334.463 1498.216 C -1328.183 1503.726 -1323.143 1510.516 -1319.693 1518.126 C -1316.243 1525.726 -1314.453 1533.986 -1314.443 1542.346 Z" fill="#3B5BCD"/>
  <path d="M -1269.713 1430.096 L -1324.523 1430.096 C -1326.543 1430.096 -1328.483 1429.296 -1329.913 1427.866 C -1331.343 1426.436 -1332.143 1424.496 -1332.153 1422.476 L -1332.153 1418.676 C -1332.143 1416.656 -1331.343 1414.716 -1329.913 1413.286 C -1328.483 1411.856 -1326.543 1411.046 -1324.523 1411.046 L -1269.713 1411.046 C -1267.693 1411.046 -1265.753 1411.856 -1264.323 1413.286 C -1262.893 1414.716 -1262.083 1416.656 -1262.083 1418.676 L -1262.083 1422.476 C -1262.083 1424.496 -1262.893 1426.436 -1264.323 1427.866 C -1265.753 1429.296 -1267.693 1430.096 -1269.713 1430.096 Z" fill="#3B5BCD"/>
  <path d="M -1263.933 1422.776 L -1318.743 1422.776 C -1320.873 1422.776 -1322.903 1421.936 -1324.403 1420.436 C -1325.913 1418.926 -1326.753 1416.896 -1326.753 1414.766 L -1326.753 1410.976 C -1326.753 1408.846 -1325.913 1406.816 -1324.403 1405.316 C -1322.903 1403.816 -1320.873 1402.966 -1318.743 1402.966 L -1263.933 1402.966 C -1261.813 1402.966 -1259.773 1403.816 -1258.273 1405.316 C -1256.773 1406.816 -1255.933 1408.846 -1255.923 1410.976 L -1255.923 1414.766 C -1255.933 1416.896 -1256.773 1418.926 -1258.273 1420.436 C -1259.773 1421.936 -1261.813 1422.776 -1263.933 1422.776 Z M -1318.743 1404.486 C -1320.463 1404.496 -1322.113 1405.176 -1323.333 1406.396 C -1324.543 1407.606 -1325.223 1409.256 -1325.233 1410.976 L -1325.233 1414.766 C -1325.223 1416.486 -1324.543 1418.136 -1323.333 1419.356 C -1322.113 1420.566 -1320.463 1421.256 -1318.743 1421.256 L -1263.933 1421.256 C -1262.213 1421.256 -1260.573 1420.566 -1259.353 1419.356 C -1258.143 1418.136 -1257.453 1416.486 -1257.453 1414.766 L -1257.453 1410.976 C -1257.453 1409.256 -1258.143 1407.606 -1259.353 1406.396 C -1260.573 1405.176 -1262.213 1404.496 -1263.933 1404.486 L -1318.743 1404.486 Z" fill="#3F3D56"/>
  <path d="M -1289.013 1297.616 C -1263.903 1297.616 -1243.543 1277.256 -1243.543 1252.136 C -1243.543 1227.016 -1263.903 1206.656 -1289.013 1206.656 C -1314.133 1206.656 -1334.493 1227.016 -1334.493 1252.136 C -1334.493 1277.256 -1314.133 1297.616 -1289.013 1297.616 Z" fill="#3B5BCD"/>
  <path d="M -1270.173 1271.956 L -1307.853 1271.956 C -1308.543 1271.946 -1309.203 1271.676 -1309.693 1271.186 C -1310.183 1270.706 -1310.453 1270.046 -1310.453 1269.356 L -1310.453 1246.616 C -1310.453 1245.926 -1310.183 1245.266 -1309.693 1244.776 C -1309.203 1244.286 -1308.543 1244.016 -1307.853 1244.016 L -1270.173 1244.016 C -1269.493 1244.016 -1268.823 1244.286 -1268.343 1244.776 C -1267.853 1245.266 -1267.583 1245.926 -1267.583 1246.616 L -1267.583 1269.356 C -1267.583 1270.046 -1267.853 1270.706 -1268.343 1271.186 C -1268.823 1271.676 -1269.493 1271.946 -1270.173 1271.956 Z M -1307.853 1246.616 L -1307.853 1269.356 L -1270.173 1269.356 L -1270.173 1246.616 L -1307.853 1246.616 Z" fill="white"/>
  <path d="M -1277.323 1246.616 L -1300.713 1246.616 L -1300.713 1236.216 C -1300.713 1228.686 -1295.793 1223.226 -1289.013 1223.226 C -1282.243 1223.226 -1277.323 1228.686 -1277.323 1236.216 L -1277.323 1246.616 Z M -1298.113 1244.016 L -1279.923 1244.016 L -1279.923 1236.216 C -1279.923 1230.096 -1283.663 1225.826 -1289.013 1225.826 C -1294.373 1225.826 -1298.113 1230.096 -1298.113 1236.216 L -1298.113 1244.016 Z" fill="white"/>
  <path d="M -1289.013 1259.936 C -1287.583 1259.936 -1286.423 1258.766 -1286.423 1257.336 C -1286.423 1255.896 -1287.583 1254.736 -1289.013 1254.736 C -1290.453 1254.736 -1291.613 1255.896 -1291.613 1257.336 C -1291.613 1258.766 -1290.453 1259.936 -1289.013 1259.936 Z" fill="white"/>
</svg>