<?xml version="1.0" encoding="utf-8"?>
<svg viewBox="5675.063 -1918.614 711 554.999" xmlns="http://www.w3.org/2000/svg">
  <defs>
    <clipPath id="clip20_0_1">
      <rect width="711" height="555" fill="white" transform="translate(11579 693)"/>
    </clipPath>
    <linearGradient id="paint0_linear_0_1" x1="11833.8" y1="1236.37" x2="11833.8" y2="760.366" gradientUnits="userSpaceOnUse">
      <stop stop-color="#808080" stop-opacity="0.25"/>
      <stop offset="0.54" stop-color="#808080" stop-opacity="0.12"/>
      <stop offset="1" stop-color="#808080" stop-opacity="0.1"/>
    </linearGradient>
  </defs>
  <g clip-path="url(#clip20_0_1)" transform="matrix(1, 0, 0, 1, -5903.937012, -2611.614258)">
    <path opacity="0.1" d="M12276.2 840.668C12269.2 824.269 12259.7 809.055 12248 795.561L11856.8 791.691L12178.9 746.271C12158.1 737.951 12136 733.538 12113.6 733.252C12082.7 708.525 12044.8 694.445 12005.4 693.106C11965.9 691.766 11927.1 703.239 11894.7 725.818C11868.8 712.452 11840.1 705.505 11811 705.56C11724 705.56 11651.6 766.001 11635.3 846.157L12276.2 840.668Z" fill="#6C63FF"/>
    <path opacity="0.1" d="M12290 907.889C12290 886.153 12285.9 864.616 12277.8 844.448L11599.7 915.899C11592.7 928.595 11587.3 942.136 11583.8 956.192L11793.8 987.621L11579 1010.55C11585.4 1101.28 11662.9 1172.94 11757.6 1172.94C11805.2 1172.94 11848.5 1154.78 11880.6 1125.17C11912.8 1155.34 11956.5 1173.89 12004.7 1173.89C12076.1 1173.89 12137.8 1133.05 12166.5 1073.99C12224.2 1055.63 12268.9 1009.53 12284.2 951.864L12018.7 910.487H12290C12290 909.619 12290 908.757 12290 907.889Z" fill="#6C63FF"/>
    <path d="M11777.4 1248C11864.2 1248 11934.5 1236.43 11934.5 1222.15C11934.5 1207.87 11864.2 1196.3 11777.4 1196.3C11690.6 1196.3 11620.3 1207.87 11620.3 1222.15C11620.3 1236.43 11690.6 1248 11777.4 1248Z" fill="#3B5BCD"/>
    <path d="M11939.9 1055.63C11932.8 1057.41 11925.6 1053.95 11925.6 1053.95C11925.6 1053.95 11919.4 1046.76 11914.2 1045.78C11908.9 1044.81 11906.9 1053.32 11903.8 1055.51C11901.7 1057.04 11886.2 1055.95 11876.8 1055.13L11875.2 1054.98C11875.1 1054.86 11874.9 1054.74 11874.7 1054.63C11874.7 1054.63 11865.7 1051.85 11863.9 1049.39C11862 1046.93 11849.4 1042.38 11845.6 1042.64C11841.7 1042.91 11830.2 1043.53 11830.2 1043.53C11830.2 1043.53 11825.7 1038.38 11823.6 1038.92C11821.6 1039.45 11814.5 1038.88 11814.5 1038.88C11814.5 1038.88 11812.6 1033.86 11810.6 1026.67C11809.7 1023.32 11806.7 1020.96 11803.8 1019.41C11806.4 1010.38 11801.7 984.62 11787 979.583C11783.8 978.486 11782.1 974.838 11779.4 972.838C11777 971.052 11773 966.842 11774.9 959.235C11777.7 948.585 11784.6 931.815 11784.6 931.815L11789.7 921.561C11789.2 922.287 11788.6 922.969 11788 923.596C11788.7 922.707 11789.4 921.832 11790 921.095C11795.1 923.683 11800.7 925.223 11806.4 925.625C11812.2 927.966 11817.9 930.029 11820.2 929.953C11825.3 929.772 11838.4 936.344 11838.4 936.344C11838.4 936.344 11869.9 945.376 11876.4 946.105C11882.9 946.835 11886.1 938.297 11886.1 938.297C11886.1 938.297 11889.5 921.464 11883.5 917.004C11877.4 912.543 11873.9 932.982 11873.9 932.982L11832.8 918.087L11830.2 916.747C11832.2 914.652 11833.8 912.206 11834.8 909.535C11835.5 907.944 11836.1 906.124 11837.6 905.332C11838 905.129 11838.4 905 11838.9 904.95C11839.3 904.926 11839.6 904.926 11840 904.95C11847.2 905.388 11853.3 911.029 11860.4 911.057C11860.7 911.057 11861 911.057 11861.2 911.057C11862.6 911.053 11863.9 910.642 11865.1 909.876C11865.7 909.354 11866.2 908.706 11866.6 907.973C11867 907.239 11867.2 906.435 11867.3 905.61C11867.2 905.834 11867 906.052 11866.9 906.263C11867.1 905.241 11867.1 904.194 11866.9 903.172C11866.5 900.733 11865.2 898.545 11864.1 896.343C11863.8 895.829 11863.6 895.24 11863.5 894.634C11863.6 894.317 11863.7 894.011 11863.8 893.733C11864 893.455 11864.2 893.21 11864.4 893.015C11864.4 893.081 11864.5 893.146 11864.5 893.21C11865 892.7 11865.6 892.259 11866.3 891.897C11868 890.745 11869.5 889.245 11870.7 887.489C11871.8 885.734 11872.6 883.76 11872.9 881.691C11872.8 882.205 11872.6 882.712 11872.3 883.213C11873.4 879.686 11873.1 875.89 11871.6 872.542C11871.2 871.589 11870.6 870.754 11869.8 870.117C11867.2 868.297 11863.7 870.235 11860.6 870.444C11857.8 870.624 11855.1 869.381 11852.6 868.123C11848.4 865.977 11844.1 863.656 11840.6 860.482C11836.5 856.848 11833.5 852.215 11829.9 848.192C11826.3 844.17 11821.6 840.585 11816.2 840.182C11806.3 839.418 11797 849.213 11787.7 846.018C11783.1 844.468 11780.1 840.231 11776.9 836.59C11773.7 832.95 11769.4 829.456 11764.6 830.241C11761.3 830.797 11758.4 833.374 11755.1 833.277C11753.3 833.221 11751.7 832.436 11750 831.887C11746 830.533 11740.5 831.192 11739.1 835.208C11738.8 836.026 11738.7 836.896 11738.8 837.756C11738.9 838.617 11739.2 839.447 11739.6 840.189C11739.4 840.487 11739.2 840.801 11739 841.127C11738.7 841.763 11738.6 842.498 11738.7 843.211C11735.8 845.776 11733.7 849.059 11732.6 852.72C11731.4 856.381 11731.3 860.285 11732.1 864.026C11733 867.766 11734.9 871.206 11737.5 873.987C11740.1 876.768 11743.5 878.788 11747.1 879.836C11747.3 880.344 11747.4 880.851 11747.5 881.365C11748.9 887.041 11749.6 893.432 11747.6 897.739C11747.5 898.003 11747.3 898.26 11747.2 898.51L11747 898.587L11746.8 898.33L11745.2 896.746C11745.2 895.092 11744.2 890.66 11737.8 882.435C11729.3 871.604 11727.7 853.68 11727.7 853.68C11727.7 853.68 11725.6 844.455 11727.7 841.794C11729.8 839.133 11733.4 809.837 11733.4 809.837L11739.2 793.344C11739.2 793.344 11767.7 764.236 11755.8 760.693C11747.8 758.282 11738.2 770.704 11732.9 778.915C11730.2 782.947 11728.5 787.513 11727.9 792.282L11711.8 836.472C11711.8 836.472 11710.2 841.801 11711.8 851.027C11713.4 860.252 11716.9 876.585 11716.9 876.585L11725.9 899.476C11725.9 899.476 11729.2 909.362 11729 913.655C11728.6 913.912 11727.2 916.663 11726 919.164L11725.1 920.554L11725 921.116C11724.5 922.374 11724 923.277 11724 923.277C11724 923.277 11719 938.123 11723.2 947.231C11727.4 956.338 11727.6 960.562 11727.6 960.562L11730.7 974.053L11732 985.864L11743.2 1013.73L11753.6 1028.55C11753.6 1028.55 11752.6 1039.46 11750.5 1040.97C11748.3 1042.48 11749.3 1050.28 11749.3 1050.28L11748 1070.78C11748 1070.78 11743.8 1076.91 11743.6 1086.84C11743.3 1096.77 11741.8 1099.62 11741.8 1099.62C11741.8 1099.62 11741.1 1107.96 11743 1111.78C11745 1115.6 11739.9 1119.59 11739.9 1119.59L11744.3 1134.45L11742.6 1153.26C11742.6 1153.26 11743.4 1153.48 11744.7 1153.8L11744.4 1155.15L11737.4 1190.79C11737.4 1190.79 11733.6 1200.56 11733.4 1202.86L11721.1 1225.14C11721.1 1225.14 11710.8 1235.34 11715.7 1236.31C11720.6 1237.29 11734.7 1228.51 11734.7 1228.51C11734.7 1228.51 11746.4 1215.9 11751 1214.76C11755.6 1213.61 11760.7 1210.31 11759.2 1205.53C11757.7 1200.74 11754.4 1193.46 11757.6 1185.73C11759.7 1180.87 11764.1 1167.67 11767.1 1158.46C11767.3 1157.95 11767.5 1157.46 11767.6 1156.99C11768.4 1156.92 11769.2 1156.77 11770 1156.54C11777.4 1154.23 11781.3 1155.85 11781.3 1155.85L11794.6 1101.99L11797.5 1074.96L11816 1090.51C11819.7 1093.58 11824.3 1095.39 11829.1 1095.67C11836.4 1096.1 11847.8 1097.16 11856 1099.73L11859.5 1085.26C11859.5 1085.26 11869.4 1085.62 11871.5 1082.25C11872.4 1080.86 11873.2 1079.68 11873.9 1078.77L11875.5 1078.52L11919.3 1071.72C11927.5 1071.72 11938.6 1066.21 11938.6 1066.21L11945.4 1064.89C11945.4 1064.89 11955.6 1062.84 11956.5 1061.16C11957.4 1059.47 11947 1053.86 11939.9 1055.63Z" fill="url(#paint0_linear_0_1)"/>
    <path d="M11741.1 838.688C11742.5 834.77 11747.9 834.11 11751.9 835.437C11753.5 835.979 11755.1 836.75 11756.8 836.827C11760.1 836.924 11762.9 834.395 11766.1 833.86C11770.8 833.082 11775 836.5 11778.1 840.064C11781.3 843.628 11784.2 847.775 11788.7 849.297C11797.8 852.395 11806.9 842.836 11816.6 843.579C11821.8 843.989 11826.4 847.484 11830 851.423C11833.5 855.362 11836.5 859.891 11840.4 863.448C11843.9 866.574 11848 868.846 11852.2 870.951C11854.7 872.181 11857.3 873.396 11860 873.216C11863.1 873.014 11866.5 871.132 11869 872.896C11869.8 873.52 11870.4 874.338 11870.8 875.272C11873.9 881.747 11871.4 890.368 11865.3 894.175C11864.3 894.835 11863 895.565 11862.9 896.836C11862.9 897.43 11863.1 898.008 11863.4 898.51C11864.5 900.664 11865.8 902.811 11866.2 905.193C11866.6 907.576 11866.1 910.32 11864.1 911.765C11862.9 912.607 11861.4 913.019 11859.8 912.939C11852.8 912.905 11846.8 907.382 11839.8 906.958C11839 906.855 11838 906.994 11837.2 907.361C11835.7 908.132 11835.1 909.917 11834.5 911.474C11831.3 919.595 11823.3 925.243 11814.7 926.792C11806.1 928.341 11797.1 926.16 11789.5 922.019C11788.9 921.75 11788.4 921.393 11787.9 920.963C11787.3 920.182 11786.8 919.261 11786.6 918.275C11784.3 910.807 11781.1 902.991 11774.6 898.677C11770.3 895.898 11764.6 894.335 11762.7 889.646C11761.5 886.679 11762.2 883.31 11761.9 880.114C11761.6 877.374 11760.6 874.775 11758.8 872.615C11757.1 870.454 11754.9 868.82 11752.3 867.901C11751.1 867.519 11749.9 867.248 11749.1 866.38C11748.4 865.527 11748 864.507 11747.8 863.427C11746.8 858.724 11746.1 853.757 11744.7 849.165C11743.6 845.566 11739.7 842.808 11741.1 838.688Z" fill="#663D5B"/>
    <g opacity="0.1">
      <path d="M11864.9 909.605C11863.7 910.435 11862.2 910.837 11860.7 910.751C11853.7 910.751 11847.7 905.193 11840.7 904.777C11839.8 904.671 11838.9 904.808 11838 905.173C11836.6 905.944 11836 907.729 11835.4 909.285C11832.1 917.413 11824.1 923.061 11815.5 924.611C11806.9 926.16 11798 923.978 11790.3 919.838C11789.7 919.568 11789.2 919.211 11788.7 918.782C11788.1 917.999 11787.7 917.079 11787.4 916.093C11785.1 908.618 11781.9 900.81 11775.4 896.489C11771.1 893.675 11765.4 892.154 11763.5 887.457C11762.3 884.484 11763 881.115 11762.7 877.926C11762.4 875.185 11761.4 872.584 11759.7 870.423C11758 868.262 11755.7 866.63 11753.1 865.713C11751.9 865.331 11750.7 865.053 11749.9 864.191C11749.2 863.337 11748.8 862.314 11748.6 861.232C11747.6 856.536 11746.9 851.562 11745.5 846.976C11744.5 843.906 11741.5 841.419 11741.6 838.14C11741.5 838.313 11741.4 838.491 11741.4 838.675C11739.9 842.794 11743.8 845.552 11744.9 849.095C11746.4 853.68 11747 858.655 11748.1 863.351C11748.2 864.433 11748.6 865.456 11749.3 866.31C11750.1 867.172 11751.4 867.45 11752.5 867.832C11755.1 868.749 11757.4 870.383 11759.1 872.545C11760.8 874.707 11761.9 877.309 11762.2 880.052C11762.5 883.24 11761.7 886.61 11762.9 889.583C11764.8 894.3 11770.6 895.836 11774.8 898.614C11781.3 902.943 11784.5 910.744 11786.9 918.219C11787.1 919.205 11787.6 920.125 11788.2 920.908C11788.6 921.337 11789.2 921.693 11789.7 921.964C11797.4 926.132 11806.3 928.279 11814.9 926.736C11823.6 925.194 11831.6 919.539 11834.8 911.411C11835.4 909.855 11836 908.07 11837.5 907.298C11838.3 906.934 11839.2 906.797 11840.1 906.902C11847.1 907.326 11853.1 912.849 11860.1 912.877C11861.6 912.956 11863.1 912.547 11864.4 911.71C11865 911.201 11865.5 910.568 11865.9 909.851C11866.3 909.134 11866.5 908.348 11866.5 907.542C11866.2 908.356 11865.6 909.067 11864.9 909.605Z" fill="black"/>
      <path d="M11866.1 891.994C11865.1 892.689 11863.8 893.383 11863.7 894.655C11863.7 894.91 11863.8 895.164 11863.8 895.405C11864.4 894.905 11864.9 894.474 11865.6 894.12C11867.3 892.994 11868.8 891.527 11869.9 889.81C11871 888.092 11871.8 886.161 11872.1 884.137C11871.1 887.372 11869 890.149 11866.1 891.994Z" fill="black"/>
    </g>
    <path d="M11759.2 1181.69C11756 1189.25 11759.3 1196.36 11760.8 1201.06C11762.3 1205.75 11757.3 1208.96 11752.8 1210.09C11748.3 1211.22 11736.8 1223.55 11736.8 1223.55C11736.8 1223.55 11723 1232.14 11718.2 1231.19C11713.5 1230.24 11723.5 1220.25 11723.5 1220.25L11735.5 1198.45C11735.7 1196.2 11739.4 1186.64 11739.4 1186.64L11746.3 1151.76L11747.2 1147.13L11771.6 1145.65C11771.6 1145.65 11770.3 1149.62 11768.6 1154.99C11765.6 1164.02 11761.2 1176.97 11759.2 1181.69Z" fill="#CC818C"/>
    <path d="M11953.9 1059.79C11953 1061.44 11943.1 1063.44 11943.1 1063.44L11936.4 1064.73C11936.4 1064.73 11925.5 1070.13 11917.5 1070.13L11874.7 1076.79L11868.9 1077.68V1053.27C11868.9 1053.27 11871.8 1053.58 11875.9 1053.97C11885.1 1054.77 11900.2 1055.84 11902.3 1054.34C11905.4 1052.17 11907.3 1043.84 11912.4 1044.8C11917.5 1045.75 11923.6 1052.79 11923.6 1052.79C11923.6 1052.79 11930.7 1056.17 11937.6 1054.43C11944.5 1052.7 11954.7 1058.13 11953.9 1059.79Z" fill="#CC818C"/>
    <path opacity="0.1" d="M11876.2 1074.9C11876.2 1074.9 11875.6 1075.59 11874.7 1076.78L11868.9 1077.68V1053.27C11868.9 1053.27 11871.8 1053.58 11875.9 1053.97C11882.8 1059.42 11876.2 1074.9 11876.2 1074.9Z" fill="black"/>
    <path d="M11793.4 1069.26L11816.4 1088.54C11820 1091.55 11824.5 1093.32 11829.2 1093.59C11836.3 1094.02 11847.5 1095.05 11855.6 1097.57L11859 1083.41C11859 1083.41 11868.7 1083.76 11870.8 1080.46C11872 1078.51 11873.3 1076.65 11874.8 1074.9C11874.8 1074.9 11881.8 1058.49 11873.9 1053.45C11873.9 1053.45 11865 1050.76 11863.2 1048.33C11861.4 1045.89 11849.1 1041.47 11845.3 1041.73C11841.5 1041.98 11830.3 1042.59 11830.3 1042.59C11830.3 1042.59 11825.8 1037.56 11823.9 1038.08C11821.9 1038.6 11814.9 1038.08 11814.9 1038.08C11814.9 1038.08 11813 1033.17 11811.1 1026.13C11809.2 1019.09 11797.9 1016.58 11797.9 1016.58L11793.4 1069.26Z" fill="#565987"/>
    <path opacity="0.1" d="M11793.4 1069.26L11816.4 1088.54C11820 1091.55 11824.5 1093.32 11829.2 1093.59C11836.3 1094.02 11847.5 1095.05 11855.6 1097.57L11859 1083.41C11859 1083.41 11868.7 1083.76 11870.8 1080.46C11872 1078.51 11873.3 1076.65 11874.8 1074.9C11874.8 1074.9 11881.8 1058.49 11873.9 1053.45C11873.9 1053.45 11865 1050.76 11863.2 1048.33C11861.4 1045.89 11849.1 1041.47 11845.3 1041.73C11841.5 1041.98 11830.3 1042.59 11830.3 1042.59C11830.3 1042.59 11825.8 1037.56 11823.9 1038.08C11821.9 1038.6 11814.9 1038.08 11814.9 1038.08C11814.9 1038.08 11813 1033.17 11811.1 1026.13C11809.2 1019.09 11797.9 1016.58 11797.9 1016.58L11793.4 1069.26Z" fill="black"/>
    <path d="M11783.1 896.357L11780.6 896.836H11780.4L11780 896.905L11775.7 897.718L11774.3 899.316L11774.3 899.372L11770 904.499L11766.3 908.076L11766.3 908.118L11763.2 911.119L11758 916.309L11757.2 918.469L11755.3 923.256L11754.8 924.472L11749.6 930.029L11746.3 937.15L11738.5 941.666L11730.2 937.324L11726.4 931.766L11727.2 923.805L11727.4 922.214L11729.9 918.122L11732.2 914.398L11736.7 907.972L11745.4 902.067L11746.9 901.657L11748.7 901.199C11748.8 901.009 11748.9 900.812 11749 900.608C11749.2 900.364 11749.3 900.111 11749.4 899.851C11751.4 895.641 11750.7 889.382 11749.4 883.831C11748.4 879.679 11747 875.613 11745.4 871.673L11768.2 868.374C11768.2 868.374 11768 872.82 11768 879.753C11768 881.49 11768 883.372 11768.1 885.387C11768.2 891.64 11774 894.349 11778.3 895.502C11779.4 895.803 11780.6 896.035 11781.7 896.197C11782.6 896.329 11783.1 896.357 11783.1 896.357Z" fill="#CC818C"/>
    <path d="M11747.1 899.636C11747.1 899.636 11748.2 895.467 11739.9 884.873C11731.6 874.279 11730 856.737 11730 856.737C11730 856.737 11727.9 847.706 11730 845.101C11732.1 842.495 11735.5 813.839 11735.5 813.839L11741.2 797.686C11741.2 797.686 11769.1 769.203 11757.5 765.73C11749.6 763.368 11740.2 775.532 11735 783.563C11732.5 787.509 11730.8 791.977 11730.2 796.644L11714.4 839.89C11714.4 839.89 11712.9 845.101 11714.4 854.132C11716 863.163 11719.4 879.142 11719.4 879.142L11728.3 901.567C11728.3 901.567 11732.9 915.531 11730.5 917.233L11735.9 909.251L11747.1 899.636Z" fill="#CC818C"/>
    <path d="M11885 939.603C11885 939.603 11881.9 947.939 11875.5 947.244C11869.1 946.55 11838.3 937.692 11838.3 937.692C11838.3 937.692 11825.5 931.266 11820.5 931.44C11815.5 931.613 11792.5 920.845 11792.5 920.845C11792.5 920.845 11790.8 922.985 11789 925.236C11787.1 927.702 11784.9 930.307 11784.3 930.398C11783.3 930.571 11767.2 932.829 11767.2 932.829L11756.3 927.792L11755.3 923.256L11754.8 921.172L11757.2 918.469L11760.4 914.919L11766.3 908.097L11766.4 908.056L11774.3 899.379L11774.4 899.323L11779.5 897.239L11780.4 896.836H11780.6C11781.2 896.732 11783.5 896.516 11786.7 898.295C11788.9 899.536 11791.3 900.29 11793.8 900.504C11798.8 900.86 11803.5 902.886 11807.2 906.256L11832.8 919.782L11873.1 934.371C11873.1 934.371 11876.5 914.398 11882.4 918.74C11888.3 923.082 11885 939.603 11885 939.603Z" fill="#CC818C"/>
    <path opacity="0.1" d="M11789 925.236C11787.1 927.702 11784.9 930.307 11784.3 930.398C11783.3 930.571 11767.2 932.829 11767.2 932.829L11756.3 927.792L11755.3 923.256L11754.8 924.472L11749.6 930.029L11746.3 937.15L11738.5 941.666L11730.2 937.324L11726.4 931.766L11727.2 923.805C11727.7 922.86 11728.9 920.29 11729.9 918.122C11730.5 916.928 11731.1 915.795 11731.9 914.746C11732.6 914.287 11733.3 909.362 11733.3 909.362C11736.4 900.268 11747 898.872 11747 898.872L11748.6 900.455L11749.4 901.22C11749.1 901.171 11749.4 900.525 11749 900.629C11748.4 900.803 11748.2 901.727 11747.4 902.234C11743.1 905.013 11736.5 911.494 11733.8 914.572C11733.2 915.315 11732.6 916.045 11731.9 916.753C11728.1 920.79 11728.8 926.139 11728.8 926.139C11727.8 930.307 11736.2 933.434 11736.2 933.434C11738.6 929.529 11754.4 918.761 11754.4 918.761L11765 906.777C11768.3 901.067 11774.7 897.295 11778.3 895.53C11779.9 894.752 11780.9 894.363 11780.9 894.363L11784.9 896.072C11783.9 895.789 11782.8 895.837 11781.7 896.211C11781.1 896.393 11780.6 896.626 11780 896.905C11779.8 897.01 11779.6 897.121 11779.4 897.239C11778.3 897.874 11777.3 898.617 11776.4 899.455L11767.4 909.271C11760.6 916.767 11765.7 928.89 11775.8 929.064H11775.9C11782.1 930.495 11786.6 927.619 11789 925.236Z" fill="black"/>
    <path opacity="0.1" d="M11771.6 1145.67C11771.6 1145.67 11770.3 1149.64 11768.6 1155.01C11761.8 1155.52 11750.6 1152.89 11746.3 1151.78L11747.2 1147.15L11771.6 1145.67Z" fill="black"/>
    <path d="M11749.4 901.22L11747.2 898.941C11747.2 898.941 11739.2 900.039 11734.2 908.611C11734.2 908.611 11731.9 915.038 11731.2 915.496C11730.5 915.955 11726.4 924.937 11726.4 924.937C11726.4 924.937 11721.5 939.464 11725.6 948.384C11729.6 957.304 11729.8 961.41 11729.8 961.41L11732.9 974.609L11734.1 986.183L11745.1 1013.45L11755.3 1027.92C11755.3 1027.92 11754.3 1038.6 11752.2 1040.08C11750.2 1041.56 11751.1 1049.19 11751.1 1049.19L11749.8 1069.26C11749.8 1069.26 11745.7 1075.25 11745.5 1084.97C11745.2 1094.7 11743.8 1097.48 11743.8 1097.48C11743.8 1097.48 11743.1 1105.64 11745 1109.38C11746.9 1113.11 11741.9 1117.02 11741.9 1117.02L11746.2 1131.52L11744.5 1149.93C11744.5 1149.93 11764.1 1155.4 11771.3 1153.14C11778.6 1150.89 11782.4 1152.45 11782.4 1152.45L11795.4 1099.71L11799.9 1058.29C11799.9 1058.29 11800.2 1028.94 11804 1019.99C11807.4 1012.35 11803 985.127 11788 979.986C11784.8 978.916 11783.3 975.346 11780.6 973.387C11778.2 971.643 11774.3 967.523 11776.2 960.076C11778.9 949.655 11785.6 933.246 11785.6 933.246L11790.6 923.256C11790.6 923.256 11785.2 932.079 11775.2 929.821H11775.2C11765 929.64 11759.9 917.518 11766.7 910.029L11775.7 900.205C11775.7 900.205 11780.6 895.641 11784.2 896.794L11780.3 895.085C11780.3 895.085 11769.1 899.254 11764.3 907.5L11753.7 919.484C11753.7 919.484 11737.9 930.203 11735.5 934.135C11735.5 934.135 11727.1 931.009 11728.1 926.841C11728.1 926.841 11727.4 921.484 11731.2 917.448C11731.9 916.753 11732.5 916.017 11733.2 915.274C11736.6 911.272 11746 900.657 11749.4 901.22Z" fill="#565987"/>
    <path opacity="0.1" d="M11750.7 972.775C11750.7 972.775 11748.2 991.102 11750.1 994.832L11750.7 972.775Z" fill="black"/>
    <path opacity="0.1" d="M11752.3 979.896L11755 990.407C11755 990.407 11755.9 983.981 11752.3 979.896Z" fill="black"/>
    <path opacity="0.1" d="M11736.4 977.444C11736.4 977.444 11741.8 1004.19 11747.6 1012.27Z" fill="black"/>
    <path opacity="0.1" d="M11774.2 1009.69C11774.2 1009.69 11765 1018.37 11761.5 1017.74C11761.5 1017.74 11775.6 1018.35 11780 1010.88C11780 1010.9 11777.1 1008.82 11774.2 1009.69Z" fill="black"/>
    <path opacity="0.1" d="M11786.9 1008.99C11786.9 1008.99 11775.2 1017.58 11772.8 1018.37C11772.8 1018.37 11785.5 1014.72 11786.9 1008.99Z" fill="black"/>
    <path opacity="0.1" d="M11747.1 945.16C11747.1 945.16 11741.2 952.719 11738.3 951.85C11738.3 951.85 11745.5 952.107 11747.1 945.16Z" fill="black"/>
    <path opacity="0.1" d="M11753.8 954.886C11753.8 954.886 11766.6 937.435 11772.6 938.13C11772.6 938.13 11758.1 950.808 11753.8 954.886Z" fill="black"/>
    <path opacity="0.1" d="M11771.5 948.537C11771.5 948.537 11763.4 952.628 11764.3 953.823C11765.1 955.018 11771.5 948.537 11771.5 948.537Z" fill="black"/>
    <path opacity="0.1" d="M11777.4 1082.54C11777.4 1082.54 11750.2 1098.44 11747.7 1099.21C11747.7 1099.21 11752.4 1102.78 11756.8 1101.04C11761.2 1099.3 11777.4 1082.54 11777.4 1082.54Z" fill="black"/>
    <path opacity="0.1" d="M11754.7 1115.63C11754.7 1115.63 11743.8 1114.5 11744.2 1118.06C11744.6 1121.62 11754.7 1115.63 11754.7 1115.63Z" fill="black"/>
    <path opacity="0.1" d="M11768.2 868.374C11768.2 868.374 11768 872.82 11768 879.753C11765.4 881.861 11762.4 883.329 11759.2 884.037C11756 884.745 11752.6 884.672 11749.4 883.824C11748.4 879.672 11747 875.606 11745.4 871.667L11768.2 868.374Z" fill="black"/>
    <path d="M11754.7 883.164C11766.3 883.164 11775.7 873.755 11775.7 862.149C11775.7 850.543 11766.3 841.134 11754.7 841.134C11743.2 841.134 11733.8 850.543 11733.8 862.149C11733.8 873.755 11743.2 883.164 11754.7 883.164Z" fill="#CC818C"/>
    <path opacity="0.1" d="M11760.2 874.973C11760.8 883.567 11762.6 893.397 11770 897.718C11775.4 900.838 11782.2 900.018 11788.1 898.239C11794.1 896.461 11799.9 893.807 11806.1 893.508C11810.8 893.279 11815.5 894.453 11820.3 894.752C11825 895.051 11830.2 894.307 11833.6 890.959C11838.4 886.193 11837.6 877.53 11833 872.521C11828.4 867.512 11821.2 865.692 11814.4 865.88C11806.1 866.109 11796.8 868.658 11790.3 863.601C11785.8 860.197 11784.2 854.292 11780.5 850.13C11774.3 843.183 11746.9 833.152 11741.1 844.475C11738.4 849.776 11750.7 853.562 11753.6 857.397C11758.1 863.448 11759.7 867.04 11760.2 874.973Z" fill="black"/>
    <path d="M11760.9 874.23C11761.5 882.831 11763.3 892.661 11770.7 896.975C11776.1 900.094 11782.8 899.274 11788.8 897.503C11794.7 895.731 11800.5 893.071 11806.7 892.772C11811.5 892.543 11816.2 893.71 11820.9 894.015C11825.7 894.321 11830.9 893.571 11834.2 890.222C11839.1 885.45 11838.2 876.794 11833.6 871.785C11829 866.776 11821.8 864.956 11815.1 865.143C11806.7 865.365 11797.5 867.922 11790.9 862.858C11786.5 859.453 11784.8 853.555 11781.1 849.387C11774.9 842.44 11747.5 832.415 11741.7 843.739C11739 849.033 11751.4 852.819 11754.2 856.661C11758.8 862.705 11760.3 866.289 11760.9 874.23Z" fill="#663D5B"/>
    <path opacity="0.1" d="M11735.7 933.427C11736 930.685 11736.9 928.043 11738.3 925.679C11739.8 923.314 11741.7 921.28 11743.9 919.713" fill="black"/>
    <path opacity="0.1" d="M11814.2 1042.25C11814.1 1042.93 11814 1043.59 11813.7 1044.23C11812.8 1046.95 11811.7 1049.62 11810.4 1052.19C11812.3 1052.04 11813.8 1050.58 11814.6 1048.89C11815.3 1047.17 11815.6 1045.33 11815.7 1043.47C11815.8 1042.89 11815.8 1042.3 11815.7 1041.72C11815.7 1041.18 11815.3 1039.11 11814.5 1039.47C11813.7 1039.78 11814.2 1041.7 11814.2 1042.25Z" fill="black"/>
    <path opacity="0.1" d="M11835.5 888.048C11832.1 891.396 11826.9 892.147 11822.2 891.841C11817.4 891.535 11812.7 890.368 11808 890.604C11801.7 890.903 11796 893.557 11790 895.335C11784.1 897.114 11777.3 897.934 11771.9 894.814C11764.5 890.493 11762.7 880.663 11762.1 872.069C11761.6 864.136 11760 860.544 11755.5 854.493C11752.7 850.832 11741.4 847.22 11742.7 842.301C11742.3 842.745 11742 843.229 11741.7 843.746C11739 849.04 11751.4 852.826 11754.2 856.668C11758.8 862.712 11760.3 866.31 11760.9 874.237C11761.5 882.838 11763.3 892.668 11770.7 896.982C11776.1 900.101 11782.8 899.281 11788.8 897.51C11794.7 895.738 11800.5 893.078 11806.7 892.779C11811.5 892.55 11816.2 893.717 11820.9 894.022C11825.7 894.328 11830.9 893.578 11834.2 890.229C11835.2 889.272 11836 888.134 11836.5 886.881C11836.2 887.295 11835.8 887.685 11835.5 888.048Z" fill="black"/>
    <path d="M11734.2 951.218L11731.7 956.776L11739.7 955.157L11734.2 951.218Z" fill="#CC818C"/>
    <path opacity="0.1" d="M11734.2 951.218L11732.1 956.776H11731.7L11734.2 951.218Z" fill="black"/>
    <path opacity="0.1" d="M11934 1203.48C11949.7 1203.48 11962.4 1201.72 11962.4 1199.56C11962.4 1197.4 11949.7 1195.65 11934 1195.65C11918.4 1195.65 11905.7 1197.4 11905.7 1199.56C11905.7 1201.72 11918.4 1203.48 11934 1203.48Z" fill="#6C63FF"/>
    <path opacity="0.1" d="M12042.7 1214.54C12058.4 1214.54 12071.1 1212.78 12071.1 1210.62C12071.1 1208.46 12058.4 1206.71 12042.7 1206.71C12027.1 1206.71 12014.4 1208.46 12014.4 1210.62C12014.4 1212.78 12027.1 1214.54 12042.7 1214.54Z" fill="#6C63FF"/>
    <path opacity="0.1" d="M12170.8 1199.56C12186.4 1199.56 12199.1 1197.81 12199.1 1195.65C12199.1 1193.49 12186.4 1191.74 12170.8 1191.74C12155.1 1191.74 12142.4 1193.49 12142.4 1195.65C12142.4 1197.81 12155.1 1199.56 12170.8 1199.56Z" fill="#6C63FF"/>
    <path opacity="0.1" d="M11999.2 1244.9C12010.4 1244.9 12019.4 1243.66 12019.4 1242.12C12019.4 1240.59 12010.4 1239.34 11999.2 1239.34C11988.1 1239.34 11979.1 1240.59 11979.1 1242.12C11979.1 1243.66 11988.1 1244.9 11999.2 1244.9Z" fill="#6C63FF"/>
    <path opacity="0.1" d="M12112 1242.12C12123.2 1242.12 12132.2 1240.88 12132.2 1239.34C12132.2 1237.81 12123.2 1236.57 12112 1236.57C12100.9 1236.57 12091.9 1237.81 12091.9 1239.34C12091.9 1240.88 12100.9 1242.12 12112 1242.12Z" fill="#6C63FF"/>
    <path d="M12043.4 1209.75C12043.4 1209.75 12003.6 1078.8 12049.6 1026.34C12084 987.107 12123.1 991.803 12140.6 996.653C12145.1 997.863 12149.3 1000.05 12152.9 1003.06C12156.5 1006.06 12159.4 1009.82 12161.5 1014.07C12167.6 1027.32 12166.5 1048.8 12123.3 1073.93C12051 1115.96 12046.5 1173.62 12046.5 1173.62L12043.4 1209.75Z" fill="#3B5BCD"/>
    <path d="M12134.4 1015.23C12134.4 1015.23 12017.1 1052.05 12043.4 1209.75" stroke="white" stroke-miterlimit="10"/>
    <path d="M12065.8 1028.43C12065.8 1028.43 12082 1039.36 12076.9 1055.77" stroke="white" stroke-miterlimit="10"/>
    <path d="M12122.6 1038.15C12122.6 1038.15 12112.7 1028.07 12100.7 1033.63" stroke="white" stroke-miterlimit="10"/>
    <path d="M12076.2 1088.87C12076.2 1088.87 12058.9 1080.03 12054.4 1091.1" stroke="white" stroke-miterlimit="10"/>
    <path d="M12033.3 1107.28C12033.3 1107.28 12046.3 1106.24 12046.6 1112.49" stroke="white" stroke-miterlimit="10"/>
    <path d="M12041.8 1210.79C12041.8 1210.79 12088.4 1115.62 12101.2 1117.7C12107.3 1118.69 12110.1 1124.7 12111.3 1130.73C12112.9 1138.53 12112 1146.63 12108.8 1153.9C12102.2 1169.12 12084.4 1198.04 12041.8 1210.79Z" fill="#3B5BCD"/>
    <path d="M12100.8 1135.76C12100.8 1135.76 12051.9 1206.97 12042.4 1210.1" stroke="white" stroke-miterlimit="10"/>
    <path d="M12105.3 1146.88H12093.9" stroke="white" stroke-miterlimit="10"/>
    <path d="M12091.6 1172.93L12073.7 1173.7" stroke="white" stroke-miterlimit="10"/>
    <path d="M12080.7 1152.09L12082.7 1161.45" stroke="white" stroke-miterlimit="10"/>
    <path d="M12061.7 1180.57L12062 1189.07" stroke="white" stroke-miterlimit="10"/>
    <path d="M12043.2 1210.79C12043.2 1210.79 11996.6 1115.62 11983.8 1117.7C11977.7 1118.69 11974.9 1124.7 11973.6 1130.73C11972 1138.52 11972.9 1146.63 11976.1 1153.9C11982.7 1169.12 12000.5 1198.04 12043.2 1210.79Z" fill="#3B5BCD"/>
    <path d="M11984.1 1135.76C11984.1 1135.76 12033 1206.97 12042.4 1210.1" stroke="white" stroke-miterlimit="10"/>
    <path d="M11979.6 1146.88H11991" stroke="white" stroke-miterlimit="10"/>
    <path d="M11993.2 1172.93L12011.1 1173.7" stroke="white" stroke-miterlimit="10"/>
    <path d="M12004.1 1152.09L12002.2 1161.45" stroke="white" stroke-miterlimit="10"/>
    <path d="M12023.2 1180.57L12022.8 1189.07" stroke="white" stroke-miterlimit="10"/>
    <path d="M12123.1 1233.01C12124.4 1231.98 12125.3 1230.58 12125.8 1229C12126.1 1227.4 12125.5 1225.49 12124 1224.91C12122.2 1224.25 12120.4 1225.44 12119.1 1226.63C12117.7 1227.83 12116.1 1229.19 12114.3 1228.94C12115.2 1228.09 12115.9 1227.02 12116.3 1225.83C12116.7 1224.63 12116.8 1223.35 12116.5 1222.12C12116.4 1221.61 12116.2 1221.13 12115.9 1220.73C12115 1219.72 12113.2 1220.16 12112.1 1220.95C12108.5 1223.5 12107.5 1228.4 12107.5 1232.82C12107.1 1231.22 12107.4 1229.56 12107.4 1227.96C12107.4 1226.35 12107 1224.48 12105.6 1223.64C12104.7 1223.17 12103.8 1222.93 12102.8 1222.94C12101.2 1222.89 12099.4 1223.05 12098.3 1224.23C12096.9 1225.71 12097.3 1228.19 12098.5 1229.79C12099.7 1231.4 12101.5 1232.43 12103.2 1233.56C12104.5 1234.35 12105.6 1235.45 12106.5 1236.76C12106.6 1236.94 12106.7 1237.13 12106.8 1237.33H12116.9C12119.2 1236.18 12121.3 1234.73 12123.1 1233.01Z" fill="#3B5BCD"/>
    <path d="M11945.6 1194.69C11946.8 1193.65 11947.8 1192.25 11948.2 1190.67C11948.6 1189.07 11947.9 1187.19 11946.4 1186.57C11944.7 1185.92 11942.9 1187.1 11941.5 1188.3C11940.1 1189.51 11938.5 1190.86 11936.7 1190.61C11937.6 1189.76 11938.3 1188.68 11938.7 1187.49C11939.1 1186.29 11939.2 1185.01 11938.9 1183.77C11938.9 1183.26 11938.6 1182.78 11938.3 1182.38C11937.4 1181.37 11935.7 1181.8 11934.5 1182.6C11930.9 1185.14 11929.9 1190.05 11929.9 1194.47C11929.5 1192.87 11929.8 1191.21 11929.8 1189.6C11929.8 1187.99 11929.4 1186.13 11928 1185.27C11927.1 1184.82 11926.2 1184.59 11925.2 1184.62C11923.6 1184.56 11921.8 1184.72 11920.7 1185.91C11919.3 1187.39 11919.7 1189.86 11920.9 1191.46C11922.1 1193.07 11923.9 1194.1 11925.6 1195.23C11926.9 1196.03 11928.1 1197.13 11928.9 1198.43C11929 1198.61 11929.1 1198.81 11929.2 1199.01H11939.3C11941.6 1197.86 11943.7 1196.4 11945.6 1194.69Z" fill="#3B5BCD"/>
    <path d="M12004.7 1233.01C12006 1231.98 12006.9 1230.58 12007.4 1229C12007.7 1227.4 12007.1 1225.49 12005.5 1224.91C12003.8 1224.25 12002 1225.44 12000.6 1226.63C11999.3 1227.83 11997.7 1229.19 11995.9 1228.94C11996.8 1228.09 11997.5 1227.02 11997.9 1225.83C11998.3 1224.63 11998.4 1223.36 11998.1 1222.12C11998 1221.61 11997.8 1221.13 11997.5 1220.73C11996.6 1219.72 11994.8 1220.16 11993.7 1220.95C11990.1 1223.5 11989.1 1228.4 11989.1 1232.82C11988.7 1231.22 11989 1229.56 11989 1227.96C11989 1226.35 11988.6 1224.48 11987.2 1223.64C11986.3 1223.17 11985.4 1222.93 11984.4 1222.94C11982.8 1222.89 11981 1223.05 11979.9 1224.23C11978.5 1225.71 11978.9 1228.19 11980.1 1229.79C11981.3 1231.4 11983.1 1232.43 11984.8 1233.56C11986.1 1234.35 11987.2 1235.45 11988.1 1236.76C11988.2 1236.94 11988.3 1237.13 11988.4 1237.33H11998.5C12000.8 1236.18 12002.9 1234.73 12004.7 1233.01Z" fill="#3B5BCD"/>
    <path d="M12172.6 1155.53C12172.6 1155.53 12176.4 1160.52 12170.8 1168.04C12165.3 1175.56 12160.7 1181.93 12162.5 1186.63C12162.5 1186.63 12170.9 1172.64 12177.7 1172.44C12184.6 1172.25 12180.1 1163.95 12172.6 1155.53Z" fill="#3B5BCD"/>
    <path opacity="0.1" d="M12172.6 1155.53C12172.9 1156.01 12173.2 1156.54 12173.4 1157.1C12180 1164.95 12183.6 1172.28 12177.2 1172.46C12171.2 1172.63 12164.1 1183.34 12162.3 1186.04C12162.4 1186.25 12162.5 1186.45 12162.5 1186.65C12162.5 1186.65 12170.9 1172.66 12177.8 1172.46C12184.6 1172.27 12180.1 1163.95 12172.6 1155.53Z" fill="black"/>
    <path d="M12179.7 1161.89C12179.7 1163.65 12179.5 1165.07 12179.2 1165.07C12179 1165.07 12178.8 1163.63 12178.8 1161.89C12178.8 1160.15 12179 1160.97 12179.3 1160.97C12179.5 1160.97 12179.7 1160.15 12179.7 1161.89Z" fill="#FFD037"/>
    <path d="M12182.1 1163.99C12180.6 1164.83 12179.2 1165.34 12179.1 1165.13C12179 1164.92 12180.1 1164.06 12181.7 1163.22C12183.2 1162.38 12182.6 1162.99 12182.7 1163.22C12182.8 1163.45 12183.6 1163.15 12182.1 1163.99Z" fill="#FFD037"/>
    <path d="M12152.5 1155.53C12152.5 1155.53 12148.7 1160.52 12154.3 1168.04C12159.8 1175.56 12164.4 1181.93 12162.6 1186.63C12162.6 1186.63 12154.2 1172.64 12147.3 1172.44C12140.5 1172.25 12145 1163.95 12152.5 1155.53Z" fill="#3B5BCD"/>
    <path opacity="0.1" d="M12152.5 1155.53C12152.2 1156.01 12151.9 1156.54 12151.7 1157.1C12145.1 1164.95 12141.5 1172.28 12147.9 1172.46C12153.9 1172.63 12161.1 1183.34 12162.7 1186.04C12162.7 1186.25 12162.6 1186.45 12162.5 1186.65C12162.5 1186.65 12154.2 1172.66 12147.3 1172.46C12140.5 1172.27 12145 1163.95 12152.5 1155.53Z" fill="black"/>
    <path d="M12145.5 1161.89C12145.5 1163.65 12145.7 1165.07 12145.9 1165.07C12146.1 1165.07 12146.3 1163.65 12146.3 1161.89C12146.3 1160.13 12146.1 1160.97 12145.8 1160.97C12145.6 1160.97 12145.5 1160.15 12145.5 1161.89Z" fill="#FFD037"/>
    <path d="M12143 1163.99C12144.6 1164.83 12145.9 1165.34 12146 1165.13C12146.1 1164.92 12145 1164.06 12143.5 1163.22C12141.9 1162.38 12142.5 1162.99 12142.4 1163.22C12142.3 1163.45 12141.5 1163.15 12143 1163.99Z" fill="#FFD037"/>
    <path d="M12146.7 1186C12146.7 1186 12157.3 1185.67 12160.5 1183.38C12163.7 1181.09 12176.9 1178.35 12177.7 1182.03C12178.5 1185.7 12193.6 1200.29 12181.6 1200.39C12169.6 1200.49 12153.7 1198.52 12150.5 1196.56C12147.4 1194.6 12146.7 1186 12146.7 1186Z" fill="#A8A8A8"/>
    <path opacity="0.2" d="M12181.8 1199.11C12169.8 1199.21 12153.9 1197.24 12150.7 1195.28C12148.3 1193.79 12147.3 1188.45 12147 1185.98H12146.7C12146.7 1185.98 12147.4 1194.59 12150.5 1196.54C12153.7 1198.49 12169.6 1200.47 12181.6 1200.38C12185.1 1200.38 12186.3 1199.11 12186.2 1197.28C12185.7 1198.4 12184.4 1199.09 12181.8 1199.11Z" fill="black"/>
  </g>
</svg>